<svg width="133" height="90" viewBox="0 0 133 90" fill="none" xmlns="http://www.w3.org/2000/svg">
<g clip-path="url(#clip0_901_6820)">
<path d="M66.7201 1.0083C69.6752 1.85232 72.4455 3.237 74.8885 5.09111C74.8256 5.17743 74.7683 5.26192 74.7035 5.35191C74.3336 5.89004 73.9433 6.49062 73.5419 7.14629C72.2154 6.24432 70.7938 5.48868 69.3023 4.89276C55.8105 -0.771388 39.9733 7.68258 37.2154 21.9458C34.3723 35.3311 44.2702 48.3472 57.6233 49.8624C57.5826 50.0847 57.54 50.3051 57.5049 50.5218C42.5 50.5457 31.2537 36.1484 34.0006 21.3195C36.6549 6.38225 52.0149 -3.22879 66.7164 1.01381" fill="white"/>
<path d="M88.6963 33.3421C87.5365 32.7782 86.3027 32.2015 84.9968 31.6212C84.9482 31.9638 84.8778 32.303 84.786 32.6368C86.0079 33.2566 87.1793 33.9702 88.2893 34.771C89.2882 35.5148 89.7839 36.1319 89.6304 36.5452C89.4769 36.9584 88.6519 37.1274 87.3219 37.0484C85.9107 36.9368 84.5094 36.725 83.1286 36.4147C79.8398 35.7132 75.591 34.4771 71.0241 32.8388C70.8262 32.7691 70.6338 32.6974 70.4396 32.6258C70.1233 33.5166 69.8236 34.4 69.5443 35.2632C69.7182 35.3238 69.8921 35.3918 70.0697 35.4469C73.8782 36.8133 77.5462 37.9998 80.9312 38.975C82.4368 39.4066 83.8907 39.7941 85.2613 40.1394C93.2262 42.1413 98.8068 42.6409 99.3543 41.1294C99.8852 39.6748 95.629 36.6939 88.6889 33.3366M59.419 27.9038C58.1544 27.2692 56.9389 26.5423 55.7825 25.7293C54.7059 24.9395 54.1695 24.2967 54.3267 23.8706C54.4839 23.4445 55.2516 23.2958 56.5168 23.3545C57.8832 23.4494 59.2404 23.6465 60.5769 23.9441C60.7231 23.6295 60.8861 23.323 61.0653 23.0258C59.6946 22.6474 58.3739 22.3058 57.118 22.0028C49.6174 20.179 44.4197 19.7658 43.8888 21.2204C43.3339 22.7338 47.9489 25.8891 55.357 29.4099C56.637 30.016 58.0077 30.6404 59.4468 31.2667C60.3913 31.6757 61.3686 32.0871 62.3785 32.5009C62.6868 31.5997 63.0044 30.6906 63.3312 29.7735C61.8828 29.1325 60.5566 28.5044 59.4116 27.9038M80.6667 11.242C80.5242 12.0777 80.3559 12.9739 80.1543 13.9198C79.9582 14.8271 79.74 15.7803 79.4958 16.7757C79.1869 18.021 78.8428 19.3305 78.4618 20.6933C78.1624 20.5161 77.8536 20.3548 77.5369 20.2102C77.8399 18.8807 78.0384 17.5298 78.1307 16.1697C78.1899 14.9208 78.0308 14.1494 77.6165 13.9969C77.5664 13.9803 77.5139 13.9716 77.4611 13.9712C77.0357 13.9712 76.4438 14.4947 75.739 15.4405C74.9219 16.5905 74.19 17.7979 73.549 19.0532C71.9952 22.0101 70.2361 26.0323 68.5862 30.5688C68.4419 30.9655 68.2995 31.364 68.1626 31.7571C67.8407 32.6552 67.5411 33.5404 67.2581 34.4055C66.3634 37.0921 65.6053 39.8217 64.9866 42.584C64.6706 43.9544 64.4561 45.346 64.3448 46.7476C64.2653 48.07 64.4243 48.8854 64.8572 49.0397C64.9066 49.0592 64.9593 49.0691 65.0125 49.0691C65.4195 49.0691 65.9799 48.5842 66.644 47.71C67.4492 46.6038 68.1666 45.437 68.7896 44.2204C69.1308 44.3195 69.478 44.3968 69.8292 44.4518C69.2422 45.746 68.6657 46.9704 68.0997 48.1251C64.9052 54.6322 62.0511 58.7573 60.5159 58.7573C60.4259 58.7583 60.3365 58.744 60.2514 58.715C59.1267 58.3091 59.1083 55.1758 59.9887 50.3712C60.0128 50.2464 60.0368 50.1215 60.0608 49.9929C60.3642 48.3969 60.7601 46.6264 61.2465 44.72C61.5998 43.3498 61.9864 41.9118 62.4248 40.4186C63.0759 38.1926 63.8176 35.8417 64.6444 33.4064C64.9441 32.5229 65.2548 31.6285 65.5693 30.7267L65.9633 29.6358C67.3395 25.8597 68.7675 22.3021 70.1733 19.1009C70.8059 17.6739 71.4292 16.3111 72.0414 15.0438C73.2437 12.5497 74.4017 10.3696 75.469 8.61564C75.908 7.88099 76.3303 7.22592 76.736 6.65045C78.0919 4.70179 79.235 3.61084 80.0303 3.61084C80.1187 3.61149 80.2062 3.62701 80.2893 3.65676C81.3529 4.03694 81.425 6.87452 80.6759 11.2585" fill="white"/>
<path d="M10.671 90C8.58698 90 6.7453 89.5525 5.14592 88.6575C3.56686 87.7836 2.26115 86.4941 1.37247 84.931C0.457482 83.3392 0 81.5228 0 79.4817C0 77.4137 0.4316 75.5911 1.2948 74.0141C2.12214 72.4757 3.35312 71.188 4.85735 70.2876C6.36918 69.3791 8.11595 68.9248 10.0976 68.9248C12.0287 68.9248 13.7119 69.3601 15.1473 70.2306C16.577 71.0939 17.7279 72.3456 18.4639 73.8378C19.2383 75.3769 19.6255 77.1302 19.6255 79.0979C19.6333 79.291 19.6 79.4836 19.5276 79.6631C19.4553 79.8426 19.3455 80.0048 19.2056 80.1392C19.0629 80.2721 18.8952 80.3756 18.712 80.4437C18.5288 80.5118 18.3338 80.5431 18.1383 80.5359H2.20855V77.9298H18.3288L16.69 79.0648C16.7353 77.7738 16.4742 76.4904 15.9279 75.3181C15.4311 74.2496 14.638 73.3438 13.6416 72.7064C12.6551 72.0758 11.4738 71.7606 10.0976 71.7606C8.76578 71.7301 7.45205 72.0711 6.30569 72.745C5.22729 73.3999 4.36611 74.3546 3.8289 75.4907C3.24103 76.7396 2.94814 78.1052 2.9725 79.4835C2.94697 80.8711 3.28883 82.241 3.96392 83.4562C4.6028 84.5954 5.54552 85.5378 6.68855 86.1799C7.90509 86.8517 9.27922 87.1914 10.671 87.1643C11.573 87.1579 12.4678 87.0047 13.3198 86.7107C14.1034 86.4711 14.834 86.0859 15.4728 85.5756C15.7747 85.3465 16.1418 85.218 16.5217 85.2083C16.6969 85.1955 16.8729 85.2173 17.0396 85.2725C17.2063 85.3277 17.3603 85.4151 17.4928 85.5297C17.8738 85.8578 18.0711 86.2111 18.0847 86.5894C18.0875 86.7829 18.042 86.9741 17.9523 87.1459C17.8625 87.3177 17.7313 87.4647 17.5704 87.5739C16.6188 88.3429 15.5337 88.933 14.3686 89.315C13.1834 89.7493 11.9323 89.9797 10.6691 89.9964" fill="white"/>
<path d="M29.2279 89.8162C28.2207 89.8346 27.2334 89.5363 26.4071 88.9641C25.5666 88.3628 24.9078 87.5448 24.5019 86.5985C24.025 85.4972 23.791 84.3074 23.8157 83.1089V61.8482C23.8018 61.636 23.8337 61.4233 23.9092 61.2243C23.9847 61.0253 24.1021 60.8446 24.2535 60.6942C24.405 60.5439 24.5869 60.4273 24.7873 60.3523C24.9878 60.2774 25.2019 60.2457 25.4156 60.2595C25.6231 60.2522 25.8298 60.287 26.0232 60.3619C26.2166 60.4367 26.3926 60.55 26.5403 60.6948C26.6883 60.8475 26.8035 61.0285 26.8788 61.2267C26.9542 61.425 26.9882 61.6364 26.9787 61.8482V83.1126C26.9787 84.1472 27.1883 84.9988 27.6076 85.6673C28.0268 86.3358 28.567 86.6701 29.2279 86.6701H30.1805C30.3681 86.6643 30.5546 86.7004 30.7262 86.7757C30.8978 86.851 31.0501 86.9637 31.172 87.1054C31.4338 87.4179 31.5696 87.8158 31.553 88.2221C31.5593 88.4442 31.5122 88.6647 31.4157 88.8652C31.3192 89.0658 31.1761 89.2407 30.9981 89.3755C30.5867 89.6793 30.0824 89.833 29.5701 89.8107L29.2279 89.8162Z" fill="white"/>
<path d="M43.4428 89.9998C41.6205 90.0281 39.8265 89.5497 38.2636 88.6187C36.7438 87.7024 35.495 86.4035 34.6437 84.8536C33.74 83.2071 33.2806 81.3564 33.3101 79.4815C33.278 77.5868 33.7583 75.7183 34.7011 74.0708C35.6061 72.5038 36.9149 71.2043 38.493 70.3057C40.1401 69.3728 42.0092 68.8958 43.9053 68.9246C45.783 68.8975 47.6331 69.3747 49.2602 70.3057C50.8301 71.2087 52.1318 72.5076 53.0336 74.0708C53.9772 75.7197 54.4701 77.585 54.4634 79.4815L53.1686 80.1243C53.1959 81.8839 52.7557 83.6197 51.8923 85.1566C51.0685 86.6172 49.8724 87.837 48.4241 88.694C46.9191 89.5763 45.1977 90.0282 43.4502 89.9998M43.9071 87.1237C45.2406 87.1475 46.5542 86.8001 47.699 86.1209C48.8043 85.4528 49.7118 84.5061 50.3293 83.3769C50.9673 82.1722 51.3007 80.8316 51.3007 79.4704C51.3007 78.1093 50.9673 76.7687 50.3293 75.564C49.7045 74.4401 48.7986 73.4951 47.699 72.82C46.5582 72.1293 45.2431 71.7752 43.9071 71.7989C42.572 71.7817 41.2586 72.1354 40.1152 72.82C38.9963 73.4896 38.0705 74.4347 37.4276 75.564C36.7772 76.7648 36.4368 78.107 36.4368 79.4704C36.4368 80.8339 36.7772 82.1761 37.4276 83.3769C38.0627 84.5119 38.9903 85.4589 40.1152 86.1209C41.2627 86.794 42.5745 87.141 43.9071 87.1237ZM52.8098 89.8161C52.3803 89.8266 51.9636 89.6704 51.6482 89.3809C51.4898 89.234 51.3654 89.0549 51.2833 88.8558C51.2013 88.6567 51.1635 88.4424 51.1728 88.2275V81.9829L51.896 78.6917L54.4486 79.487V88.2275C54.4581 88.4408 54.4223 88.6537 54.3436 88.8524C54.2649 89.051 54.145 89.2311 53.9917 89.3809C53.8335 89.5275 53.6476 89.6414 53.4447 89.7162C53.2418 89.7909 53.026 89.8249 52.8098 89.8161Z" fill="white"/>
<path d="M61.8123 89.8163C61.593 89.8283 61.3734 89.7959 61.1671 89.7211C60.9607 89.6463 60.7718 89.5306 60.6119 89.381C60.4637 89.2284 60.3484 89.0475 60.273 88.8491C60.1977 88.6508 60.1638 88.4393 60.1735 88.2276V70.7393C60.1546 70.5209 60.1841 70.301 60.2598 70.0951C60.3355 69.8891 60.4556 69.7021 60.6117 69.5471C60.7678 69.3921 60.9561 69.2728 61.1635 69.1977C61.3709 69.1225 61.5924 69.0933 61.8123 69.112C62.0256 69.1026 62.2385 69.1363 62.4382 69.2112C62.6379 69.286 62.8202 69.4004 62.974 69.5473C63.1244 69.7062 63.2409 69.8938 63.3162 70.0987C63.3916 70.3036 63.4243 70.5215 63.4124 70.7393V88.2202C63.4259 88.4324 63.3938 88.6449 63.3182 88.8438C63.2426 89.0426 63.1252 89.2232 62.9738 89.3735C62.8225 89.5238 62.6406 89.6404 62.4403 89.7155C62.24 89.7905 62.026 89.8224 61.8123 89.8089M77.9715 89.8089C77.7537 89.8173 77.5365 89.7814 77.3333 89.7034C77.13 89.6254 76.9449 89.5069 76.7895 89.3553C76.6393 89.2071 76.5213 89.0299 76.4427 88.8347C76.3641 88.6395 76.3266 88.4304 76.3326 88.2202V78.5725C76.3326 77.0334 76.0465 75.7784 75.4743 74.8074C74.9294 73.8614 74.1137 73.0975 73.1308 72.6126C72.0736 72.1071 70.9115 71.8554 69.7384 71.878C68.6248 71.8602 67.5224 72.0998 66.518 72.5777C65.6117 73.0054 64.8309 73.6568 64.2503 74.4695C63.6883 75.2743 63.3951 76.2341 63.4124 77.2134H61.1927C61.2189 75.7052 61.6603 74.233 62.469 72.9561C63.2709 71.7052 64.3838 70.6805 65.7004 69.9808C67.0803 69.2392 68.6282 68.8598 70.1971 68.8788C71.8601 68.8517 73.5038 69.2354 74.9805 69.9954C76.3954 70.7437 77.5615 71.883 78.3377 73.2757C79.1627 74.7131 79.5751 76.4787 79.5751 78.5725V88.2221C79.581 88.4332 79.5435 88.6432 79.4647 88.8394C79.386 89.0356 79.2678 89.2138 79.1173 89.363C78.9668 89.5122 78.7873 89.6294 78.5896 89.7073C78.392 89.7853 78.1803 89.8224 77.9678 89.8163" fill="white"/>
<path d="M95.542 89.9999C93.6459 90.0289 91.7768 89.5519 90.1297 88.6187C88.5515 87.7203 87.2427 86.4208 86.3378 84.8537C85.395 83.2062 84.9146 81.3376 84.9468 79.443C84.9171 77.5674 85.3765 75.7161 86.2805 74.069C87.1318 72.5191 88.3806 71.2203 89.9004 70.304C91.4633 69.373 93.2572 68.8946 95.0796 68.9228C96.6356 68.9007 98.1734 69.2583 99.5577 69.9642C100.843 70.6168 101.958 71.556 102.817 72.7081V61.8849C102.805 61.6639 102.842 61.4431 102.924 61.2374C103.006 61.0317 103.131 60.846 103.292 60.6929C103.608 60.4045 104.025 60.2486 104.454 60.2576C104.67 60.2491 104.886 60.2832 105.089 60.3579C105.292 60.4326 105.478 60.5465 105.636 60.6929C105.792 60.8489 105.913 61.0356 105.991 61.2409C106.07 61.4462 106.105 61.6655 106.093 61.8849V79.555C106.07 81.4227 105.565 83.2534 104.626 84.872C103.711 86.4544 102.386 87.7645 100.788 88.6663C99.191 89.5681 97.3794 90.0286 95.542 89.9999ZM95.542 87.1237C96.8779 87.1474 98.1931 86.7933 99.3339 86.1026C100.434 85.4276 101.34 84.4826 101.964 83.3587C102.602 82.154 102.936 80.8133 102.936 79.4522C102.936 78.0911 102.602 76.7504 101.964 75.5457C101.346 74.4168 100.439 73.4701 99.3339 72.8018C98.1889 72.1228 96.8754 71.7754 95.542 71.799C94.2094 71.7819 92.8976 72.1288 91.7501 72.8018C90.6274 73.4647 89.7019 74.4116 89.068 75.5457C88.4176 76.7465 88.0773 78.0887 88.0773 79.4522C88.0773 80.8156 88.4176 82.1578 89.068 83.3587C89.7103 84.4883 90.6362 85.4337 91.7556 86.1026C92.8991 86.7872 94.2124 87.1409 95.5476 87.1237" fill="white"/>
<path d="M122.444 89.9998C120.386 89.9998 118.563 89.5456 116.975 88.637C115.406 87.7475 114.109 86.4528 113.222 84.8903C112.291 83.2389 111.817 81.3719 111.849 79.4796C111.849 77.4361 112.307 75.6197 113.222 74.0304C114.109 72.4679 115.406 71.1732 116.975 70.2837C118.562 69.3752 120.385 68.9209 122.444 68.9209C124.477 68.9209 126.28 69.3752 127.855 70.2837C129.416 71.1774 130.705 72.4715 131.589 74.0304C132.504 75.6221 132.974 77.4385 132.999 79.4796C133.031 81.3719 132.557 83.2389 131.626 84.8903C130.739 86.4527 129.442 87.7473 127.873 88.637C126.285 89.5456 124.475 89.9998 122.442 89.9998M122.442 87.1237C123.758 87.1489 125.055 86.8136 126.192 86.1546C127.328 85.4956 128.259 84.5383 128.883 83.388C129.532 82.1848 129.86 80.8369 129.836 79.4723C129.858 78.1015 129.531 76.7473 128.883 75.5364C128.27 74.4045 127.358 73.4593 126.246 72.8017C125.093 72.1243 123.774 71.7772 122.435 71.7989C121.09 71.7783 119.765 72.1252 118.604 72.8017C117.483 73.4613 116.561 74.4093 115.937 75.5456C115.278 76.7528 114.943 78.1084 114.966 79.4815C114.942 80.8483 115.276 82.1978 115.937 83.3972C116.577 84.5457 117.52 85.4994 118.665 86.156C119.81 86.8125 121.113 87.147 122.435 87.1237" fill="white"/>
</g>
<defs>
<clipPath id="clip0_901_6820">
<rect width="133" height="90" fill="white"/>
</clipPath>
</defs>
</svg>
