<svg width="86" height="58" viewBox="0 0 86 58" fill="none" xmlns="http://www.w3.org/2000/svg">
<path d="M43.1419 0.645703C45.0527 1.18963 46.8441 2.08198 48.4237 3.27685C48.3831 3.33248 48.346 3.38692 48.3041 3.44492C48.0649 3.79171 47.8125 4.17875 47.553 4.6013C46.6953 4.02003 45.776 3.53306 44.8116 3.14902C36.0876 -0.501207 25.847 4.94691 24.0636 14.1388C22.2253 22.7648 28.6254 31.153 37.2597 32.1295C37.2334 32.2727 37.2059 32.4147 37.1832 32.5544C27.4808 32.5698 20.2088 23.2915 21.9849 13.7351C23.7012 4.10892 33.6333 -2.08487 43.1395 0.649253" fill="white"/>
<path d="M57.352 21.4834C56.6021 21.12 55.8043 20.7484 54.9599 20.3743C54.9284 20.5951 54.8829 20.8138 54.8235 21.0289C55.6137 21.4283 56.3711 21.8881 57.0889 22.4042C57.7347 22.8836 58.0553 23.2813 57.956 23.5476C57.8567 23.8139 57.3233 23.9228 56.4633 23.8719C55.5508 23.7999 54.6447 23.6635 53.7519 23.4635C51.6253 23.0114 48.8779 22.2148 45.9249 21.1591C45.7969 21.1141 45.6725 21.0679 45.5469 21.0218C45.3424 21.5958 45.1486 22.1651 44.968 22.7214C45.0805 22.7605 45.1929 22.8043 45.3077 22.8398C47.7704 23.7204 50.1422 24.485 52.3309 25.1135C53.3045 25.3916 54.2446 25.6414 55.1309 25.8639C60.2811 27.154 63.8896 27.4759 64.2437 26.5018C64.5869 25.5644 61.8348 23.6434 57.3472 21.4798M38.4208 17.9787C37.6031 17.5697 36.8171 17.1013 36.0694 16.5773C35.3733 16.0684 35.0264 15.6541 35.1281 15.3795C35.2297 15.1049 35.7261 15.0091 36.5442 15.047C37.4277 15.1081 38.3053 15.2351 39.1695 15.4269C39.2641 15.2242 39.3695 15.0266 39.4853 14.8351C38.599 14.5913 37.7451 14.3711 36.9329 14.1758C32.0829 13.0005 28.722 12.7342 28.3787 13.6716C28.0199 14.6469 31.0041 16.6803 35.7943 18.9493C36.622 19.3399 37.5082 19.7423 38.4388 20.1459C39.0496 20.4095 39.6815 20.6746 40.3345 20.9413C40.5338 20.3605 40.7392 19.7746 40.9505 19.1836C40.014 18.7706 39.1564 18.3658 38.416 17.9787M52.1599 7.2411C52.0678 7.77964 51.959 8.35724 51.8286 8.96679C51.7018 9.55149 51.5607 10.1658 51.4028 10.8073C51.2031 11.6098 50.9806 12.4537 50.7342 13.3319C50.5406 13.2177 50.341 13.1138 50.1362 13.0206C50.3321 12.1638 50.4605 11.2932 50.5201 10.4167C50.5584 9.61186 50.4555 9.11474 50.1876 9.0165C50.1552 9.00578 50.1213 9.00018 50.0871 8.99993C49.8121 8.99993 49.4293 9.33726 48.9736 9.94682C48.4452 10.6879 47.972 11.466 47.5575 12.275C46.5528 14.1806 45.4154 16.7726 44.3485 19.6961C44.2552 19.9518 44.1631 20.2086 44.0746 20.4619C43.8665 21.0407 43.6727 21.6112 43.4897 22.1687C42.9112 23.9001 42.421 25.6591 42.021 27.4393C41.8166 28.3224 41.6779 29.2192 41.6059 30.1225C41.5545 30.9747 41.6574 31.5002 41.9372 31.5996C41.9692 31.6122 42.0033 31.6186 42.0377 31.6186C42.3008 31.6186 42.6632 31.3061 43.0926 30.7427C43.6133 30.0298 44.0771 29.2779 44.48 28.4938C44.7006 28.5577 44.9252 28.6075 45.1522 28.643C44.7727 29.477 44.3999 30.2661 44.0339 31.0102C41.9683 35.2037 40.1228 37.862 39.1301 37.862C39.0719 37.8627 39.0141 37.8535 38.959 37.8348C38.2318 37.5732 38.2199 35.554 38.7892 32.4577C38.8048 32.3772 38.8203 32.2968 38.8358 32.2139C39.032 31.1854 39.288 30.0444 39.6025 28.8158C39.831 27.9328 40.0809 27.0061 40.3644 26.0438C40.7854 24.6093 41.265 23.0943 41.7997 21.5248C41.9934 20.9555 42.1944 20.3791 42.3977 19.7979L42.6525 19.0949C43.5423 16.6614 44.4657 14.3687 45.3747 12.3057C45.7838 11.3861 46.1868 10.5078 46.5827 9.69116C47.3601 8.08383 48.1089 6.67889 48.799 5.54855C49.0829 5.07511 49.356 4.65296 49.6183 4.2821C50.495 3.0263 51.2342 2.32324 51.7485 2.32324C51.8056 2.32366 51.8622 2.33367 51.9159 2.35283C52.6037 2.59784 52.6503 4.4265 52.1659 7.25176" fill="white"/>
<path d="M6.90004 57.9959C5.55248 57.9959 4.36162 57.7075 3.32744 57.1307C2.30639 56.5675 1.4621 55.7365 0.887464 54.7291C0.295815 53.7034 0 52.5328 0 51.2174C0 49.8847 0.27908 48.7101 0.837239 47.6938C1.37221 46.7024 2.16818 45.8726 3.14084 45.2923C4.11842 44.7068 5.2479 44.4141 6.52928 44.4141C7.77796 44.4141 8.86635 44.6946 9.79449 45.2556C10.719 45.8119 11.4632 46.6186 11.939 47.5802C12.4398 48.5721 12.6902 49.702 12.6902 50.97C12.6952 51.0945 12.6737 51.2186 12.6269 51.3343C12.5801 51.4499 12.5091 51.5545 12.4187 51.6411C12.3264 51.7268 12.2179 51.7935 12.0995 51.8373C11.981 51.8812 11.8549 51.9014 11.7285 51.8968H1.42808V50.2173H11.8517L10.792 50.9487C10.8213 50.1168 10.6525 49.2897 10.2992 48.5342C9.97797 47.8456 9.46519 47.2618 8.82091 46.8511C8.18301 46.4447 7.41914 46.2415 6.52928 46.2415C5.6681 46.2219 4.81862 46.4417 4.07736 46.876C3.38006 47.298 2.8232 47.9132 2.47583 48.6454C2.09571 49.4503 1.90632 50.3303 1.92207 51.2186C1.90556 52.1128 2.12661 52.9956 2.56314 53.7787C2.97625 54.5129 3.58582 55.1202 4.32493 55.534C5.11156 55.9669 6.0001 56.1858 6.90004 56.1684C7.48327 56.1643 8.06188 56.0656 8.6128 55.8761C9.11949 55.7217 9.59192 55.4734 10.005 55.1446C10.2002 54.997 10.4376 54.9141 10.6832 54.9079C10.7965 54.8996 10.9103 54.9137 11.0181 54.9493C11.1259 54.9848 11.2255 55.0411 11.3111 55.115C11.5575 55.3265 11.6851 55.5541 11.6938 55.7979C11.6957 55.9226 11.6662 56.0458 11.6082 56.1565C11.5502 56.2672 11.4654 56.362 11.3613 56.4323C10.746 56.928 10.0444 57.3082 9.29095 57.5544C8.52461 57.8343 7.71564 57.9828 6.89884 57.9935" fill="white"/>
<path d="M18.9001 57.8778C18.2488 57.8896 17.6104 57.6974 17.0762 57.3286C16.5327 56.9412 16.1067 56.414 15.8442 55.8042C15.5359 55.0945 15.3846 54.3277 15.4005 53.5553V39.854C15.3915 39.7172 15.4121 39.5801 15.461 39.4519C15.5098 39.3237 15.5857 39.2072 15.6836 39.1103C15.7815 39.0134 15.8992 38.9383 16.0288 38.89C16.1584 38.8417 16.2969 38.8213 16.4351 38.8301C16.5692 38.8254 16.7029 38.8479 16.8279 38.8961C16.953 38.9444 17.0667 39.0174 17.1623 39.1107C17.258 39.2091 17.3325 39.3257 17.3812 39.4535C17.4299 39.5813 17.4519 39.7175 17.4457 39.854V53.5577C17.4457 54.2245 17.5813 54.7732 17.8524 55.2041C18.1235 55.6349 18.4728 55.8503 18.9001 55.8503H19.5161C19.6374 55.8466 19.758 55.8698 19.8689 55.9184C19.9799 55.9669 20.0784 56.0395 20.1572 56.1308C20.3265 56.3323 20.4143 56.5887 20.4036 56.8505C20.4076 56.9937 20.3772 57.1357 20.3148 57.265C20.2524 57.3942 20.1599 57.5069 20.0448 57.5938C19.7788 57.7896 19.4527 57.8887 19.1214 57.8743L18.9001 57.8778Z" fill="white"/>
<path d="M28.092 57.9957C26.9137 58.0139 25.7537 57.7056 24.7431 57.1056C23.7604 56.5152 22.9528 55.6781 22.4024 54.6792C21.818 53.6181 21.5209 52.4255 21.54 51.2172C21.5193 49.9962 21.8299 48.7921 22.4395 47.7303C23.0246 46.7205 23.8709 45.883 24.8914 45.3039C25.9565 44.7027 27.165 44.3954 28.3911 44.4139C29.6052 44.3964 30.8016 44.7039 31.8536 45.3039C32.8687 45.8859 33.7105 46.7229 34.2936 47.7303C34.9037 48.793 35.2225 49.995 35.2181 51.2172L34.3809 51.6315C34.3985 52.7655 34.1139 53.884 33.5556 54.8745C33.0229 55.8158 32.2495 56.6019 31.313 57.1542C30.3399 57.7228 29.2268 58.014 28.0968 57.9957M28.3922 56.1422C29.2545 56.1575 30.1039 55.9337 30.8442 55.4959C31.5589 55.0654 32.1457 54.4553 32.545 53.7276C32.9575 52.9513 33.1731 52.0873 33.1731 51.2101C33.1731 50.333 32.9575 49.469 32.545 48.6926C32.1409 47.9684 31.5552 47.3594 30.8442 46.9243C30.1065 46.4792 29.2561 46.2509 28.3922 46.2662C27.5289 46.2552 26.6797 46.4831 25.9403 46.9243C25.2168 47.3558 24.6182 47.9649 24.2025 48.6926C23.7819 49.4665 23.5618 50.3314 23.5618 51.2101C23.5618 52.0888 23.7819 52.9538 24.2025 53.7276C24.6132 54.459 25.2129 55.0693 25.9403 55.4959C26.6823 55.9298 27.5305 56.1533 28.3922 56.1422ZM34.1489 57.8773C33.8711 57.8841 33.6017 57.7834 33.3977 57.5968C33.2953 57.5022 33.2149 57.3868 33.1618 57.2585C33.1088 57.1302 33.0844 56.992 33.0903 56.8535V52.8293L33.558 50.7083L35.2086 51.2208V56.8535C35.2147 56.991 35.1915 57.1282 35.1406 57.2562C35.0897 57.3843 35.0122 57.5003 34.9131 57.5968C34.8108 57.6913 34.6906 57.7647 34.5594 57.8129C34.4282 57.861 34.2887 57.883 34.1489 57.8773Z" fill="white"/>
<path d="M39.9685 57.8777C39.8267 57.8855 39.6847 57.8646 39.5513 57.8164C39.4179 57.7682 39.2957 57.6936 39.1923 57.5972C39.0965 57.4989 39.022 57.3822 38.9732 57.2544C38.9245 57.1266 38.9026 56.9903 38.9089 56.8539V45.5836C38.8967 45.4429 38.9157 45.3012 38.9646 45.1685C39.0136 45.0358 39.0912 44.9152 39.1922 44.8153C39.2931 44.7155 39.4149 44.6386 39.549 44.5902C39.6831 44.5417 39.8263 44.5229 39.9685 44.535C40.1064 44.5289 40.2441 44.5506 40.3732 44.5988C40.5024 44.6471 40.6202 44.7208 40.7197 44.8155C40.817 44.9179 40.8923 45.0388 40.941 45.1708C40.9897 45.3028 41.0109 45.4433 41.0032 45.5836V56.8492C41.0119 56.9859 40.9912 57.1228 40.9423 57.251C40.8934 57.3791 40.8175 57.4955 40.7196 57.5924C40.6217 57.6892 40.5041 57.7643 40.3746 57.8127C40.2451 57.8611 40.1067 57.8816 39.9685 57.873M50.4173 57.873C50.2765 57.8784 50.1361 57.8552 50.0046 57.805C49.8732 57.7547 49.7535 57.6783 49.653 57.5806C49.5559 57.4851 49.4796 57.371 49.4288 57.2452C49.378 57.1193 49.3537 56.9846 49.3576 56.8492V50.6317C49.3576 49.6398 49.1726 48.831 48.8026 48.2053C48.4503 47.5957 47.9228 47.1034 47.2872 46.7909C46.6037 46.4651 45.8522 46.3029 45.0937 46.3175C44.3736 46.306 43.6607 46.4604 43.0113 46.7684C42.4253 47.0441 41.9204 47.4638 41.545 47.9875C41.1816 48.5062 40.992 49.1248 41.0032 49.7558H39.5679C39.5848 48.7839 39.8702 47.8351 40.3932 47.0122C40.9117 46.2061 41.6313 45.5458 42.4827 45.0948C43.3749 44.6169 44.3758 44.3725 45.3903 44.3847C46.4656 44.3672 47.5285 44.6145 48.4833 45.1043C49.3982 45.5865 50.1522 46.3207 50.6541 47.2182C51.1876 48.1446 51.4543 49.2824 51.4543 50.6317V56.8503C51.4581 56.9864 51.4338 57.1218 51.3829 57.2482C51.332 57.3746 51.2555 57.4894 51.1582 57.5856C51.0609 57.6818 50.9448 57.7573 50.817 57.8075C50.6892 57.8577 50.5524 57.8816 50.4149 57.8777" fill="white"/>
<path d="M61.7778 57.9962C60.5517 58.0149 59.3431 57.7075 58.2781 57.1061C57.2576 56.5271 56.4113 55.6896 55.8262 54.6797C55.2165 53.618 54.9059 52.4138 54.9268 51.1928C54.9075 49.9842 55.2046 48.7911 55.7891 47.7296C56.3396 46.7308 57.1471 45.8938 58.1298 45.3032C59.1404 44.7033 60.3004 44.395 61.4788 44.4132C62.4849 44.3989 63.4793 44.6294 64.3744 45.0843C65.2054 45.5049 65.9267 46.1101 66.4819 46.8526V39.8776C66.4743 39.7352 66.4978 39.5929 66.5509 39.4604C66.6039 39.3278 66.6852 39.2081 66.7892 39.1095C66.9937 38.9236 67.2628 38.8231 67.5404 38.8289C67.6802 38.8235 67.8197 38.8454 67.9509 38.8936C68.082 38.9417 68.2023 39.0151 68.3047 39.1095C68.4053 39.21 68.4836 39.3303 68.5345 39.4626C68.5854 39.5949 68.6077 39.7363 68.6001 39.8776V51.265C68.5851 52.4687 68.2586 53.6484 67.6516 54.6916C67.06 55.7113 66.2032 56.5556 65.1702 57.1368C64.1373 57.7179 62.9659 58.0147 61.7778 57.9962ZM61.7778 56.1427C62.6416 56.1579 63.492 55.9297 64.2297 55.4846C64.9408 55.0496 65.5266 54.4406 65.9305 53.7163C66.343 52.9399 66.5586 52.0759 66.5586 51.1988C66.5586 50.3216 66.343 49.4576 65.9305 48.6812C65.531 47.9537 64.9443 47.3437 64.2297 46.9129C63.4893 46.4754 62.64 46.2515 61.7778 46.2667C60.9161 46.2557 60.0679 46.4792 59.3259 46.9129C58.5999 47.3402 58.0014 47.9504 57.5916 48.6812C57.171 49.4551 56.9509 50.3201 56.9509 51.1988C56.9509 52.0774 57.171 52.9424 57.5916 53.7163C58.0069 54.4443 58.6056 55.0535 59.3295 55.4846C60.0688 55.9258 60.9181 56.1537 61.7814 56.1427" fill="white"/>
<path d="M79.1743 57.9963C77.8435 57.9963 76.6645 57.7036 75.6375 57.1181C74.6231 56.5448 73.7846 55.7104 73.2107 54.7035C72.6088 53.6392 72.3025 52.4361 72.3233 51.2166C72.3233 49.8997 72.6191 48.7291 73.2107 47.7049C73.7845 46.698 74.6231 45.8636 75.6375 45.2903C76.6637 44.7049 77.8427 44.4121 79.1743 44.4121C80.4883 44.4121 81.6545 44.7049 82.6727 45.2903C83.6819 45.8663 84.516 46.7003 85.0876 47.7049C85.6792 48.7307 85.983 49.9013 85.999 51.2166C86.0197 52.4361 85.7135 53.6392 85.1115 54.7035C84.5376 55.7104 83.699 56.5447 82.6847 57.1181C81.6577 57.7036 80.4871 57.9963 79.1731 57.9963M79.1731 56.1428C80.0238 56.1591 80.8626 55.943 81.5973 55.5183C82.332 55.0936 82.9342 54.4767 83.3377 53.7353C83.7573 52.96 83.9693 52.0913 83.9537 51.2119C83.9683 50.3285 83.7564 49.4558 83.3377 48.6754C82.941 47.946 82.3515 47.3369 81.6322 46.9131C80.887 46.4765 80.0341 46.2528 79.1683 46.2668C78.2984 46.2535 77.4415 46.4771 76.6912 46.9131C75.966 47.3382 75.3702 47.9491 74.9665 48.6814C74.5402 49.4593 74.324 50.333 74.3386 51.2178C74.323 52.0986 74.5394 52.9683 74.9665 53.7413C75.3805 54.4814 75.9903 55.0961 76.7306 55.5192C77.4708 55.9423 78.3136 56.1578 79.1683 56.1428" fill="white"/>
</svg>
