<svg width="68" height="68" viewBox="0 0 68 68" fill="none" xmlns="http://www.w3.org/2000/svg">
<path d="M43.422 39.3457V28.6588C43.422 28.3977 43.284 28.1562 43.0574 28.0222C43.0524 28.0192 43.0446 28.0202 43.0377 28.0163C43.0357 28.0163 43.0347 28.0123 43.0327 28.0113L34.3544 23.2356C34.2453 23.1753 34.1227 23.1438 33.9981 23.1438C33.8735 23.1438 33.7509 23.1753 33.6418 23.2356L24.9644 28.0113C24.9605 28.0133 24.9595 28.0172 24.9566 28.0182C24.9526 28.0212 24.9467 28.0202 24.9428 28.0222C24.8615 28.0767 24.7921 28.1471 24.7388 28.2291C24.723 28.2518 24.6964 28.2636 24.6826 28.2863C24.6159 28.3991 24.5805 28.5277 24.5801 28.6588V39.3457C24.5801 39.6157 24.7279 39.864 24.9635 39.9931L33.6408 44.765C33.7499 44.8252 33.8725 44.8568 33.9971 44.8568C34.1217 44.8568 34.2443 44.8252 34.3534 44.765L43.0377 39.9931C43.1538 39.9295 43.2507 39.8358 43.3183 39.7219C43.3859 39.608 43.4217 39.4781 43.422 39.3457ZM33.9986 24.7276L41.1425 28.6588L33.9976 32.5831L26.8546 28.6588L33.9986 24.7276ZM26.0584 29.9084L33.2585 33.8672V42.8679L26.0574 38.9081V29.9074L26.0584 29.9084ZM41.9428 38.9081L34.7367 42.8679V33.8682L41.9428 29.9074V38.9081ZM25.2916 52.7466H27.2272V54.2248H25.2916V52.7466ZM29.1617 52.7466H31.0972V54.2248H29.1617V52.7466ZM36.9039 52.7466H38.8394V54.2248H36.9039V52.7466ZM33.0328 52.7466H34.9683V54.2248H33.0328V52.7466ZM40.7749 52.7466H42.7105V54.2248H40.7749V52.7466ZM13.8893 33.6908H15.3676V35.5721H13.8893V33.6908ZM13.8893 37.4525H15.3676V39.3338H13.8893V37.4525ZM13.8893 29.9281H15.3676V31.8095H13.8893V29.9281ZM29.1617 15.0371H31.0972V16.5154H29.1617V15.0371ZM36.9039 15.0371H38.8394V16.5154H36.9039V15.0371ZM25.2916 15.0371H27.2272V16.5154H25.2916V15.0371ZM33.0328 15.0371H34.9683V16.5154H33.0328V15.0371ZM40.7749 15.0371H42.7105V16.5154H40.7749V15.0371ZM52.6335 29.9281H54.1118V31.8095H52.6335V29.9281ZM52.6335 37.4525H54.1118V39.3338H52.6335V37.4525ZM52.6335 33.6908H54.1118V35.5721H52.6335V33.6908ZM43.1569 59.6461L53.7068 65.4458C53.8157 65.5059 53.9381 65.5374 54.0625 65.5374C54.1869 65.5374 54.3093 65.5059 54.4183 65.4458L64.9741 59.6461C65.09 59.5823 65.1867 59.4886 65.2542 59.3747C65.3216 59.2609 65.3572 59.131 65.3574 58.9986V46.0077C65.3574 45.7465 65.2194 45.5051 64.9948 45.371C64.9879 45.3671 64.979 45.3691 64.9721 45.3651L64.9672 45.3612L54.4193 39.5566C54.3103 39.4964 54.1879 39.4649 54.0635 39.4649C53.9391 39.4649 53.8167 39.4964 53.7077 39.5566L43.1579 45.3612C43.1559 45.3622 43.1549 45.3661 43.152 45.3671C43.147 45.3701 43.1421 45.3691 43.1372 45.371C43.0509 45.4275 42.9776 45.5018 42.9224 45.5888C42.9105 45.6066 42.8879 45.6164 42.877 45.6352C42.8103 45.748 42.7749 45.8766 42.7745 46.0077V58.9986C42.7745 59.2677 42.9214 59.516 43.1569 59.6461ZM44.2528 47.2583L44.5021 47.3943L53.3224 52.245V63.5487L44.2528 58.5621V47.2583ZM63.8792 58.5611L54.8017 63.5477V52.2459L63.8782 47.2583V58.5621L63.8792 58.5611ZM54.0635 41.0476L63.077 46.0077L54.0635 50.9599L45.0481 46.0077L54.0635 41.0476ZM3.02606 59.6461L13.5739 65.4458C13.683 65.506 13.8056 65.5376 13.9302 65.5376C14.0548 65.5376 14.1774 65.506 14.2865 65.4458L24.8422 59.6461C24.9584 59.5825 25.0553 59.4888 25.1229 59.3749C25.1905 59.261 25.2263 59.1311 25.2266 58.9986V46.0077C25.2266 45.7465 25.0886 45.5051 24.8629 45.371C24.856 45.3671 24.8472 45.3691 24.8403 45.3651L24.8363 45.3612L14.2875 39.5566C14.1784 39.4963 14.0558 39.4647 13.9312 39.4647C13.8066 39.4647 13.684 39.4963 13.5749 39.5566L3.02705 45.3612C3.02409 45.3622 3.02311 45.3661 3.02015 45.3671C3.01522 45.3701 3.01029 45.3691 3.00537 45.371C2.91942 45.4276 2.84652 45.5019 2.79151 45.5888C2.7787 45.6066 2.75702 45.6164 2.74618 45.6352C2.67911 45.7479 2.64339 45.8765 2.6427 46.0077V58.9986C2.6427 59.2677 2.79053 59.516 3.02606 59.6461ZM4.12096 47.2583L4.48461 47.4574L13.1906 52.245V63.5487L4.12096 58.5621V47.2583ZM23.7473 58.5611L14.6688 63.5487V52.245L23.7473 47.2563V58.5611ZM13.9317 41.0476L22.9461 46.0077L13.9307 50.9599L4.91725 46.0077L13.9317 41.0476ZM54.4183 2.55568C54.3094 2.49546 54.187 2.46387 54.0625 2.46387C53.9381 2.46387 53.8157 2.49546 53.7068 2.55568L43.1569 8.36032C43.1549 8.3613 43.1539 8.36525 43.151 8.36623C43.1461 8.36919 43.1411 8.3682 43.1362 8.37017C43.0499 8.42665 42.9767 8.5009 42.9214 8.58797C42.9095 8.60571 42.8869 8.61557 42.876 8.63429C42.8093 8.74712 42.7739 8.87573 42.7735 9.00681V21.9978C42.7735 22.2668 42.9214 22.5152 43.1569 22.6452L53.7058 28.445C53.8147 28.505 53.9371 28.5365 54.0615 28.5365C54.186 28.5365 54.3083 28.505 54.4173 28.445L64.9731 22.6452C65.089 22.5815 65.1858 22.4877 65.2532 22.3739C65.3206 22.26 65.3563 22.1301 65.3564 21.9978V9.00681C65.3564 8.74565 65.2185 8.5042 64.9938 8.37017C64.9869 8.36623 64.978 8.3682 64.9711 8.36426L64.9662 8.36032L54.4183 2.55568ZM54.0625 4.04675L63.076 9.00681L54.0625 13.959L45.0471 9.00681L54.0625 4.04675ZM44.2518 10.2564L44.3799 10.3264L53.3224 15.2441V26.5479L44.2518 21.5612V10.2564ZM63.8782 21.5602L54.8007 26.5469V15.2451L63.8772 10.2574V21.5612L63.8782 21.5602ZM3.02606 22.6443L13.5739 28.445C13.683 28.5052 13.8056 28.5368 13.9302 28.5368C14.0548 28.5368 14.1774 28.5052 14.2865 28.445L24.8422 22.6452C24.9584 22.5816 25.0553 22.4879 25.1229 22.374C25.1905 22.2602 25.2263 22.1302 25.2266 21.9978V9.00681C25.2266 8.74565 25.0886 8.5042 24.8629 8.37017C24.856 8.36623 24.8472 8.3682 24.8403 8.36426L24.8363 8.36032L14.2875 2.55568C14.1783 2.49564 14.0558 2.46416 13.9312 2.46416C13.8066 2.46416 13.6841 2.49564 13.5749 2.55568L3.02803 8.36032C3.02508 8.3613 3.02409 8.36525 3.02114 8.36623C3.01621 8.36919 3.01128 8.3682 3.00635 8.37017C2.92041 8.42676 2.8475 8.50101 2.7925 8.58797C2.77969 8.60571 2.758 8.61557 2.74716 8.63429C2.6801 8.74703 2.64437 8.87564 2.64369 9.00681V21.9978C2.64369 22.2668 2.79151 22.5152 3.02705 22.6452L3.02606 22.6443ZM4.12096 10.2564L4.35453 10.3846L13.1906 15.2431V26.5469L4.12096 21.5602V10.2564ZM23.7473 21.5602L14.6688 26.5479V15.2441L23.7473 10.2564V21.5602ZM13.9317 4.04675L22.9461 9.00681L13.9307 13.959L4.91824 9.00681L13.9317 4.04675Z" fill="white"/>
</svg>
