<svg width="68" height="69" viewBox="0 0 68 69" fill="none" xmlns="http://www.w3.org/2000/svg">
<path d="M34 25.2188C36.934 25.2188 39.3125 22.8403 39.3125 19.9062C39.3125 16.9722 36.934 14.5938 34 14.5938C31.066 14.5938 28.6875 16.9722 28.6875 19.9062C28.6875 22.8403 31.066 25.2188 34 25.2188Z" stroke="white" stroke-width="2" stroke-miterlimit="10" stroke-linejoin="round"/>
<path d="M28.5802 33.7188H39.4198C39.5914 32.8848 39.9607 32.1042 40.4967 31.4426C41.0327 30.7811 41.7197 30.2579 42.5 29.9171V29.4688C42.5 28.3416 42.0522 27.2606 41.2552 26.4635C40.4582 25.6665 39.3772 25.2188 38.25 25.2188H29.75C28.6228 25.2188 27.5418 25.6665 26.7448 26.4635C25.9478 27.2606 25.5 28.3416 25.5 29.4688V29.9171C26.2803 30.2579 26.9673 30.7811 27.5033 31.4426C28.0393 32.1042 28.4086 32.8848 28.5802 33.7188ZM31.875 48.5938H14.875V44.3438C14.875 43.2166 15.3228 42.1356 16.1198 41.3385C16.9168 40.5415 17.9978 40.0938 19.125 40.0938H27.625C28.7522 40.0938 29.8332 40.5415 30.6302 41.3385C31.4272 42.1356 31.875 43.2166 31.875 44.3438V48.5938Z" stroke="white" stroke-width="2" stroke-miterlimit="10" stroke-linejoin="round"/>
<path d="M28.6886 34.7823C28.6885 35.48 28.551 36.1709 28.2839 36.8155C28.0169 37.4601 27.6254 38.0457 27.132 38.539C26.6386 39.0323 26.0529 39.4236 25.4082 39.6906C24.7636 39.9575 24.0727 40.0949 23.375 40.0948C21.9659 40.0947 20.6146 39.5348 19.6183 38.5383C19.125 38.0449 18.7337 37.4591 18.4667 36.8145C18.1998 36.1699 18.0624 35.479 18.0625 34.7812C18.0626 33.3721 18.6225 32.0208 19.619 31.0245C20.6155 30.0282 21.967 29.4686 23.3761 29.4688C24.7852 29.4689 26.1365 30.0288 27.1328 31.0253C28.1291 32.0218 28.6887 33.3732 28.6886 34.7823ZM44.6261 29.4698C43.9283 29.4699 43.2375 29.6074 42.5929 29.8744C41.9483 30.1415 41.3626 30.5329 40.8693 31.0263C40.376 31.5197 39.9847 32.1055 39.7178 32.7501C39.4508 33.3948 39.3135 34.0857 39.3136 34.7834C39.3136 35.4811 39.4511 36.172 39.7182 36.8165C39.9853 37.4611 40.3767 38.0468 40.8701 38.5401C41.3635 39.0334 41.9492 39.4247 42.5939 39.6916C43.2385 39.9586 43.9294 40.0959 44.6271 40.0959C46.0362 40.0957 47.3876 39.5358 48.3838 38.5393C49.3801 37.5429 49.9398 36.1914 49.9396 34.7823C49.9395 33.3732 49.3796 32.0219 48.3831 31.0256C47.3866 30.0293 46.0352 29.4697 44.6261 29.4698Z" stroke="white" stroke-width="2" stroke-miterlimit="10" stroke-linejoin="round"/>
<path d="M53.125 48.5938H36.125V44.3438C36.125 43.2166 36.5728 42.1356 37.3698 41.3385C38.1668 40.5415 39.2478 40.0938 40.375 40.0938H48.875C50.0022 40.0938 51.0832 40.5415 51.8802 41.3385C52.6772 42.1356 53.125 43.2166 53.125 44.3438V48.5938Z" stroke="white" stroke-width="2" stroke-miterlimit="10" stroke-linejoin="round"/>
<path d="M34 62.4062C49.2569 62.4062 61.625 50.0381 61.625 34.7812C61.625 19.5244 49.2569 7.15625 34 7.15625C18.7431 7.15625 6.375 19.5244 6.375 34.7812C6.375 50.0381 18.7431 62.4062 34 62.4062Z" stroke="white" stroke-width="2" stroke-miterlimit="10" stroke-linejoin="round"/>
<path d="M57.375 34.7812H65.875M34 11.4062V2.90625M34 58.1562V66.6562M2.125 34.7812H11.6875M54.1875 3.96875H64.8125V14.5938M64.8125 54.9688V65.5938H54.1875M13.8125 65.5938H3.1875V54.9688M3.1875 14.5938V3.96875H13.8125" stroke="white" stroke-width="2" stroke-miterlimit="10" stroke-linejoin="round"/>
</svg>
