<svg width="68" height="68" viewBox="0 0 68 68" fill="none" xmlns="http://www.w3.org/2000/svg">
<path d="M40.3896 42.9637H40.2866V38.5334C40.2866 35.0304 37.5048 32.2485 34.0017 32.2485C30.4987 32.2485 27.7169 35.0304 27.7169 38.5334V42.9637H27.6138C26.0684 42.9637 24.832 44.2001 24.832 45.7455V55.3273C24.832 56.8728 26.0684 58.1091 27.6138 58.1091H40.4926C42.0381 58.1091 43.2745 56.8728 43.2745 55.3273V45.7455C43.2745 44.2001 41.9351 42.9637 40.3896 42.9637ZM29.7775 38.5334C29.7775 36.1637 31.7351 34.3091 34.0017 34.3091C36.2684 34.3091 38.226 36.2667 38.226 38.5334V42.9637H29.6745V38.5334H29.7775ZM41.2139 55.4304C41.2139 55.8425 40.8017 56.2546 40.3896 56.2546H27.6138C27.2017 56.2546 26.7896 55.8425 26.7896 55.4304V45.8485C26.7896 45.4364 27.2017 45.0243 27.6138 45.0243H40.4926C40.9048 45.0243 41.3169 45.4364 41.3169 45.8485V55.4304H41.2139Z" fill="white"/>
<path d="M64.4979 55.2245V45.0245C64.4979 44.5093 64.0858 43.9942 63.4676 43.9942H55.9464C55.7403 39.0487 53.8858 34.6184 51.0009 31.0124H59.6555C60.1706 31.0124 60.6858 30.6002 60.6858 29.9821V19.576C62.1282 19.1639 63.1585 17.8245 63.1585 16.279C63.1585 14.3215 61.6131 12.776 59.6555 12.776C57.6979 12.776 56.1525 14.3215 56.1525 16.279C56.1525 17.8245 57.1828 19.1639 58.6252 19.576V29.0548H49.1464C47.807 27.8184 46.3646 26.6851 44.7161 25.8609V10.2002L49.8676 7.0063C50.4858 7.62449 51.31 7.93358 52.2373 7.93358C52.8555 7.93358 53.4737 7.72752 53.9888 7.41842C54.8131 6.90327 55.3282 6.18206 55.5343 5.25479C55.7403 4.32752 55.6373 3.50327 55.1222 2.67903V2.576C54.0919 0.927515 51.9282 0.412364 50.3828 1.44267C49.5585 1.95782 49.0434 2.67903 48.8373 3.6063C48.7343 4.22449 48.7343 4.73964 48.8373 5.35782L43.1706 8.75782C42.8616 8.96388 42.6555 9.27297 42.6555 9.58206V24.8305C40.2858 23.8002 37.71 23.1821 34.9282 23.079V9.68509C36.3706 9.27297 37.4009 7.93358 37.4009 6.38812C37.4009 4.43055 35.8555 2.88509 33.8979 2.88509C31.9403 2.88509 30.3949 4.43055 30.3949 6.38812C30.3949 7.93358 31.4252 9.27297 32.8676 9.68509V23.079C30.1888 23.1821 27.6131 23.8002 25.2434 24.8305V9.68509C25.2434 9.376 25.0373 8.96388 24.7282 8.86085L19.0616 5.46085C19.1646 4.9457 19.2676 4.32752 19.0616 3.70933C18.8555 2.78206 18.2373 2.06085 17.5161 1.5457C15.8676 0.515394 13.704 1.03055 12.6737 2.67903V2.78206C12.1585 3.6063 12.0555 4.43055 12.2616 5.35782C12.4676 6.28509 13.0858 7.0063 13.807 7.52146C14.3222 7.83055 15.0434 8.03661 15.5585 8.03661C16.3828 8.03661 17.207 7.72752 17.9282 7.10933L23.0797 10.3033V25.9639C21.4312 26.8912 19.9888 27.9215 18.6494 29.1578H9.47973V19.679C10.9222 19.2669 11.9525 17.9275 11.9525 16.3821C11.9525 14.4245 10.407 12.879 8.44943 12.879C6.49186 12.879 4.9464 14.4245 4.9464 16.279C4.9464 17.8245 5.9767 19.1639 7.41913 19.576V29.9821C7.41913 30.4972 7.83125 31.0124 8.44943 31.0124H17.104C14.2191 34.5154 12.3646 39.0487 12.1585 43.9942H4.53428C4.01913 43.9942 3.50398 44.4063 3.50398 45.0245V55.2245C2.06155 55.7396 1.03125 56.976 1.03125 58.6245C1.03125 60.5821 2.5767 62.1275 4.53428 62.1275C6.49186 62.1275 8.03731 60.5821 8.03731 58.6245C8.03731 57.079 7.00701 55.7396 5.56458 55.3275V46.0548H12.0555C12.5706 57.6972 22.2555 66.9699 34.0009 66.9699C45.7464 66.9699 55.4312 57.6972 55.9464 46.0548H62.4373V55.3275C60.9949 55.7396 59.9646 57.079 59.9646 58.6245C59.9646 60.5821 61.51 62.1275 63.4676 62.1275C65.4252 62.1275 66.9706 60.5821 66.9706 58.6245C66.9706 56.976 65.9403 55.7396 64.4979 55.2245ZM58.11 16.279C58.11 15.4548 58.8312 14.8366 59.6555 14.8366C60.4797 14.8366 61.2009 15.4548 61.2009 16.279C61.2009 17.1033 60.4797 17.8245 59.6555 17.8245C58.7282 17.8245 58.11 17.1033 58.11 16.279ZM50.6919 4.12145C50.7949 3.70933 51.0009 3.40024 51.4131 3.19418C52.1343 2.78206 52.9585 2.98812 53.4737 3.6063C53.6797 4.12145 53.6797 4.43055 53.5767 4.84267C53.4737 5.25479 53.2676 5.56388 52.8555 5.76994C52.1343 6.18206 51.207 5.976 50.7949 5.25479V5.15176C50.6919 4.84267 50.5888 4.53358 50.6919 4.12145ZM17.207 5.25479C17.104 5.25479 17.104 5.25479 17.207 5.25479C16.7949 5.976 15.8676 6.18206 15.1464 5.76994C14.8373 5.56388 14.5282 5.25479 14.4252 4.84267C14.3222 4.43055 14.4252 4.12145 14.6312 3.70933C15.0434 3.09115 15.9706 2.78206 16.6919 3.29721C17.0009 3.50327 17.31 3.81236 17.31 4.22449C17.4131 4.53358 17.31 4.84267 17.207 5.25479ZM6.90398 16.279C6.90398 15.4548 7.62519 14.8366 8.44943 14.8366C9.27367 14.8366 9.99489 15.4548 9.99489 16.279C9.99489 17.1033 9.27367 17.8245 8.44943 17.8245C7.62519 17.8245 6.90398 17.1033 6.90398 16.279ZM5.9767 58.6245C5.9767 59.4487 5.25549 60.0669 4.43125 60.0669C3.60701 60.0669 2.8858 59.3457 2.8858 58.6245C2.8858 57.8003 3.60701 57.079 4.43125 57.079C5.35852 57.079 5.9767 57.8003 5.9767 58.6245ZM32.4555 6.38812C32.4555 5.56388 33.1767 4.84267 34.0009 4.84267C34.8252 4.84267 35.5464 5.56388 35.5464 6.38812C35.5464 7.21236 34.8252 7.93358 34.0009 7.93358C33.1767 7.93358 32.4555 7.21236 32.4555 6.38812ZM34.0009 65.0124C22.9767 65.0124 14.0131 56.0487 14.0131 45.0245C14.0131 34.0002 22.9767 25.0366 34.0009 25.0366C45.0252 25.0366 53.9888 34.0002 53.9888 45.0245C53.9888 56.0487 45.0252 65.0124 34.0009 65.0124ZM63.4676 60.0669C62.6434 60.0669 61.9222 59.3457 61.9222 58.5215C61.9222 57.6972 62.6434 57.079 63.4676 57.079C64.2919 57.079 65.0131 57.6972 65.0131 58.5215C65.0131 59.4487 64.2919 60.0669 63.4676 60.0669Z" fill="white"/>
<path d="M33.9991 48.1152C33.4839 48.1152 32.9688 48.5274 32.9688 49.1455V52.0304C32.9688 52.5455 33.3809 53.0607 33.9991 53.0607C34.5142 53.0607 35.0294 52.6486 35.0294 52.0304V49.1455C35.0294 48.5274 34.5142 48.1152 33.9991 48.1152Z" fill="white"/>
</svg>
