<svg width="68" height="69" viewBox="0 0 68 69" fill="none" xmlns="http://www.w3.org/2000/svg">
<path d="M13.3104 28.6194C13.2501 28.7014 13.1999 28.7905 13.1608 28.8846C13.1608 28.8846 13.1608 28.9186 13.1608 28.939C13.1313 29.0337 13.1152 29.1321 13.1132 29.2314C13.1152 29.3328 13.1312 29.4335 13.1608 29.5306C13.1608 29.5306 13.1608 29.5646 13.1608 29.5782C13.1983 29.673 13.2487 29.7622 13.3104 29.8434L33.2004 54.7994C33.2486 54.8663 33.3085 54.9239 33.3772 54.9694H33.418C33.4829 55.017 33.5537 55.0559 33.6288 55.085H33.7036C33.8934 55.1482 34.0986 55.1482 34.2884 55.085H34.3632C34.4383 55.0559 34.5092 55.017 34.574 54.9694H34.6148C34.6836 54.9239 34.7435 54.8663 34.7916 54.7994L54.6816 29.8434C54.8233 29.6617 54.9003 29.4379 54.9003 29.2076C54.9003 28.9772 54.8233 28.7534 54.6816 28.5718L47.086 19.0518C46.9887 18.933 46.8662 18.8373 46.7275 18.7714C46.5888 18.7056 46.4372 18.6713 46.2836 18.671H21.7152C21.5617 18.6713 21.4101 18.7056 21.2713 18.7714C21.1326 18.8373 21.0102 18.933 20.9128 19.0518L13.3172 28.5718C13.3172 28.5718 13.3104 28.6126 13.3104 28.6194ZM26.006 30.2582L31.5888 49.5226L16.2344 30.2582H26.006ZM51.7712 30.2582L36.4168 49.5226L41.9996 30.2582H51.7712ZM34.0028 50.529L28.1276 30.2582H39.878L34.0028 50.529ZM51.7712 28.2182H41.9996L39.8304 20.7382H45.8008L51.7712 28.2182ZM37.7088 20.7382L39.878 28.2182H28.1276L30.2968 20.7382H37.7088ZM22.2048 20.7382H28.1752L26.006 28.2182H16.2344L22.2048 20.7382ZM15.3096 17.5286C15.404 17.6236 15.5163 17.699 15.64 17.7503C15.7638 17.8017 15.8965 17.828 16.0304 17.8278C16.3004 17.8253 16.5589 17.718 16.7512 17.5286C16.9406 17.3364 17.0467 17.0775 17.0467 16.8078C17.0467 16.538 16.9406 16.2791 16.7512 16.087L13.086 12.4218C12.8927 12.2416 12.6369 12.1435 12.3727 12.1482C12.1084 12.1528 11.8563 12.2599 11.6694 12.4468C11.4825 12.6336 11.3755 12.8858 11.3708 13.15C11.3662 13.4143 11.4642 13.67 11.6444 13.8634L15.3096 17.5286ZM8.58441 33.7602H3.40281C3.13229 33.7602 2.87285 33.8676 2.68156 34.0589C2.49028 34.2502 2.38281 34.5096 2.38281 34.7802C2.38281 35.0507 2.49028 35.3101 2.68156 35.5014C2.87285 35.6927 3.13229 35.8002 3.40281 35.8002H8.58441C8.85493 35.8002 9.11437 35.6927 9.30566 35.5014C9.49695 35.3101 9.60441 35.0507 9.60441 34.7802C9.60441 34.5096 9.49695 34.2502 9.30566 34.0589C9.11437 33.8676 8.85493 33.7602 8.58441 33.7602ZM15.3096 52.0318L11.6444 55.697C11.549 55.7912 11.4733 55.9034 11.4216 56.0272C11.3699 56.1509 11.3433 56.2837 11.3433 56.4178C11.3433 56.5519 11.3699 56.6846 11.4216 56.8083C11.4733 56.9321 11.549 57.0443 11.6444 57.1386C11.8357 57.3296 12.0949 57.4369 12.3652 57.4369C12.6355 57.4369 12.8948 57.3296 13.086 57.1386L16.7512 53.4734C16.9314 53.28 17.0295 53.0243 17.0248 52.76C17.0201 52.4958 16.9131 52.2436 16.7262 52.0567C16.5393 51.8699 16.2872 51.7628 16.023 51.7582C15.7587 51.7535 15.503 51.8516 15.3096 52.0318ZM34.0028 59.1786C33.7323 59.1786 33.4729 59.286 33.2816 59.4773C33.0903 59.6686 32.9828 59.928 32.9828 60.1986V65.3802C32.9828 65.6507 33.0903 65.9101 33.2816 66.1014C33.4729 66.2927 33.7323 66.4002 34.0028 66.4002C34.2733 66.4002 34.5328 66.2927 34.7241 66.1014C34.9153 65.9101 35.0228 65.6507 35.0228 65.3802V60.1986C35.0228 59.928 34.9153 59.6686 34.7241 59.4773C34.5328 59.286 34.2733 59.1786 34.0028 59.1786ZM52.696 52.0318C52.5027 51.8516 52.2469 51.7535 51.9827 51.7582C51.7184 51.7628 51.4663 51.8699 51.2794 52.0567C51.0925 52.2436 50.9855 52.4958 50.9808 52.76C50.9762 53.0243 51.0742 53.28 51.2544 53.4734L54.9196 57.1386C55.1109 57.3296 55.3701 57.4369 55.6404 57.4369C55.9107 57.4369 56.17 57.3296 56.3612 57.1386C56.4566 57.0443 56.5324 56.9321 56.584 56.8083C56.6357 56.6846 56.6624 56.5519 56.6624 56.4178C56.6624 56.2837 56.6357 56.1509 56.584 56.0272C56.5324 55.9034 56.4566 55.7912 56.3612 55.697L52.696 52.0318ZM64.6028 33.7602H59.4212C59.1507 33.7602 58.8913 33.8676 58.7 34.0589C58.5087 34.2502 58.4012 34.5096 58.4012 34.7802C58.4012 35.0507 58.5087 35.3101 58.7 35.5014C58.8913 35.6927 59.1507 35.8002 59.4212 35.8002H64.6028C64.8733 35.8002 65.1328 35.6927 65.3241 35.5014C65.5154 35.3101 65.6228 35.0507 65.6228 34.7802C65.6228 34.5096 65.5154 34.2502 65.3241 34.0589C65.1328 33.8676 64.8733 33.7602 64.6028 33.7602ZM54.9196 12.4218L51.2544 16.087C51.065 16.2791 50.9589 16.538 50.9589 16.8078C50.9589 17.0775 51.065 17.3364 51.2544 17.5286C51.4468 17.718 51.7052 17.8253 51.9752 17.8278C52.1092 17.828 52.2419 17.8017 52.3656 17.7503C52.4893 17.699 52.6016 17.6236 52.696 17.5286L56.3612 13.8634C56.5414 13.67 56.6395 13.4143 56.6348 13.15C56.6301 12.8858 56.5231 12.6336 56.3362 12.4468C56.1493 12.2599 55.8972 12.1528 55.633 12.1482C55.3687 12.1435 55.113 12.2416 54.9196 12.4218ZM34.0028 10.3818C34.2733 10.3818 34.5328 10.2743 34.7241 10.083C34.9153 9.89172 35.0228 9.63228 35.0228 9.36176V4.18016C35.0228 3.90964 34.9153 3.65019 34.7241 3.45891C34.5328 3.26762 34.2733 3.16016 34.0028 3.16016C33.7323 3.16016 33.4729 3.26762 33.2816 3.45891C33.0903 3.65019 32.9828 3.90964 32.9828 4.18016V9.36176C32.9828 9.63228 33.0903 9.89172 33.2816 10.083C33.4729 10.2743 33.7323 10.3818 34.0028 10.3818Z" fill="white"/>
</svg>
