<svg width="68" height="69" viewBox="0 0 68 69" fill="none" xmlns="http://www.w3.org/2000/svg">
<path d="M9.41376 50.8993C9.78137 51.2428 10.2147 51.5083 10.6876 51.68C11.1605 51.8516 11.6633 51.9258 12.1656 51.898C15.7888 51.898 21.1013 48.7105 24.7775 46.1499C25.4882 47.5744 25.9004 49.1291 25.9888 50.7187C25.707 50.7187 25.4367 50.8306 25.2375 51.0299C25.0382 51.2291 24.9263 51.4994 24.9263 51.7812V62.5018C24.9602 63.9055 25.5485 65.2387 26.5625 66.2099C27.5331 67.1769 28.8475 67.7195 30.2175 67.7187H35.6575C36.3471 67.7219 37.0303 67.5873 37.6671 67.3227C38.3039 67.0581 38.8814 66.669 39.3656 66.178C40.3445 65.1912 40.8976 63.8599 40.9063 62.4699V51.7812C40.9081 51.5201 40.8139 51.2675 40.6414 51.0716C40.469 50.8756 40.2304 50.75 39.9713 50.7187C40.0593 49.127 40.4677 47.5694 41.1719 46.1393C44.8588 48.6893 50.1075 51.8343 53.7094 51.8343C54.2117 51.862 54.7145 51.7879 55.1874 51.6162C55.6603 51.4446 56.0937 51.179 56.4613 50.8355C59.0006 48.2962 56.4613 42.1337 51.4463 35.068C53.1595 32.3165 54.2332 29.2155 54.5881 25.9937C54.943 22.7719 54.5701 19.5115 53.4969 16.453C56.3125 12.033 58.9581 6.34866 56.4613 3.85179C54.6231 2.01366 50.915 2.69366 45.4325 5.84929C41.7811 3.26349 37.4171 1.87476 32.9428 1.87476C28.4685 1.87476 24.1046 3.26349 20.4531 5.84929C14.96 2.66179 11.2519 2.01366 9.41376 3.85179C6.91688 6.34866 9.58376 12.033 12.3888 16.5168C11.3086 19.5736 10.9311 22.8344 11.2843 26.0571C11.6375 29.2798 12.7122 32.3815 14.4288 35.1318C9.42438 42.2187 6.87438 48.3599 9.41376 50.8993ZM27.0938 52.8437H38.7813V55.4999H27.0938V52.8437ZM32.2363 50.7187L29.75 38.3193L30.3344 37.6818L31.9813 40.6462C32.0802 40.8092 32.2212 40.9425 32.3895 41.0323C32.5577 41.122 32.747 41.1648 32.9375 41.1562C33.1276 41.1577 33.3146 41.1083 33.479 41.013C33.6435 40.9177 33.7794 40.78 33.8725 40.6143L35.53 37.6287L36.1038 38.2662L33.6388 50.7187H32.2363ZM27.0938 57.6249H38.7813V60.2812H27.0938V57.6249ZM37.825 50.7187H35.8063L38.25 38.2024L38.6644 36.0774C38.6916 35.9379 38.6911 35.7944 38.6628 35.655C38.6345 35.5157 38.5791 35.3833 38.4997 35.2654C38.4203 35.1475 38.3184 35.0464 38.1999 34.9679C38.0814 34.8894 37.9486 34.8349 37.8091 34.8077C37.6695 34.7805 37.526 34.7811 37.3867 34.8093C37.2474 34.8376 37.115 34.893 36.9971 34.9724C36.8792 35.0518 36.7781 35.1537 36.6996 35.2722C36.621 35.3907 36.5666 35.5235 36.5394 35.663L36.125 35.1424C36.0099 35.0223 35.8683 34.9309 35.7114 34.8755C35.5545 34.8201 35.3869 34.8024 35.2219 34.8237C35.0558 34.8448 34.897 34.9049 34.7585 34.9991C34.62 35.0932 34.5057 35.2188 34.425 35.3655L32.9375 37.9687L31.5031 35.3868C31.4214 35.2387 31.3055 35.1123 31.165 35.018C31.0246 34.9238 30.8636 34.8644 30.6956 34.8449C30.5289 34.8263 30.3602 34.8474 30.2032 34.9065C30.0463 34.9656 29.9055 35.061 29.7925 35.1849L29.2719 35.7587V35.6949C29.2179 35.419 29.0567 35.1757 28.8237 35.0184C28.5907 34.8611 28.3049 34.8025 28.0288 34.8555C27.8911 34.8822 27.76 34.9359 27.6431 35.0135C27.5263 35.091 27.4259 35.191 27.3479 35.3076C27.2699 35.4241 27.2157 35.555 27.1885 35.6926C27.1613 35.8302 27.1616 35.9718 27.1894 36.1093L30.0688 50.7187H28.1456C28.0429 48.5699 27.4424 46.4743 26.3914 44.5973C25.3404 42.7202 23.8677 41.113 22.0894 39.9024C20.1208 38.6517 18.3962 37.0532 17 35.1849C20.3645 30.6856 24.0618 26.4449 28.0606 22.4987C29.6756 20.873 31.3119 19.3112 32.9375 17.8662C34.5631 19.3324 36.1994 20.873 37.825 22.4987C41.8205 26.4489 45.5142 30.693 48.875 35.1955C47.5018 37.0941 45.7998 38.7314 43.8494 40.0299C42.0896 41.227 40.6302 42.8145 39.5852 44.6687C38.5402 46.5228 37.9378 48.5933 37.825 50.7187ZM37.825 64.6799C37.5354 64.9709 37.1909 65.2014 36.8116 65.3583C36.4322 65.5151 36.0255 65.5951 35.615 65.5937H30.2175C29.807 65.5951 29.4003 65.5151 29.0209 65.3583C28.6416 65.2014 28.2971 64.9709 28.0075 64.6799C27.4277 64.0898 27.1 63.2973 27.0938 62.4699V62.4062H38.7813V62.4699C38.7834 63.3083 38.4551 64.1137 37.8675 64.7118L37.825 64.6799ZM52.1156 40.0937C55.505 45.7143 55.76 48.5937 54.9631 49.4543C53.9006 50.5168 49.4488 49.4543 42.2981 44.4499C43.0541 43.438 43.9691 42.5553 45.0075 41.8362C46.9646 40.5336 48.6977 38.9225 50.1394 37.0655C50.8513 38.043 51.5206 39.0312 52.1156 40.0937ZM50.0863 33.3149C46.7827 28.9571 43.1829 24.8319 39.3125 20.9687C37.7294 19.3855 36.125 17.8662 34.5313 16.4318C37.8991 13.4671 41.5022 10.7807 45.305 8.39929C48.909 11.3119 51.3661 15.4059 52.2412 19.9564C53.1163 24.5068 52.3529 29.2202 50.0863 33.2618V33.3149ZM54.9631 5.36054C55.8131 6.21054 55.3138 9.21741 52.4769 14.0943C51.1999 11.496 49.4194 9.17741 47.2388 7.27304C51.7969 4.77616 54.2406 4.63804 54.9631 5.36054ZM43.435 7.07116C39.7426 9.45887 36.2337 12.119 32.9375 15.0293C29.6448 12.1193 26.1395 9.45915 22.4506 7.07116C25.583 5.0666 29.224 4.00129 32.9428 4.00129C36.6617 4.00129 40.3027 5.0666 43.435 7.07116ZM10.9225 5.36054C11.645 4.63804 14.11 4.77616 18.6363 7.27304C16.4557 9.17741 14.6752 11.496 13.3981 14.0943C10.625 9.21741 10.0619 6.21054 10.9225 5.36054ZM13.2813 23.6568C13.281 20.7299 13.9366 17.8401 15.1997 15.1998C16.4629 12.5595 18.3016 10.2357 20.5806 8.39929C24.3789 10.7855 27.9751 13.4791 31.3331 16.453C29.75 17.8874 28.135 19.4068 26.5625 20.9687C22.7005 24.814 19.1044 28.9177 15.7994 33.2512C14.1433 30.3251 13.2756 27.019 13.2813 23.6568ZM13.8125 40.0937C14.3969 39.1162 15.0769 38.0855 15.7994 37.0549C17.2459 38.8972 18.9871 40.4876 20.9525 41.7618C21.9863 42.4701 22.8979 43.3422 23.6513 44.3437C16.4688 49.3587 12.0275 50.5062 10.9013 49.4012C10.115 48.5937 10.3806 45.6612 13.8125 40.0937Z" fill="white"/>
<path d="M32.6914 24.1562C31.8508 24.1562 31.0291 24.4055 30.3302 24.8725C29.6313 25.3395 29.0866 26.0033 28.7649 26.7798C28.4432 27.5564 28.3591 28.411 28.5231 29.2354C28.6871 30.0598 29.0918 30.8171 29.6862 31.4115C30.2806 32.0058 31.0379 32.4106 31.8623 32.5746C32.6867 32.7386 33.5412 32.6544 34.3178 32.3327C35.0944 32.0111 35.7582 31.4663 36.2252 30.7674C36.6922 30.0685 36.9414 29.2468 36.9414 28.4062C36.9414 27.2791 36.4936 26.1981 35.6966 25.401C34.8996 24.604 33.8186 24.1562 32.6914 24.1562ZM32.6914 30.5312C32.2711 30.5312 31.8603 30.4066 31.5108 30.1731C31.1614 29.9396 30.889 29.6077 30.7282 29.2195C30.5673 28.8312 30.5252 28.4039 30.6072 27.9917C30.6892 27.5795 30.8916 27.2008 31.1888 26.9036C31.486 26.6065 31.8646 26.4041 32.2768 26.3221C32.6891 26.2401 33.1163 26.2822 33.5046 26.443C33.8929 26.6038 34.2248 26.8762 34.4583 27.2257C34.6918 27.5751 34.8164 27.986 34.8164 28.4062C34.8164 28.9698 34.5925 29.5103 34.194 29.9089C33.7955 30.3074 33.255 30.5312 32.6914 30.5312Z" fill="white"/>
</svg>
