<svg width="68" height="64" viewBox="0 0 68 64" fill="none" xmlns="http://www.w3.org/2000/svg">
<path d="M30.6133 30.7621C30.6133 30.7621 32.6791 24.3987 32.4746 20.3716M37.0426 30.7621C37.0426 30.7621 35.0631 24.8532 35.2677 20.8375" stroke="white" stroke-width="1.81812" stroke-miterlimit="10" stroke-linecap="round"/>
<path d="M34.1911 20.5536C38.7473 20.5536 42.4409 16.8601 42.4409 12.3039C42.4409 7.74771 38.7473 4.0542 34.1911 4.0542C29.6349 4.0542 25.9414 7.74771 25.9414 12.3039C25.9414 16.8601 29.6349 20.5536 34.1911 20.5536Z" stroke="white" stroke-width="1.81812" stroke-miterlimit="10" stroke-linecap="round"/>
<path d="M31.4265 20.0785C31.4265 20.0785 19.2156 19.658 17.9497 28.3259M17.9497 29.1554L11.2863 23.7511C10.15 22.8238 8.35684 23.1147 7.31824 24.3942C6.27963 25.6737 6.35918 27.4828 7.50914 28.4077L16.3884 35.612C16.3884 35.612 19.7974 37.0915 22.0427 33.878C24.2881 30.6645 24.6881 25.1124 24.6881 25.1124V39.3323M36.3991 20.2512C36.3991 20.2512 48.326 19.658 49.5805 28.3259" stroke="white" stroke-width="1.81812" stroke-miterlimit="10" stroke-linecap="round"/>
<path d="M49.5933 29.1554L56.2589 23.751C57.3953 22.8238 59.1884 23.1147 60.227 24.3942C61.2656 25.6737 61.1792 27.4827 60.0361 28.41L51.1546 35.612C51.1546 35.612 47.7456 37.0914 45.5025 33.8779C43.2594 30.6644 42.8548 25.1123 42.8548 25.1123V38.2732M27.3145 20.5534C27.3145 20.5534 29.7189 32.6484 32.7688 35.3756M40.3504 20.5534C40.3504 20.5534 38.305 32.6484 35.2596 35.3756M3.97433 5.1449H16.6853M3.97433 9.09021H12.449M10.2559 13.0355H19.3875C19.8313 13.0343 20.2568 12.8579 20.5713 12.5447C20.8858 12.2315 21.0639 11.8067 21.0669 11.3629V2.58817C21.0657 2.14312 20.8884 1.71663 20.5737 1.40193C20.259 1.08722 19.8325 0.909891 19.3875 0.908691H2.58574C2.14086 0.910486 1.71472 1.08801 1.40014 1.40258C1.08557 1.71716 0.908045 2.1433 0.90625 2.58817V11.3629C0.907447 11.8081 1.0847 12.2348 1.39935 12.5499C1.71399 12.865 2.14047 13.0428 2.58574 13.0446H4.5584L8.79462 18.4399L10.2559 13.0355Z" stroke="white" stroke-width="1.81812" stroke-miterlimit="10" stroke-linecap="round"/>
<path d="M65.6996 44.3003H53.2909C52.524 44.3003 51.9023 44.922 51.9023 45.6889V56.6453C51.9023 57.4122 52.524 58.0339 53.2909 58.0339H65.6996C66.4665 58.0339 67.0882 57.4122 67.0882 56.6453V45.6889C67.0882 44.922 66.4665 44.3003 65.6996 44.3003Z" stroke="white" stroke-width="1.81812" stroke-miterlimit="10" stroke-linecap="round"/>
<path d="M55.4307 53.2843L58.576 50.6798L60.9055 52.5843L63.1441 50.348M23.0522 48.2231C22.9136 46.6323 24.0317 44.3073 24.0317 44.3073L21.9409 42.6119C21.9314 42.6044 21.9234 42.5951 21.9176 42.5845C21.9117 42.5738 21.908 42.5621 21.9067 42.5501C21.9055 42.538 21.9066 42.5258 21.9102 42.5142C21.9137 42.5025 21.9195 42.4917 21.9273 42.4824L23.6045 40.4098L23.5727 40.4507L25.2499 38.378C25.2654 38.3593 25.2877 38.3474 25.3119 38.3448C25.3361 38.3423 25.3603 38.3493 25.3794 38.3644L27.4725 40.0598C27.4725 40.0598 29.5179 38.4689 31.1088 38.2871" stroke="white" stroke-width="1.81812" stroke-miterlimit="10" stroke-linecap="round"/>
<path d="M27.5469 40.0211C28.6696 38.8984 31.1831 38.253 31.1831 38.253L31.1331 35.5622C31.1328 35.55 31.1349 35.538 31.1394 35.5267C31.1438 35.5154 31.1505 35.5051 31.1589 35.4964C31.1674 35.4877 31.1775 35.4808 31.1887 35.4761C31.1999 35.4714 31.2119 35.469 31.224 35.469L33.8898 35.4213H33.8376L36.5034 35.3735C36.5279 35.3735 36.5516 35.3829 36.5693 35.3999C36.5871 35.4168 36.5977 35.4399 36.5988 35.4644L36.6443 38.1575C36.6443 38.1575 39.1738 38.7143 40.3351 39.7961" stroke="white" stroke-width="1.81812" stroke-miterlimit="10" stroke-linecap="round"/>
<path d="M36.7188 38.1803C38.3096 38.319 40.4073 39.8257 40.4073 39.8257L42.439 38.0599C42.4564 38.0431 42.4796 38.0337 42.5038 38.0337C42.528 38.0337 42.5512 38.0431 42.5686 38.0599L44.3185 40.0734L44.2844 40.0348L46.0321 42.0461C46.0407 42.0546 46.0475 42.0646 46.0521 42.0758C46.0568 42.0869 46.0592 42.0988 46.0592 42.1109C46.0592 42.1229 46.0568 42.1349 46.0521 42.146C46.0475 42.1571 46.0407 42.1672 46.0321 42.1756L44.0003 43.9415C44.0003 43.9415 45.2003 46.2391 45.1162 47.8232" stroke="white" stroke-width="1.81812" stroke-miterlimit="10" stroke-linecap="round"/>
<path d="M44.0172 44.0391C44.9263 45.339 45.1262 47.923 45.1262 47.923L47.7852 48.3435C47.8092 48.3474 47.8307 48.3605 47.8451 48.38C47.8596 48.3995 47.8658 48.4239 47.8625 48.448L47.4443 51.082V51.032L47.0398 53.6637C47.0382 53.6757 47.0341 53.6872 47.0279 53.6977C47.0217 53.7081 47.0135 53.7171 47.0038 53.7243C46.9941 53.7315 46.983 53.7367 46.9712 53.7396C46.9594 53.7424 46.9472 53.7429 46.9353 53.741L44.274 53.3205C44.274 53.3205 43.2877 55.7136 42.0195 56.6681" stroke="white" stroke-width="1.81812" stroke-miterlimit="10" stroke-linecap="round"/>
<path d="M44.2266 53.3911C43.8153 54.9229 41.954 56.7364 41.954 56.7364L43.3403 59.0455C43.3464 59.0557 43.3505 59.0671 43.3522 59.079C43.354 59.0909 43.3533 59.103 43.3504 59.1146C43.3474 59.1262 43.3422 59.1371 43.335 59.1467C43.3278 59.1563 43.3188 59.1644 43.3085 59.1704L41.0358 60.534L41.079 60.5068L38.7927 61.8817C38.7824 61.8879 38.771 61.8919 38.7592 61.8937C38.7473 61.8954 38.7352 61.8948 38.7236 61.8918C38.712 61.8889 38.7011 61.8836 38.6915 61.8764C38.6819 61.8692 38.6738 61.8602 38.6677 61.8499L37.2814 59.5432C37.2814 59.5432 34.811 60.3249 33.2656 59.9681" stroke="white" stroke-width="1.81812" stroke-miterlimit="10" stroke-linecap="round"/>
<path d="M37.1983 59.5632C35.7597 60.2246 33.178 59.9791 33.178 59.9791L32.3007 62.5267C32.2969 62.5381 32.2909 62.5486 32.2829 62.5576C32.275 62.5666 32.2654 62.574 32.2546 62.5793C32.2439 62.5846 32.2321 62.5877 32.2202 62.5884C32.2082 62.5891 32.1962 62.5875 32.1848 62.5836L29.6645 61.7154L29.7122 61.7313L27.1918 60.8632C27.1805 60.8593 27.17 60.8533 27.1609 60.8454C27.1519 60.8375 27.1446 60.8278 27.1393 60.8171C27.134 60.8063 27.1309 60.7946 27.1302 60.7826C27.1294 60.7706 27.1311 60.7586 27.135 60.7473L28.0122 58.1996C28.0122 58.1996 25.826 56.811 25.1055 55.3975" stroke="white" stroke-width="1.81812" stroke-miterlimit="10" stroke-linecap="round"/>
<path d="M27.9519 58.1453C26.5133 57.4749 25.0497 55.3364 25.0497 55.3364L22.5362 56.3022C22.5136 56.3105 22.4886 56.3097 22.4666 56.2999C22.4445 56.2902 22.4271 56.2723 22.418 56.25L21.4635 53.75L21.4817 53.8L20.5249 51.3001C20.5168 51.2772 20.5179 51.252 20.5281 51.2299C20.5383 51.2079 20.5567 51.1906 20.5794 51.182L23.093 50.2184C23.093 50.2184 22.7521 47.6503 23.3702 46.189" stroke="white" stroke-width="1.81812" stroke-miterlimit="10" stroke-linecap="round"/>
<path d="M34.0973 55.8703C37.9242 55.8703 41.0266 52.768 41.0266 48.941C41.0266 45.1141 37.9242 42.0117 34.0973 42.0117C30.2703 42.0117 27.168 45.1141 27.168 48.941C27.168 52.768 30.2703 55.8703 34.0973 55.8703Z" stroke="white" stroke-width="1.81812" stroke-miterlimit="10" stroke-linecap="round"/>
</svg>
