<svg width="20" height="20" viewBox="0 0 20 20" fill="none" xmlns="http://www.w3.org/2000/svg">
<g clip-path="url(#clip0_901_6794)">
<path d="M10 17.4179L14.125 13.2929C14.9408 12.4771 15.4963 11.4377 15.7213 10.3061C15.9463 9.17459 15.8308 8.00173 15.3892 6.93587C14.9477 5.87 14.2 4.95899 13.2408 4.31804C12.2815 3.6771 11.1537 3.33499 10 3.33499C8.8463 3.33499 7.71851 3.6771 6.75924 4.31804C5.79997 4.95899 5.05229 5.87 4.61076 6.93587C4.16923 8.00173 4.05368 9.17459 4.27871 10.3061C4.50374 11.4377 5.05926 12.4771 5.875 13.2929L10 17.4179ZM10 19.7746L4.69667 14.4712C3.64779 13.4223 2.93349 12.086 2.64411 10.6311C2.35473 9.17626 2.50326 7.66826 3.07092 6.29782C3.63858 4.92738 4.59987 3.75605 5.83324 2.93194C7.0666 2.10783 8.51665 1.66797 10 1.66797C11.4834 1.66797 12.9334 2.10783 14.1668 2.93194C15.4001 3.75605 16.3614 4.92738 16.9291 6.29782C17.4968 7.66826 17.6453 9.17626 17.3559 10.6311C17.0665 12.086 16.3522 13.4223 15.3033 14.4712L10 19.7746ZM10 10.8346C10.442 10.8346 10.866 10.659 11.1785 10.3464C11.4911 10.0339 11.6667 9.60993 11.6667 9.1679C11.6667 8.72588 11.4911 8.30195 11.1785 7.98939C10.866 7.67683 10.442 7.50124 10 7.50124C9.55798 7.50124 9.13405 7.67683 8.82149 7.98939C8.50893 8.30195 8.33334 8.72588 8.33334 9.1679C8.33334 9.60993 8.50893 10.0339 8.82149 10.3464C9.13405 10.659 9.55798 10.8346 10 10.8346ZM10 12.5012C9.11595 12.5012 8.2681 12.15 7.64298 11.5249C7.01786 10.8998 6.66667 10.052 6.66667 9.1679C6.66667 8.28385 7.01786 7.436 7.64298 6.81088C8.2681 6.18576 9.11595 5.83457 10 5.83457C10.8841 5.83457 11.7319 6.18576 12.357 6.81088C12.9821 7.436 13.3333 8.28385 13.3333 9.1679C13.3333 10.052 12.9821 10.8998 12.357 11.5249C11.7319 12.15 10.8841 12.5012 10 12.5012Z" fill="white"/>
<path d="M9.92929 17.4886L10 17.5593L10.0707 17.4886L14.1957 13.3636L14.125 13.2929L14.1957 13.3636C15.0254 12.5338 15.5905 11.4766 15.8194 10.3256C16.0483 9.1747 15.9307 7.98174 15.4816 6.8976C15.0325 5.81346 14.272 4.88683 13.2963 4.2349C12.3206 3.58296 11.1735 3.23499 10 3.23499C8.82653 3.23499 7.6794 3.58296 6.70368 4.2349C5.72796 4.88683 4.96747 5.81346 4.51838 6.8976C4.06928 7.98174 3.95174 9.1747 4.18063 10.3256C4.40952 11.4766 4.97456 12.5338 5.80429 13.3636L5.875 13.2929L5.80429 13.3636L9.92929 17.4886ZM10 19.6331L4.76738 14.4005C3.73248 13.3656 3.02771 12.0471 2.74219 10.6116C2.45666 9.17615 2.60321 7.68826 3.1633 6.33609C3.72339 4.98392 4.67187 3.82821 5.88879 3.01509C7.10572 2.20197 8.53643 1.76797 10 1.76797C11.4636 1.76797 12.8943 2.20197 14.1112 3.01509C15.3281 3.82821 16.2766 4.98392 16.8367 6.33609C17.3968 7.68826 17.5433 9.17615 17.2578 10.6116C16.9723 12.0471 16.2675 13.3656 15.2326 14.4005L10 19.6331ZM10 10.9346C10.4686 10.9346 10.9179 10.7484 11.2492 10.4171C11.5805 10.0858 11.7667 9.63645 11.7667 9.1679C11.7667 8.69935 11.5805 8.25 11.2492 7.91868C10.9179 7.58737 10.4686 7.40124 10 7.40124C9.53145 7.40124 9.0821 7.58737 8.75078 7.91868C8.41947 8.25 8.23334 8.69935 8.23334 9.1679C8.23334 9.63645 8.41947 10.0858 8.75078 10.4171C9.0821 10.7484 9.53145 10.9346 10 10.9346ZM10 12.4012C9.14247 12.4012 8.32006 12.0606 7.71369 11.4542C7.10732 10.8478 6.76667 10.0254 6.76667 9.1679C6.76667 8.31037 7.10732 7.48796 7.71369 6.88159C8.32006 6.27522 9.14247 5.93457 10 5.93457C10.8575 5.93457 11.6799 6.27522 12.2863 6.88159C12.8927 7.48796 13.2333 8.31037 13.2333 9.1679C13.2333 10.0254 12.8927 10.8478 12.2863 11.4542C11.6799 12.0606 10.8575 12.4012 10 12.4012Z" stroke="#15151D" stroke-opacity="0.82" stroke-width="0.2"/>
</g>
<defs>
<clipPath id="clip0_901_6794">
<rect width="20" height="20" fill="white"/>
</clipPath>
</defs>
</svg>
