<svg width="68" height="69" viewBox="0 0 68 69" fill="none" xmlns="http://www.w3.org/2000/svg">
<path d="M23.9257 0.784946C23.9135 0.784946 23.9012 0.78125 23.8889 0.78125H23.8778H23.8594C22.38 0.802793 20.9177 1.10237 19.5484 1.66443C12.8687 4.29981 11.7243 10.4624 11.5327 12.7664C8.66275 13.0743 6.45503 14.2285 4.95987 16.2043C2.04388 20.0622 2.85596 25.7998 3.14037 27.3296C2.79208 27.8889 2.43825 28.3514 2.0961 28.8016C0.643988 30.4427 -0.104829 32.5912 0.0118469 34.7819C0.0118469 38.6977 1.27358 40.1161 2.38604 41.3675C2.65202 41.6662 2.90695 41.9526 3.13484 42.2649C2.84552 43.8354 2.06231 49.5225 4.96171 53.3588C6.45503 55.3346 8.66275 56.4894 11.5345 56.7973C11.7262 59.1014 12.8712 65.2645 19.5527 67.8981C20.9218 68.46 22.3839 68.7594 23.8631 68.7806H23.8821H23.8926C23.9036 68.7806 23.9147 68.7806 23.927 68.7769C25.2189 68.7757 26.4941 68.4836 27.6583 67.922C28.8226 67.3604 29.8461 66.5438 30.6533 65.5324C32.1481 63.6799 32.9711 61.3733 32.9876 58.9905V10.5726C32.9839 5.88448 29.5224 0.828674 23.9257 0.784946ZM31.1386 58.9862C31.1156 60.9416 30.4409 62.8331 29.2221 64.3598C28.132 65.7386 26.5495 66.6378 24.8097 66.8671V62.0379C25.2523 61.8281 25.6105 61.4734 25.8253 61.0322C26.0401 60.5911 26.0987 60.0897 25.9914 59.6108C25.8842 59.1318 25.6175 58.7037 25.2352 58.3969C24.8529 58.0902 24.3779 57.923 23.8883 57.923C23.3987 57.923 22.9236 58.0902 22.5414 58.3969C22.1591 58.7037 21.8924 59.1318 21.7851 59.6108C21.6779 60.0897 21.7365 60.5911 21.9512 61.0322C22.166 61.4734 22.5242 61.8281 22.9669 62.0379V66.8757C22.0247 66.7639 21.1015 66.5269 20.2216 66.1711C13.8946 63.6774 13.3706 57.6411 13.3356 56.248L20.1295 47.4235H23.1315C23.3408 47.8677 23.6947 48.2271 24.135 48.4427C24.5752 48.6583 25.0756 48.7172 25.5536 48.6096C26.0317 48.5021 26.459 48.2346 26.7652 47.8511C27.0714 47.4676 27.2382 46.991 27.2382 46.4997C27.2382 46.0085 27.0714 45.5319 26.7652 45.1484C26.459 44.7649 26.0317 44.4973 25.5536 44.3898C25.0756 44.2823 24.5752 44.3411 24.135 44.5567C23.6947 44.7723 23.3408 45.1317 23.1315 45.5759H19.6792C19.5384 45.5759 19.3995 45.6083 19.2731 45.6705C19.1467 45.7327 19.0362 45.8232 18.9501 45.9349L11.994 54.9749C9.52335 54.7612 7.64857 53.8516 6.43414 52.2472C4.19693 49.2909 4.61771 44.7377 4.88431 42.9898H15.1139C15.2421 42.9896 15.3689 42.9628 15.4862 42.9109L23.6757 39.2778C24.0461 39.5966 24.5136 39.7796 25.0015 39.7966C25.4893 39.8136 25.9684 39.6637 26.3599 39.3715C26.7515 39.0793 27.0322 38.6622 27.156 38.1888C27.2797 37.7154 27.2391 37.2139 27.0408 36.7667C26.8425 36.3195 26.4984 35.9532 26.0649 35.7282C25.6315 35.5031 25.1345 35.4326 24.6558 35.5283C24.1771 35.624 23.7452 35.8802 23.431 36.2547C23.1167 36.6292 22.939 37.0998 22.9269 37.5891L14.9192 41.1421H4.59929C4.32716 40.7726 4.04214 40.4505 3.76325 40.137C2.73986 38.9865 1.85899 37.9931 1.85899 34.7788C1.79801 33.8952 1.91764 33.0085 2.21055 32.1729C2.50345 31.3373 2.96346 30.5705 3.56238 29.9194C3.87751 29.5068 4.22396 29.0523 4.57472 28.5109H14.6839L16.7295 30.9578C16.5137 31.4132 16.4596 31.9288 16.5763 32.4192C16.6929 32.9096 16.9733 33.3453 17.3708 33.654C17.7683 33.9627 18.2592 34.1259 18.7619 34.1165C19.2647 34.1071 19.7491 33.9256 20.1349 33.6022C20.5207 33.2789 20.7846 32.833 20.8829 32.3386C20.9812 31.8441 20.9079 31.3309 20.6753 30.8839C20.4427 30.4369 20.0647 30.0831 19.604 29.8812C19.1433 29.6792 18.6275 29.6412 18.1423 29.7735L15.8173 26.9958C15.7308 26.8925 15.6228 26.8094 15.5009 26.7523C15.3789 26.6953 15.246 26.6657 15.1115 26.6657H4.89905C4.63307 24.9893 4.15823 20.3221 6.43475 17.3147C7.63813 15.7257 9.49018 14.8179 11.9276 14.5937L18.9501 23.7144C19.0362 23.8261 19.1467 23.9166 19.2731 23.9788C19.3995 24.0411 19.5384 24.0734 19.6792 24.0735H23.1339C23.3433 24.5176 23.6972 24.8771 24.1374 25.0926C24.5777 25.3082 25.078 25.3671 25.5561 25.2595C26.0342 25.152 26.4615 24.8845 26.7677 24.501C27.0739 24.1175 27.2407 23.6409 27.2407 23.1496C27.2407 22.6584 27.0739 22.1818 26.7677 21.7983C26.4615 21.4148 26.0342 21.1472 25.5561 21.0397C25.078 20.9322 24.5777 20.991 24.1374 21.2066C23.6972 21.4222 23.3433 21.7816 23.1339 22.2258H20.1301L13.3374 13.4014C13.3626 12.2281 13.8006 5.91836 20.2241 3.38706C21.104 3.03133 22.0272 2.7944 22.9693 2.68249V7.52028C22.5263 7.73015 22.1678 8.08499 21.9528 8.5264C21.7378 8.9678 21.6791 9.46945 21.7863 9.94877C21.8936 10.4281 22.1604 10.8565 22.5429 11.1635C22.9254 11.4705 23.4008 11.6378 23.8907 11.6378C24.3807 11.6378 24.856 11.4705 25.2385 11.1635C25.621 10.8565 25.8879 10.4281 25.9952 9.94877C26.1024 9.46945 26.0437 8.9678 25.8287 8.5264C25.6137 8.08499 25.2551 7.73015 24.8122 7.52028V2.70158C28.7435 3.23556 31.1392 7.03126 31.1392 10.5726L31.1386 58.9862ZM67.988 34.7819C68.1054 32.5907 67.3567 30.4414 65.9044 28.7998C65.561 28.3502 65.2078 27.8876 64.8601 27.3278C65.1445 25.7998 65.956 20.0646 63.0388 16.2043C61.5448 14.2285 59.3377 13.0743 56.466 12.7664C56.2743 10.4624 55.1293 4.29981 48.4478 1.66689C47.0781 1.10503 45.6153 0.805871 44.1356 0.784946H44.1171H44.1061C44.0932 0.784946 44.0815 0.784945 44.0686 0.788641C38.4743 0.829289 35.0129 5.8851 35.0129 10.5738V58.9911C35.0129 63.6799 38.4737 68.7357 44.068 68.7775C44.0809 68.7775 44.0926 68.7812 44.1061 68.7812H44.1171H44.1362C45.6154 68.76 47.0775 68.4606 48.4466 67.8987C55.1287 65.2658 56.2731 59.1026 56.4654 56.798C59.3347 56.49 61.543 55.3352 63.0382 53.3595C65.9376 49.5237 65.1537 43.836 64.865 42.2655C65.0929 41.9532 65.3478 41.6669 65.6138 41.3682C66.7263 40.1154 67.988 38.6971 67.988 34.7819ZM64.2409 40.1401C63.962 40.4536 63.677 40.7757 63.4049 41.1452H53.0795L45.0723 37.5922C45.0628 37.0976 44.8853 36.6211 44.5693 36.2412C44.2532 35.8614 43.8175 35.6009 43.3339 35.5028C42.8503 35.4047 42.3479 35.4748 41.9094 35.7016C41.4709 35.9284 41.1226 36.2982 40.9221 36.7502C40.7215 37.2021 40.6805 37.7091 40.806 38.1875C40.9315 38.6658 41.2159 39.087 41.6123 39.3816C42.0087 39.6761 42.4934 39.8263 42.9864 39.8074C43.4794 39.7886 43.9513 39.6018 44.3241 39.2778L52.5131 42.9116C52.6304 42.9635 52.7571 42.9904 52.8853 42.9904H63.1168C63.3858 44.7346 63.8097 49.2792 61.5694 52.2429C60.355 53.8497 58.4796 54.7618 56.0059 54.9749L49.0498 45.9405C48.9636 45.8287 48.8531 45.7382 48.7265 45.6759C48.6 45.6137 48.4609 45.5813 48.32 45.5814H44.8635C44.6542 45.1378 44.3005 44.7789 43.8606 44.5636C43.4207 44.3484 42.9209 44.2897 42.4433 44.3972C41.9658 44.5048 41.5389 44.7721 41.2331 45.1553C40.9272 45.5384 40.7606 46.0145 40.7606 46.5053C40.7606 46.996 40.9272 47.4721 41.2331 47.8553C41.5389 48.2384 41.9658 48.5057 42.4433 48.6133C42.9209 48.7208 43.4207 48.6621 43.8606 48.4469C44.3005 48.2317 44.6542 47.8727 44.8635 47.4291H47.8648L54.6594 56.2504C54.6145 57.6189 54.0549 63.7026 47.7752 66.1767C46.8955 66.5324 45.9725 66.7694 45.0306 66.8812V62.0435C45.4734 61.8336 45.8317 61.4788 46.0466 61.0375C46.2615 60.5963 46.3202 60.0948 46.2129 59.6156C46.1057 59.1365 45.8389 58.7082 45.4565 58.4013C45.0741 58.0945 44.5989 57.9273 44.1091 57.9273C43.6193 57.9273 43.1441 58.0945 42.7618 58.4013C42.3794 58.7082 42.1126 59.1365 42.0053 59.6156C41.8981 60.0948 41.9567 60.5963 42.1716 61.0375C42.3866 61.4788 42.7449 61.8336 43.1877 62.0435V66.864C39.2563 66.3294 36.8606 62.5337 36.8606 58.9917V10.5726C36.8606 7.03126 39.2563 3.23556 43.1877 2.70158V7.52212C42.7453 7.73196 42.3872 8.08658 42.1726 8.5276C41.9579 8.96863 41.8994 9.46978 42.0066 9.9486C42.1139 10.4274 42.3805 10.8554 42.7626 11.162C43.1448 11.4686 43.6197 11.6357 44.1091 11.6357C44.5986 11.6357 45.0735 11.4686 45.4556 11.162C45.8378 10.8554 46.1044 10.4274 46.2117 9.9486C46.3189 9.46978 46.2604 8.96863 46.0457 8.5276C45.831 8.08658 45.473 7.73196 45.0306 7.52212V2.68311C45.9726 2.79473 46.8956 3.03167 47.7752 3.38768C54.257 5.94176 54.6483 12.2066 54.6637 13.4001L47.8667 22.2258H44.8635C44.6542 21.7822 44.3005 21.4232 43.8606 21.208C43.4207 20.9927 42.9209 20.9341 42.4433 21.0416C41.9658 21.1491 41.5389 21.4165 41.2331 21.7996C40.9272 22.1828 40.7606 22.6589 40.7606 23.1496C40.7606 23.6404 40.9272 24.1165 41.2331 24.4996C41.5389 24.8828 41.9658 25.1501 42.4433 25.2576C42.9209 25.3652 43.4207 25.3065 43.8606 25.0913C44.3005 24.876 44.6542 24.5171 44.8635 24.0735H48.3176C48.4589 24.0739 48.5985 24.0418 48.7254 23.9795C48.8524 23.9173 48.9634 23.8265 49.0498 23.7144L56.0728 14.5943C58.5109 14.8185 60.3624 15.7263 61.5657 17.3153C63.8416 20.3215 63.3668 24.9899 63.1014 26.6663H52.8853C52.7508 26.6664 52.6179 26.6959 52.4959 26.7529C52.374 26.81 52.266 26.8931 52.1795 26.9964L49.8557 29.7766C49.6804 29.7281 49.4995 29.7024 49.3176 29.7002C48.8475 29.6969 48.389 29.8467 48.0112 30.1271C47.6333 30.4075 47.3565 30.8034 47.2223 31.2551C47.0882 31.7069 47.104 32.1901 47.2673 32.6321C47.4306 33.0741 47.7327 33.4509 48.1281 33.706C48.5234 33.961 48.9907 34.0804 49.4596 34.0463C49.9284 34.0121 50.3736 33.8262 50.728 33.5166C51.0825 33.207 51.3271 32.7903 51.425 32.3293C51.5229 31.8683 51.4689 31.3879 51.271 30.9603L53.316 28.514H63.4295C63.7802 29.0554 64.1273 29.5099 64.4418 29.9225C65.0407 30.5736 65.5007 31.3404 65.7936 32.176C66.0865 33.0115 66.2062 33.8983 66.1452 34.7819C66.1452 37.9937 65.2618 38.9865 64.2385 40.1401H64.2409Z" fill="white"/>
</svg>
