<svg width="69" height="68" viewBox="0 0 69 68" fill="none" xmlns="http://www.w3.org/2000/svg">
<path d="M44.4287 36.1859V35.0625H42.3037V36.1859C41.5086 36.3185 40.7936 36.7483 40.3032 37.3881C39.8129 38.028 39.584 38.8302 39.6627 39.6324C39.7414 40.4347 40.1219 41.1771 40.7272 41.7095C41.3325 42.2418 42.1174 42.5244 42.9231 42.5H43.8093C43.9559 42.4883 44.1034 42.5071 44.2425 42.5552C44.3815 42.6032 44.5091 42.6796 44.6172 42.7794C44.7252 42.8792 44.8115 43.0003 44.8705 43.1351C44.9295 43.2699 44.96 43.4154 44.96 43.5625C44.96 43.7096 44.9295 43.8551 44.8705 43.9899C44.8115 44.1247 44.7252 44.2458 44.6172 44.3456C44.5091 44.4454 44.3815 44.5218 44.2425 44.5698C44.1034 44.6179 43.9559 44.6367 43.8093 44.625H42.9231C42.6299 44.6359 42.3442 44.5302 42.1286 44.3311C41.913 44.132 41.785 43.8557 41.7725 43.5625V43.1371H39.6475V43.5625C39.6565 44.3115 39.9269 45.0338 40.4119 45.6047C40.8969 46.1756 41.566 46.5591 42.3037 46.6891V46.75H44.4287V46.6891C45.2238 46.5564 45.9389 46.1267 46.4292 45.4869C46.9195 44.847 47.1484 44.0448 47.0697 43.2426C46.991 42.4403 46.6105 41.6979 46.0052 41.1655C45.3999 40.6332 44.615 40.3506 43.8093 40.375H42.9231C42.7765 40.3867 42.629 40.3679 42.49 40.3198C42.3509 40.2718 42.2233 40.1954 42.1153 40.0956C42.0072 39.9958 41.9209 39.8747 41.8619 39.7399C41.8029 39.6051 41.7725 39.4596 41.7725 39.3125C41.7725 39.1654 41.8029 39.0199 41.8619 38.8851C41.9209 38.7503 42.0072 38.6292 42.1153 38.5294C42.2233 38.4296 42.3509 38.3532 42.49 38.3052C42.629 38.2571 42.7765 38.2383 42.9231 38.25H43.8093C44.1025 38.2391 44.3882 38.3448 44.6038 38.5439C44.8194 38.743 44.9475 39.0193 44.96 39.3125V39.7379H47.085V39.3125C47.0759 38.5635 46.8055 37.8412 46.3205 37.2703C45.8356 36.6994 45.1664 36.3159 44.4287 36.1859Z" fill="white"/>
<path d="M52.9287 41.4375C52.9287 39.5462 52.3679 37.6974 51.3171 36.1249C50.2664 34.5523 48.7729 33.3267 47.0256 32.6029C45.2783 31.8791 43.3556 31.6898 41.5007 32.0587C39.6457 32.4277 37.9418 33.3385 36.6045 34.6758C35.2672 36.0131 34.3564 37.717 33.9875 39.572C33.6185 41.4269 33.8079 43.3496 34.5316 45.0969C35.2554 46.8442 36.481 48.3377 38.0536 49.3884C39.6261 50.4392 41.4749 51 43.3662 51C45.9015 50.9972 48.3322 49.9889 50.1249 48.1962C51.9176 46.4034 52.9259 43.9728 52.9287 41.4375ZM43.3662 48.875C41.8952 48.875 40.4573 48.4388 39.2342 47.6216C38.0111 46.8043 37.0578 45.6427 36.4949 44.2837C35.9319 42.9247 35.7846 41.4293 36.0716 39.9865C36.3586 38.5438 37.067 37.2185 38.1071 36.1784C39.1473 35.1382 40.4725 34.4299 41.9152 34.1429C43.358 33.8559 44.8534 34.0032 46.2124 34.5662C47.5714 35.1291 48.733 36.0824 49.5503 37.3055C50.3675 38.5285 50.8037 39.9665 50.8037 41.4375C50.8013 43.4093 50.017 45.2997 48.6227 46.694C47.2284 48.0883 45.338 48.8726 43.3662 48.875Z" fill="white"/>
<path d="M34.9471 2.56172V4.68672C41.4234 4.68444 47.7244 6.79054 52.8976 10.6867C58.0708 14.5828 61.8351 20.0571 63.6213 26.2822C65.4076 32.5073 65.1188 39.1446 62.7985 45.191C60.4782 51.2374 56.2526 56.364 50.7605 59.796L49.2141 57.1497C49.117 56.9838 48.9767 56.8474 48.8081 56.755C48.6396 56.6625 48.4492 56.6175 48.2571 56.6247C48.065 56.632 47.8784 56.6912 47.7173 56.7961C47.5562 56.9009 47.4266 57.0476 47.3423 57.2203L44.0863 63.8941C44.0095 64.0512 43.9727 64.2249 43.9791 64.3997C43.9856 64.5744 44.0351 64.7449 44.1233 64.8959C44.2115 65.0469 44.3356 65.1738 44.4846 65.2653C44.6337 65.3568 44.803 65.4101 44.9776 65.4204L52.3902 65.8593C52.412 65.8604 52.4327 65.8615 52.4535 65.8615C52.6405 65.8616 52.8243 65.8123 52.9862 65.7186C53.1481 65.6249 53.2824 65.4901 53.3755 65.3278C53.4686 65.1656 53.5172 64.9816 53.5163 64.7945C53.5155 64.6075 53.4652 64.4239 53.3707 64.2625L51.8323 61.6301C57.7278 57.9627 62.2679 52.4743 64.7652 45.9959C67.2625 39.5175 67.5812 32.4018 65.6729 25.7261C63.7646 19.0504 59.7332 13.1782 54.1892 8.99849C48.6451 4.81878 41.8902 2.55916 34.9471 2.56172ZM46.6948 63.394L48.3809 59.9367L50.5349 63.6212L46.6948 63.394ZM5.11722 34.5166C5.13891 29.0078 6.67673 23.6114 9.56214 18.9187C12.4475 14.2259 16.5691 10.4181 21.4752 7.91262L22.6578 10.7287C22.732 10.9061 22.853 11.06 23.008 11.1739C23.163 11.2878 23.3461 11.3573 23.5376 11.3751C23.5707 11.3789 23.604 11.3806 23.6373 11.3803C23.8127 11.3801 23.9853 11.3366 24.1399 11.2537C24.2944 11.1708 24.4262 11.051 24.5234 10.905L28.625 4.71474C28.7216 4.56883 28.7806 4.40135 28.7969 4.22716C28.8133 4.05297 28.7864 3.87744 28.7187 3.71612C28.6509 3.55481 28.5445 3.41269 28.4087 3.30236C28.2729 3.19203 28.112 3.11691 27.9402 3.08363L20.649 1.67873C20.4602 1.64248 20.2651 1.65812 20.0845 1.72398C19.9038 1.78984 19.7445 1.90346 19.6233 2.05273C19.5021 2.20201 19.4237 2.38135 19.3964 2.57166C19.3691 2.76197 19.3939 2.95612 19.4682 3.13344L20.6497 5.94676C14.2081 9.16331 9.042 14.4616 5.98922 20.9824C2.93644 27.5032 2.17601 34.864 3.83125 41.8712C5.48649 48.8784 9.46032 55.1209 15.1083 59.5864C20.7563 64.0519 27.7471 66.4784 34.9471 66.4725V64.3476C31.0287 64.3512 27.148 63.5821 23.5272 62.0842C19.9063 60.5863 16.6164 58.3891 13.8457 55.6183C11.075 52.8475 8.87794 49.5575 7.3802 45.9366C5.88245 42.3158 5.11346 38.435 5.11722 34.5166ZM25.9729 4.86934L23.8479 8.07551L22.1961 4.14095L25.9729 4.86934Z" fill="white"/>
<path d="M42.3037 30.8125V21.25C42.3038 21.1104 42.2764 20.9722 42.223 20.8433C42.1696 20.7144 42.0914 20.5972 41.9927 20.4985C41.894 20.3998 41.7768 20.3216 41.6479 20.2682C41.519 20.2148 41.3808 20.1874 41.2412 20.1875H22.1162C21.9767 20.1874 21.8385 20.2148 21.7095 20.2682C21.5806 20.3216 21.4634 20.3998 21.3647 20.4985C21.2661 20.5972 21.1878 20.7144 21.1344 20.8433C21.0811 20.9722 21.0536 21.1104 21.0537 21.25V40.375C21.0536 40.5146 21.0811 40.6528 21.1344 40.7817C21.1878 40.9106 21.2661 41.0278 21.3647 41.1265C21.4634 41.2252 21.5806 41.3034 21.7095 41.3568C21.8385 41.4102 21.9767 41.4376 22.1162 41.4375H32.7412V39.3125H23.1787V22.3125H27.96V29.75C27.96 29.9236 28.0025 30.0946 28.0839 30.2479C28.1652 30.4013 28.2829 30.5324 28.4267 30.6297C28.5704 30.7271 28.7358 30.7877 28.9084 30.8064C29.081 30.8251 29.2555 30.8011 29.4167 30.7368L31.6787 29.832L33.9407 30.7368C34.1019 30.8011 34.2764 30.8251 34.449 30.8064C34.6216 30.7877 34.787 30.7271 34.9308 30.6297C35.0745 30.5324 35.1922 30.4013 35.2735 30.2479C35.3549 30.0946 35.3974 29.9236 35.3975 29.75V22.3125H40.1787V30.8125H42.3037ZM33.2725 28.1812L32.073 27.7007C31.82 27.5991 31.5374 27.5991 31.2844 27.7007L30.085 28.1812V22.3125H33.2725V28.1812Z" fill="white"/>
</svg>
