<svg width="68" height="68" viewBox="0 0 68 68" fill="none" xmlns="http://www.w3.org/2000/svg">
<path d="M52.1008 36.5002L47.3008 35.5002C47.1008 35.0002 46.9008 34.6002 46.7008 34.1002L49.4008 30.0002C49.7008 29.6002 49.6008 29.1002 49.3008 28.7002L45.4008 24.8002C45.1008 24.5002 44.5008 24.4002 44.1008 24.7002L40.0008 27.4002C39.5008 27.2002 39.1008 27.0002 38.6008 26.8002L37.6008 22.0002C37.5008 21.5002 37.1008 21.2002 36.6008 21.2002H31.1008C30.6008 21.2002 30.2008 21.5002 30.1008 22.0002L29.1008 26.8002C28.6008 27.0002 28.2008 27.2002 27.7008 27.4002L23.6008 24.7002C23.2008 24.4002 22.7008 24.5002 22.3008 24.8002L18.4008 28.7002C18.1008 29.0002 18.0008 29.6002 18.3008 30.0002L21.0008 34.1002C20.8008 34.6002 20.6008 35.0002 20.4008 35.5002L15.6008 36.5002C15.1008 36.6002 14.8008 37.0002 14.8008 37.5002V43.0002C14.8008 43.5002 15.1008 43.9002 15.6008 44.0002L20.4008 45.0002C20.6008 45.5002 20.8008 46.0002 21.0008 46.4002L18.3008 50.5002C18.0008 50.9002 18.1008 51.4002 18.4008 51.8002L22.3008 55.7002C22.6008 56.0002 23.2008 56.1002 23.6008 55.8002L27.7008 53.1002C28.2008 53.3002 28.6008 53.5002 29.1008 53.7002L30.1008 58.5002C30.2008 59.0002 30.6008 59.3002 31.1008 59.3002H36.6008C37.1008 59.3002 37.5008 59.0002 37.6008 58.5002L38.6008 53.7002C39.1008 53.5002 39.6008 53.3002 40.0008 53.1002L44.1008 55.8002C44.5008 56.1002 45.0008 56.0002 45.4008 55.7002L49.3008 51.8002C49.6008 51.5002 49.7008 50.9002 49.4008 50.5002L46.7008 46.4002C46.9008 45.9002 47.1008 45.5002 47.3008 45.0002L52.1008 44.0002C52.6008 43.9002 52.9008 43.5002 52.9008 43.0002V37.5002C52.9008 37.0002 52.6008 36.6002 52.1008 36.5002ZM50.9008 42.1002L46.3008 43.0002C45.9008 43.1002 45.6008 43.3002 45.5008 43.7002C45.3008 44.5002 45.0008 45.2002 44.6008 45.8002C44.4008 46.1002 44.4008 46.5002 44.6008 46.8002L47.2008 50.7002L44.5008 53.4002L40.7008 51.0002C40.4008 50.8002 40.0008 50.8002 39.7008 51.0002C39.0008 51.4002 38.3008 51.7002 37.5008 51.9002C37.2008 52.0002 36.9008 52.3002 36.8008 52.7002L35.9008 57.3002H32.0008L31.1008 52.7002C31.0008 52.3002 30.8008 52.1002 30.4008 51.9002C29.6008 51.7002 28.9008 51.4002 28.2008 51.0002C27.9008 50.8002 27.5008 50.8002 27.2008 51.0002L23.3008 53.6002L20.6008 50.9002L23.2008 47.0002C23.4008 46.7002 23.4008 46.3002 23.2008 46.0002C22.8008 45.3002 22.5008 44.6002 22.3008 43.9002C22.2008 43.5002 21.9008 43.3002 21.5008 43.2002L16.9008 42.3002V38.4002L21.5008 37.5002C21.9008 37.4002 22.2008 37.2002 22.3008 36.8002C22.5008 36.0002 22.8008 35.3002 23.2008 34.6002C23.4008 34.3002 23.4008 33.9002 23.2008 33.6002L20.6008 29.7002L23.3008 27.0002L27.2008 29.6002C27.5008 29.8002 27.9008 29.8002 28.2008 29.7002C28.9008 29.3002 29.6008 29.0002 30.4008 28.8002C30.8008 28.7002 31.0008 28.4002 31.1008 28.0002L32.0008 23.4002H35.9008L36.8008 28.0002C36.9008 28.4002 37.1008 28.7002 37.5008 28.8002C38.2008 29.0002 38.9008 29.3002 39.7008 29.7002C40.0008 29.9002 40.4008 29.8002 40.7008 29.6002L44.6008 27.0002L47.3008 29.7002L44.7008 33.6002C44.5008 33.9002 44.5008 34.3002 44.7008 34.6002C45.1008 35.3002 45.4008 36.0002 45.6008 36.8002C45.7008 37.2002 46.0008 37.4002 46.4008 37.5002L51.0008 38.4002V42.1002H50.9008Z" fill="white"/>
<path d="M33.9984 32.1001C29.4984 32.1001 25.8984 35.7001 25.8984 40.2001C25.8984 44.7001 29.4984 48.3001 33.9984 48.3001C38.4984 48.3001 42.0984 44.7001 42.0984 40.2001C42.0984 35.7001 38.4984 32.1001 33.9984 32.1001ZM33.9984 46.3001C30.5984 46.3001 27.8984 43.6001 27.8984 40.2001C27.8984 36.8001 30.5984 34.1001 33.9984 34.1001C37.3984 34.1001 40.0984 36.8001 40.0984 40.2001C40.0984 43.6001 37.3984 46.3001 33.9984 46.3001Z" fill="white"/>
<path d="M5.4 65.8H62.6C65 65.8 67 63.8 67 61.4C67 55.4 67 13.4 67 6.59995C67 4.19995 65 2.19995 62.6 2.19995H5.4C3 2.19995 1 4.19995 1 6.59995C1 13.4 1 55.4 1 61.4C1 63.8 3 65.8 5.4 65.8ZM62.6 63.7999H5.4C4.1 63.7999 3 62.7 3 61.4V17.8H65V61.4C65 62.7 63.9 63.7999 62.6 63.7999ZM3 6.59995C3 5.29995 4.1 4.19995 5.4 4.19995H62.6C63.9 4.19995 65 5.29995 65 6.59995V15.8H3V6.59995Z" fill="white"/>
<path d="M10.5 6.5C8.6 6.5 7 8.1 7 10C7 11.9 8.6 13.5 10.5 13.5C12.4 13.5 14 11.9 14 10C14 8.1 12.4 6.5 10.5 6.5ZM10.5 11.4C9.7 11.4 9 10.8 9 10C9 9.2 9.7 8.5 10.5 8.5C11.3 8.5 12 9.2 12 10C12 10.8 11.3 11.4 10.5 11.4ZM21.5 6.5C19.6 6.5 18 8.1 18 10C18 11.9 19.6 13.5 21.5 13.5C23.4 13.5 25 11.9 25 10C25 8.1 23.4 6.5 21.5 6.5ZM21.5 11.4C20.7 11.4 20 10.7 20 9.9C20 9.1 20.7 8.4 21.5 8.4C22.3 8.4 23 9.1 23 9.9C23 10.8 22.3 11.4 21.5 11.4ZM32.5 6.5C30.6 6.5 29 8.1 29 10C29 11.9 30.6 13.5 32.5 13.5C34.4 13.5 36 11.9 36 10C36 8.1 34.4 6.5 32.5 6.5ZM32.5 11.4C31.7 11.4 31 10.7 31 9.9C31 9.1 31.7 8.4 32.5 8.4C33.3 8.4 34 9.2 34 10C34 10.8 33.3 11.4 32.5 11.4Z" fill="white"/>
</svg>
