<svg width="69" height="64" viewBox="0 0 69 64" fill="none" xmlns="http://www.w3.org/2000/svg">
<path d="M31.4795 30.7621C31.4795 30.7621 33.5453 24.3987 33.3408 20.3716M37.9088 30.7621C37.9088 30.7621 35.9293 24.8532 36.1339 20.8375" stroke="white" stroke-width="1.81812" stroke-miterlimit="10" stroke-linecap="round"/>
<path d="M35.0573 20.5536C39.6135 20.5536 43.3071 16.8601 43.3071 12.3039C43.3071 7.74771 39.6135 4.0542 35.0573 4.0542C30.5011 4.0542 26.8076 7.74771 26.8076 12.3039C26.8076 16.8601 30.5011 20.5536 35.0573 20.5536Z" stroke="white" stroke-width="1.81812" stroke-miterlimit="10" stroke-linecap="round"/>
<path d="M32.2927 20.0785C32.2927 20.0785 20.0818 19.658 18.8159 28.3259M18.8159 29.1554L12.1525 23.7511C11.0162 22.8238 9.22305 23.1147 8.18445 24.3942C7.14584 25.6737 7.22539 27.4828 8.37535 28.4077L17.2546 35.612C17.2546 35.612 20.6636 37.0915 22.909 33.878C25.1543 30.6645 25.5543 25.1124 25.5543 25.1124V39.3323M37.2653 20.2512C37.2653 20.2512 49.1922 19.658 50.4467 28.3259" stroke="white" stroke-width="1.81812" stroke-miterlimit="10" stroke-linecap="round"/>
<path d="M50.4595 29.1554L57.1252 23.751C58.2615 22.8238 60.0546 23.1147 61.0932 24.3942C62.1318 25.6737 62.0454 27.4827 60.9023 28.41L52.0208 35.612C52.0208 35.612 48.6118 37.0914 46.3687 33.8779C44.1256 30.6644 43.7211 25.1123 43.7211 25.1123V38.2732M28.1807 20.5534C28.1807 20.5534 30.5851 32.6484 33.635 35.3756M41.2166 20.5534C41.2166 20.5534 39.1712 32.6484 36.1259 35.3756M4.84054 5.1449H17.5515M4.84054 9.09021H13.3153M11.1221 13.0355H20.2537C20.6975 13.0343 21.123 12.8579 21.4375 12.5447C21.752 12.2315 21.9302 11.8067 21.9332 11.3629V2.58817C21.932 2.14312 21.7546 1.71663 21.4399 1.40193C21.1252 1.08722 20.6987 0.909891 20.2537 0.908691H3.45195C3.00707 0.910486 2.58093 1.08801 2.26636 1.40258C1.95178 1.71716 1.77426 2.1433 1.77246 2.58817V11.3629C1.77366 11.8081 1.95092 12.2348 2.26556 12.5499C2.5802 12.865 3.00668 13.0428 3.45195 13.0446H5.42461L9.66083 18.4399L11.1221 13.0355Z" stroke="white" stroke-width="1.81812" stroke-miterlimit="10" stroke-linecap="round"/>
<path d="M66.5658 44.3003H54.1571C53.3902 44.3003 52.7686 44.922 52.7686 45.6889V56.6453C52.7686 57.4122 53.3902 58.0339 54.1571 58.0339H66.5658C67.3327 58.0339 67.9544 57.4122 67.9544 56.6453V45.6889C67.9544 44.922 67.3327 44.3003 66.5658 44.3003Z" stroke="white" stroke-width="1.81812" stroke-miterlimit="10" stroke-linecap="round"/>
<path d="M56.2969 53.2843L59.4423 50.6798L61.7717 52.5843L64.0103 50.348M23.9184 48.2231C23.7798 46.6323 24.898 44.3073 24.898 44.3073L22.8071 42.6119C22.7976 42.6044 22.7896 42.5951 22.7838 42.5845C22.7779 42.5738 22.7742 42.5621 22.773 42.5501C22.7717 42.538 22.7728 42.5258 22.7764 42.5142C22.7799 42.5025 22.7857 42.4917 22.7935 42.4824L24.4707 40.4098L24.4389 40.4507L26.1161 38.378C26.1316 38.3593 26.1539 38.3474 26.1781 38.3448C26.2023 38.3423 26.2265 38.3493 26.2456 38.3644L28.3387 40.0598C28.3387 40.0598 30.3841 38.4689 31.975 38.2871" stroke="white" stroke-width="1.81812" stroke-miterlimit="10" stroke-linecap="round"/>
<path d="M28.4131 40.0211C29.5358 38.8984 32.0493 38.253 32.0493 38.253L31.9993 35.5622C31.999 35.55 32.0012 35.538 32.0056 35.5267C32.01 35.5154 32.0167 35.5051 32.0251 35.4964C32.0336 35.4877 32.0437 35.4808 32.0549 35.4761C32.0661 35.4714 32.0781 35.469 32.0902 35.469L34.7561 35.4213H34.7038L37.3696 35.3735C37.3942 35.3735 37.4178 35.3829 37.4355 35.3999C37.4533 35.4168 37.4639 35.4399 37.4651 35.4644L37.5105 38.1575C37.5105 38.1575 40.04 38.7143 41.2013 39.7961" stroke="white" stroke-width="1.81812" stroke-miterlimit="10" stroke-linecap="round"/>
<path d="M37.585 38.1803C39.1758 38.319 41.2735 39.8257 41.2735 39.8257L43.3052 38.0599C43.3226 38.0431 43.3458 38.0337 43.37 38.0337C43.3942 38.0337 43.4174 38.0431 43.4348 38.0599L45.1847 40.0734L45.1506 40.0348L46.8983 42.0461C46.9069 42.0546 46.9137 42.0646 46.9184 42.0758C46.923 42.0869 46.9254 42.0988 46.9254 42.1109C46.9254 42.1229 46.923 42.1349 46.9184 42.146C46.9137 42.1571 46.9069 42.1672 46.8983 42.1756L44.8665 43.9415C44.8665 43.9415 46.0665 46.2391 45.9824 47.8232" stroke="white" stroke-width="1.81812" stroke-miterlimit="10" stroke-linecap="round"/>
<path d="M44.8834 44.0391C45.7925 45.339 45.9925 47.923 45.9925 47.923L48.6515 48.3435C48.6754 48.3474 48.6969 48.3605 48.7113 48.38C48.7258 48.3995 48.732 48.4239 48.7287 48.448L48.3106 51.082V51.032L47.906 53.6637C47.9044 53.6757 47.9003 53.6872 47.8941 53.6977C47.888 53.7081 47.8798 53.7171 47.87 53.7243C47.8603 53.7315 47.8492 53.7367 47.8374 53.7396C47.8257 53.7424 47.8134 53.7429 47.8015 53.741L45.1402 53.3205C45.1402 53.3205 44.1539 55.7136 42.8857 56.6681" stroke="white" stroke-width="1.81812" stroke-miterlimit="10" stroke-linecap="round"/>
<path d="M45.0928 53.3911C44.6815 54.9229 42.8202 56.7364 42.8202 56.7364L44.2065 59.0455C44.2127 59.0557 44.2167 59.0671 44.2185 59.079C44.2202 59.0909 44.2196 59.103 44.2166 59.1146C44.2136 59.1262 44.2084 59.1371 44.2012 59.1467C44.194 59.1563 44.185 59.1644 44.1747 59.1704L41.902 60.534L41.9452 60.5068L39.6589 61.8817C39.6486 61.8879 39.6372 61.8919 39.6254 61.8937C39.6135 61.8954 39.6014 61.8948 39.5898 61.8918C39.5782 61.8889 39.5673 61.8836 39.5577 61.8764C39.5481 61.8692 39.54 61.8602 39.5339 61.8499L38.1476 59.5432C38.1476 59.5432 35.6772 60.3249 34.1318 59.9681" stroke="white" stroke-width="1.81812" stroke-miterlimit="10" stroke-linecap="round"/>
<path d="M38.0646 59.5632C36.626 60.2246 34.0443 59.9791 34.0443 59.9791L33.167 62.5267C33.1632 62.5381 33.1571 62.5486 33.1492 62.5576C33.1413 62.5666 33.1317 62.574 33.1209 62.5793C33.1101 62.5846 33.0984 62.5877 33.0864 62.5884C33.0745 62.5891 33.0624 62.5875 33.0511 62.5836L30.5307 61.7154L30.5785 61.7313L28.0581 60.8632C28.0467 60.8593 28.0362 60.8533 28.0272 60.8454C28.0182 60.8375 28.0108 60.8278 28.0055 60.8171C28.0003 60.8063 27.9972 60.7946 27.9964 60.7826C27.9957 60.7706 27.9973 60.7586 28.0013 60.7473L28.8785 58.1996C28.8785 58.1996 26.6922 56.811 25.9718 55.3975" stroke="white" stroke-width="1.81812" stroke-miterlimit="10" stroke-linecap="round"/>
<path d="M28.8181 58.1453C27.3795 57.4749 25.916 55.3364 25.916 55.3364L23.4024 56.3022C23.3798 56.3105 23.3548 56.3097 23.3328 56.2999C23.3107 56.2902 23.2933 56.2723 23.2842 56.25L22.3297 53.75L22.3479 53.8L21.3911 51.3001C21.383 51.2772 21.3841 51.252 21.3943 51.2299C21.4045 51.2079 21.4229 51.1906 21.4456 51.182L23.9592 50.2184C23.9592 50.2184 23.6183 47.6503 24.2365 46.189" stroke="white" stroke-width="1.81812" stroke-miterlimit="10" stroke-linecap="round"/>
<path d="M34.9635 55.8703C38.7904 55.8703 41.8928 52.768 41.8928 48.941C41.8928 45.1141 38.7904 42.0117 34.9635 42.0117C31.1365 42.0117 28.0342 45.1141 28.0342 48.941C28.0342 52.768 31.1365 55.8703 34.9635 55.8703Z" stroke="white" stroke-width="1.81812" stroke-miterlimit="10" stroke-linecap="round"/>
</svg>
