<svg width="68" height="69" viewBox="0 0 68 69" fill="none" xmlns="http://www.w3.org/2000/svg">
<path d="M43.4612 45.7061C44.1053 46.3502 45.225 45.8972 45.225 44.9777C45.225 44.6723 45.0906 44.3976 44.8778 44.209L41.8191 41.1502C41.6304 40.9172 41.3406 40.7689 41.0162 40.7689C40.0978 40.7689 39.6433 41.8883 40.2877 42.5327L43.4612 45.7061ZM27.7018 28.4792C28.1042 28.0768 28.1042 27.4248 27.7018 27.0223L24.5389 23.8594C23.5747 22.8952 22.1183 24.3528 23.082 25.3164L26.2448 28.4792C26.6473 28.8817 27.2992 28.8817 27.7018 28.4792ZM24.5404 45.7051L27.7032 42.5316C28.1046 42.1287 28.1037 41.4762 27.7007 41.0742C27.2968 40.6722 26.6443 40.6737 26.2433 41.0766L23.1548 44.1756C22.9224 44.3642 22.775 44.6535 22.775 44.9775C22.7751 45.8889 23.8909 46.3547 24.5404 45.7051ZM43.4612 23.8594L40.2877 27.0329C39.8853 27.4353 39.8853 28.0873 40.2877 28.4898C40.6902 28.8923 41.3422 28.8923 41.7447 28.4898L44.9181 25.3164C45.3206 24.914 45.3206 24.262 44.9181 23.8594C44.5156 23.457 43.8636 23.457 43.4612 23.8594Z" fill="white"/>
<path d="M13.5217 67.7519C20.4593 67.7519 26.0117 62.0558 26.0117 55.2615C26.0117 48.3744 20.4089 42.7716 13.5217 42.7716C6.63455 42.7716 1.03135 48.3744 1.03135 55.2615C1.03125 62.0518 6.58046 67.7519 13.5217 67.7519ZM6.53523 62.9832C8.08924 60.6662 10.69 59.2449 13.5162 59.2449C16.3485 59.2449 18.9528 60.6663 20.5073 62.9837C18.6559 64.6601 16.21 65.6913 13.5217 65.6913C10.8329 65.6913 8.38669 64.66 6.53523 62.9832ZM13.5191 57.1807C11.4786 57.1807 9.81901 55.5211 9.81901 53.4805C9.81901 51.44 11.4786 49.7804 13.5191 49.7804C15.5597 49.7804 17.2193 51.44 17.2193 53.4805C17.2193 55.5211 15.5597 57.1807 13.5191 57.1807ZM13.5217 44.8322C19.2724 44.8322 23.9511 49.5108 23.9511 55.2615C23.9511 57.5601 23.1947 59.6802 21.9303 61.4058C20.7268 59.7897 19.0866 58.5838 17.2285 57.8814C18.4813 56.8239 19.28 55.2445 19.28 53.4805C19.28 50.3041 16.6957 47.7198 13.5192 47.7198C10.3428 47.7198 7.75851 50.3041 7.75851 53.4805C7.75851 55.2443 8.5571 56.8236 9.80974 57.8812C7.95406 58.5836 6.31536 59.7893 5.11238 61.4053C3.8481 59.6797 3.09196 57.5598 3.09196 55.2615C3.09186 49.5108 7.77046 44.8322 13.5217 44.8322ZM54.4777 1.8125C47.5905 1.8125 41.9878 7.41529 41.9878 14.3025C41.9878 17.5813 43.2675 20.56 45.3414 22.7908C45.3647 22.8226 45.3931 22.8483 45.4202 22.8776C47.6981 25.2826 50.9114 26.7929 54.4776 26.7929C58.0511 26.7929 61.2702 25.2762 63.549 22.8625C63.5674 22.8418 63.5875 22.8239 63.6041 22.8019C65.6841 20.57 66.9681 17.5867 66.9681 14.3025C66.9682 7.41529 61.3649 1.8125 54.4777 1.8125ZM54.4777 3.87311C60.2289 3.87311 64.9075 8.55171 64.9075 14.3025C64.9075 16.6002 64.1516 18.7198 62.888 20.4451C61.6855 18.8287 60.046 17.6224 58.1888 16.9189C59.4391 15.8614 60.2364 14.2836 60.2364 12.5216C60.2364 9.34515 57.6521 6.76084 54.4756 6.76084C51.2987 6.76084 48.7144 9.34515 48.7144 12.5216C48.7144 14.2831 49.5111 15.8602 50.7609 16.9178C48.9059 17.6205 47.2681 18.8264 46.0657 20.4421C44.8034 18.7173 44.0485 16.5989 44.0485 14.3025C44.0485 8.55171 48.7271 3.87311 54.4777 3.87311ZM54.4707 16.2196C54.4677 16.2196 54.4648 16.2203 54.4617 16.2203C52.4278 16.2124 50.7751 14.5572 50.7751 12.5215C50.7751 10.481 52.4352 8.82134 54.4757 8.82134C56.5163 8.82134 58.1759 10.481 58.1759 12.5215C58.1759 14.5586 56.5214 16.2151 54.4856 16.2206C54.4806 16.2207 54.4757 16.2196 54.4707 16.2196ZM47.4883 22.021C49.0393 19.7066 51.6347 18.2862 54.4559 18.2812C54.4626 18.2812 54.469 18.2822 54.4757 18.2822C54.4805 18.2822 54.485 18.2815 54.4899 18.2815C57.3165 18.288 59.9142 19.7089 61.4648 22.0235C59.6132 23.7006 57.1668 24.7321 54.4778 24.7321C51.7875 24.7322 49.3401 23.6995 47.4883 22.021ZM1.03125 14.3025C1.03125 21.138 6.62724 26.7928 13.5216 26.7928C20.3956 26.7928 26.0116 21.1579 26.0116 14.3025C26.0116 7.41529 20.4088 1.8125 13.5217 1.8125C6.63466 1.8125 1.03125 7.41529 1.03125 14.3025ZM6.53307 22.0221C8.08378 19.7072 10.679 18.2865 13.5005 18.2813C13.5068 18.2813 13.5129 18.2822 13.5191 18.2822C13.5243 18.2822 13.5292 18.2815 13.5344 18.2815C16.361 18.2876 18.9586 19.708 20.5094 22.0225C18.6579 23.7003 16.211 24.7322 13.5216 24.7322C10.8318 24.7322 8.38473 23.7001 6.53307 22.0221ZM9.81901 12.5215C9.81901 10.481 11.4786 8.82134 13.5191 8.82134C15.5597 8.82134 17.2193 10.481 17.2193 12.5215C17.2193 14.5583 15.5653 16.2146 13.5299 16.2206C13.5252 16.2206 13.5208 16.2196 13.5162 16.2196C13.5128 16.2196 13.5095 16.2204 13.5061 16.2204C11.4716 16.213 9.81901 14.5576 9.81901 12.5215ZM23.951 14.3025C23.951 16.5997 23.1955 18.7186 21.9324 20.4439C20.7296 18.8276 19.0901 17.6216 17.2329 16.9184C18.4829 15.8608 19.2799 14.2833 19.2799 12.5216C19.2799 9.34515 16.6956 6.76084 13.5191 6.76084C10.3427 6.76084 7.75841 9.34505 7.75841 12.5215C7.75841 14.2831 8.55524 15.8605 9.80521 16.9181C7.95025 17.6212 6.31238 18.8272 5.11001 20.4433C3.84707 18.7182 3.09175 16.5993 3.09175 14.3023C3.09186 8.55171 7.77046 3.87311 13.5217 3.87311C19.2724 3.87311 23.951 8.55171 23.951 14.3025ZM54.4777 42.7716C47.5905 42.7716 41.9878 48.3744 41.9878 55.2615C41.9878 62.0999 47.5827 67.7519 54.4777 67.7519C61.3691 67.7519 66.9682 62.1016 66.9682 55.2615C66.9682 48.3744 61.3649 42.7716 54.4777 42.7716ZM54.4777 44.8322C60.2289 44.8322 64.9075 49.5108 64.9075 55.2615C64.9075 57.5605 64.1508 59.6812 62.8858 61.4071C61.6825 59.7907 60.0424 58.5847 58.1844 57.8819C59.4375 56.8243 60.2364 55.2447 60.2364 53.4805C60.2364 50.3041 57.6521 47.7198 54.4756 47.7198C51.2987 47.7198 48.7144 50.3041 48.7144 53.4805C48.7144 55.2441 49.5129 56.8232 50.7652 57.8808C48.9096 58.5829 47.2709 59.7884 46.0677 61.4041C44.8042 59.6787 44.0483 57.5592 44.0483 55.2614C44.0485 49.5108 48.7271 44.8322 54.4777 44.8322ZM54.4757 57.1807C52.4352 57.1807 50.7751 55.5211 50.7751 53.4805C50.7751 51.44 52.4352 49.7804 54.4757 49.7804C56.5163 49.7804 58.1759 51.44 58.1759 53.4805C58.1759 55.5211 56.5162 57.1807 54.4757 57.1807ZM47.4905 62.9821C49.0445 60.6656 51.645 59.2449 54.4707 59.2449C57.3034 59.2449 59.9081 60.6668 61.4625 62.9848C59.6113 64.6606 57.1657 65.6913 54.4777 65.6913C51.7886 65.6913 49.342 64.6594 47.4905 62.9821ZM33.9985 42.6599C38.342 42.6599 41.8762 39.1257 41.8762 34.7822C41.8762 30.4457 38.342 26.9181 33.9985 26.9181C29.6619 26.9181 26.1344 30.4457 26.1344 34.7822C26.1344 39.1257 29.6619 42.6599 33.9985 42.6599ZM33.9985 28.9787C37.2061 28.9787 39.8156 31.5822 39.8156 34.7822C39.8156 37.9898 37.2061 40.5993 33.9985 40.5993C30.7984 40.5993 28.195 37.9898 28.195 34.7822C28.195 31.5821 30.7984 28.9787 33.9985 28.9787Z" fill="white"/>
</svg>
