<svg width="71" height="70" viewBox="0 0 71 70" fill="none" xmlns="http://www.w3.org/2000/svg">
<path d="M25.4257 1.0037C25.4135 1.0037 25.4012 1 25.3889 1H25.3778H25.3594C23.88 1.02154 22.4177 1.32112 21.0484 1.88318C14.3687 4.51856 13.2243 10.6811 13.0327 12.9851C10.1627 13.2931 7.95503 14.4473 6.45987 16.423C3.54388 20.2809 4.35596 26.0185 4.64037 27.5484C4.29208 28.1076 3.93825 28.5701 3.5961 29.0204C2.14399 30.6614 1.39517 32.81 1.51185 35.0006C1.51185 38.9164 2.77358 40.3348 3.88604 41.5863C4.15202 41.885 4.40695 42.1714 4.63484 42.4836C4.34552 44.0541 3.56231 49.7412 6.46171 53.5776C7.95503 55.5534 10.1627 56.7081 13.0345 57.0161C13.2262 59.3201 14.3712 65.4833 21.0527 68.1168C22.4218 68.6788 23.8839 68.9781 25.3631 68.9994H25.3821H25.3926C25.4036 68.9994 25.4147 68.9994 25.427 68.9957C26.7189 68.9945 27.9941 68.7023 29.1583 68.1408C30.3226 67.5792 31.3461 66.7626 32.1533 65.7512C33.6481 63.8986 34.4711 61.592 34.4876 59.2093V10.7914C34.4839 6.10323 31.0224 1.04742 25.4257 1.0037ZM32.6386 59.2049C32.6156 61.1604 31.9409 63.0519 30.7221 64.5786C29.632 65.9573 28.0495 66.8566 26.3097 67.0858V62.2567C26.7523 62.0468 27.1105 61.6921 27.3253 61.251C27.5401 60.8098 27.5987 60.3085 27.4914 59.8295C27.3842 59.3505 27.1175 58.9224 26.7352 58.6157C26.3529 58.3089 25.8779 58.1418 25.3883 58.1418C24.8987 58.1418 24.4236 58.3089 24.0414 58.6157C23.6591 58.9224 23.3924 59.3505 23.2851 59.8295C23.1779 60.3085 23.2365 60.8098 23.4512 61.251C23.666 61.6921 24.0242 62.0468 24.4669 62.2567V67.0944C23.5247 66.9826 22.6015 66.7457 21.7216 66.3899C15.3946 63.8962 14.8706 57.8598 14.8356 56.4667L21.6295 47.6423H24.6315C24.8408 48.0864 25.1947 48.4459 25.635 48.6615C26.0752 48.8771 26.5756 48.9359 27.0536 48.8284C27.5317 48.7208 27.959 48.4533 28.2652 48.0698C28.5714 47.6863 28.7382 47.2097 28.7382 46.7185C28.7382 46.2272 28.5714 45.7506 28.2652 45.3671C27.959 44.9836 27.5317 44.7161 27.0536 44.6085C26.5756 44.501 26.0752 44.5599 25.635 44.7755C25.1947 44.991 24.8408 45.3505 24.6315 45.7946H21.1792C21.0384 45.7946 20.8995 45.827 20.7731 45.8893C20.6467 45.9515 20.5362 46.042 20.4501 46.1537L13.494 55.1937C11.0234 54.98 9.14857 54.0703 7.93414 52.4659C5.69693 49.5097 6.11771 44.9564 6.38431 43.2085H16.6139C16.7421 43.2084 16.8689 43.1815 16.9862 43.1297L25.1757 39.4966C25.5461 39.8154 26.0136 39.9983 26.5015 40.0154C26.9893 40.0324 27.4684 39.8825 27.8599 39.5903C28.2515 39.2981 28.5322 38.881 28.656 38.4076C28.7797 37.9341 28.7391 37.4326 28.5408 36.9854C28.3425 36.5382 27.9984 36.172 27.5649 35.9469C27.1315 35.7219 26.6345 35.6514 26.1558 35.7471C25.6771 35.8428 25.2452 36.099 24.931 36.4735C24.6167 36.848 24.439 37.3186 24.4269 37.8078L16.4192 41.3609H6.09929C5.82716 40.9913 5.54214 40.6692 5.26325 40.3557C4.23986 39.2053 3.35899 38.2118 3.35899 34.9975C3.29801 34.114 3.41764 33.2272 3.71055 32.3916C4.00345 31.556 4.46346 30.7892 5.06238 30.1382C5.37751 29.7255 5.72396 29.271 6.07472 28.7297H16.1839L18.2295 31.1766C18.0137 31.6319 17.9596 32.1476 18.0763 32.638C18.1929 33.1284 18.4733 33.5641 18.8708 33.8728C19.2683 34.1815 19.7592 34.3447 20.2619 34.3352C20.7647 34.3258 21.2491 34.1444 21.6349 33.821C22.0207 33.4976 22.2846 33.0517 22.3829 32.5573C22.4812 32.0629 22.4079 31.5496 22.1753 31.1027C21.9427 30.6557 21.5647 30.3019 21.104 30.0999C20.6433 29.8979 20.1275 29.8599 19.6423 29.9922L17.3173 27.2146C17.2308 27.1112 17.1228 27.0281 17.0009 26.9711C16.8789 26.9141 16.746 26.8845 16.6115 26.8845H6.39905C6.13307 25.208 5.65823 20.5408 7.93475 17.5335C9.13813 15.9445 10.9902 15.0367 13.4276 14.8125L20.4501 23.9331C20.5362 24.0449 20.6467 24.1353 20.7731 24.1976C20.8995 24.2598 21.0384 24.2922 21.1792 24.2922H24.6339C24.8433 24.7363 25.1972 25.0958 25.6374 25.3114C26.0777 25.527 26.578 25.5858 27.0561 25.4783C27.5342 25.3707 27.9615 25.1032 28.2677 24.7197C28.5739 24.3362 28.7407 23.8596 28.7407 23.3684C28.7407 22.8771 28.5739 22.4005 28.2677 22.017C27.9615 21.6335 27.5342 21.366 27.0561 21.2585C26.578 21.1509 26.0777 21.2098 25.6374 21.4254C25.1972 21.6409 24.8433 22.0004 24.6339 22.4445H21.6301L14.8374 13.6201C14.8626 12.4469 15.3006 6.13711 21.7241 3.60581C22.604 3.25008 23.5272 3.01315 24.4693 2.90124V7.73903C24.0263 7.9489 23.6678 8.30374 23.4528 8.74515C23.2378 9.18655 23.1791 9.6882 23.2863 10.1675C23.3936 10.6468 23.6604 11.0753 24.0429 11.3823C24.4254 11.6892 24.9008 11.8565 25.3907 11.8565C25.8807 11.8565 26.356 11.6892 26.7385 11.3823C27.121 11.0753 27.3879 10.6468 27.4952 10.1675C27.6024 9.6882 27.5437 9.18655 27.3287 8.74515C27.1137 8.30374 26.7551 7.9489 26.3122 7.73903V2.92033C30.2435 3.45431 32.6392 7.25001 32.6392 10.7914L32.6386 59.2049ZM69.488 35.0006C69.6054 32.8094 68.8567 30.6601 67.4044 29.0185C67.061 28.5689 66.7078 28.1064 66.3601 27.5465C66.6445 26.0185 67.456 20.2834 64.5388 16.423C63.0448 14.4473 60.8377 13.2931 57.966 12.9851C57.7743 10.6811 56.6293 4.51856 49.9478 1.88564C48.5781 1.32378 47.1153 1.02462 45.6356 1.0037H45.6171H45.6061C45.5932 1.0037 45.5815 1.0037 45.5686 1.00739C39.9743 1.04804 36.5129 6.10385 36.5129 10.7926V59.2099C36.5129 63.8986 39.9737 68.9544 45.568 68.9963C45.5809 68.9963 45.5926 69 45.6061 69H45.6171H45.6362C47.1154 68.9787 48.5775 68.6794 49.9466 68.1174C56.6287 65.4845 57.7731 59.3213 57.9654 57.0167C60.8347 56.7088 63.043 55.554 64.5382 53.5782C67.4376 49.7425 66.6537 44.0548 66.365 42.4842C66.5929 42.172 66.8478 41.8856 67.1138 41.5869C68.2263 40.3342 69.488 38.9158 69.488 35.0006ZM65.7409 40.3588C65.462 40.6723 65.177 40.9944 64.9049 41.364H54.5795L46.5723 37.8109C46.5628 37.3163 46.3853 36.8398 46.0693 36.46C45.7532 36.0801 45.3175 35.8197 44.8339 35.7216C44.3503 35.6235 43.8479 35.6936 43.4094 35.9204C42.9709 36.1471 42.6226 36.517 42.4221 36.9689C42.2215 37.4208 42.1805 37.9278 42.306 38.4062C42.4315 38.8846 42.7159 39.3058 43.1123 39.6003C43.5087 39.8948 43.9934 40.045 44.4864 40.0262C44.9794 40.0073 45.4513 39.8205 45.8241 39.4966L54.0131 43.1303C54.1304 43.1823 54.2571 43.2091 54.3853 43.2091H64.6168C64.8858 44.9533 65.3097 49.498 63.0694 52.4616C61.855 54.0685 59.9796 54.9806 57.5059 55.1937L50.5498 46.1592C50.4636 46.0474 50.3531 45.9569 50.2265 45.8947C50.1 45.8324 49.9609 45.8001 49.82 45.8002H46.3635C46.1542 45.3566 45.8005 44.9976 45.3606 44.7824C44.9207 44.5671 44.4209 44.5085 43.9433 44.616C43.4658 44.7235 43.0389 44.9909 42.7331 45.374C42.4272 45.7571 42.2606 46.2333 42.2606 46.724C42.2606 47.2148 42.4272 47.6909 42.7331 48.074C43.0389 48.4572 43.4658 48.7245 43.9433 48.832C44.4209 48.9396 44.9207 48.8809 45.3606 48.6657C45.8005 48.4504 46.1542 48.0915 46.3635 47.6478H49.3648L56.1594 56.4692C56.1145 57.8377 55.5549 63.9214 49.2752 66.3954C48.3955 66.7512 47.4725 66.9881 46.5306 67.1V62.2622C46.9734 62.0523 47.3317 61.6976 47.5466 61.2563C47.7615 60.815 47.8202 60.3135 47.7129 59.8344C47.6057 59.3552 47.3389 58.927 46.9565 58.6201C46.5741 58.3132 46.0989 58.146 45.6091 58.146C45.1193 58.146 44.6441 58.3132 44.2618 58.6201C43.8794 58.927 43.6126 59.3552 43.5053 59.8344C43.3981 60.3135 43.4567 60.815 43.6716 61.2563C43.8866 61.6976 44.2449 62.0523 44.6877 62.2622V67.0827C40.7563 66.5482 38.3606 62.7524 38.3606 59.2105V10.7914C38.3606 7.25001 40.7563 3.45431 44.6877 2.92033V7.74087C44.2453 7.95071 43.8872 8.30533 43.6726 8.74635C43.4579 9.18738 43.3994 9.68853 43.5066 10.1673C43.6139 10.6462 43.8805 11.0741 44.2626 11.3807C44.6448 11.6874 45.1197 11.8545 45.6091 11.8545C46.0986 11.8545 46.5735 11.6874 46.9556 11.3807C47.3378 11.0741 47.6044 10.6462 47.7117 10.1673C47.8189 9.68853 47.7604 9.18738 47.5457 8.74635C47.331 8.30533 46.973 7.95071 46.5306 7.74087V2.90186C47.4726 3.01348 48.3956 3.25042 49.2752 3.60643C55.757 6.16051 56.1483 12.4253 56.1637 13.6189L49.3667 22.4445H46.3635C46.1542 22.0009 45.8005 21.642 45.3606 21.4267C44.9207 21.2115 44.4209 21.1528 43.9433 21.2603C43.4658 21.3679 43.0389 21.6352 42.7331 22.0184C42.4272 22.4015 42.2606 22.8776 42.2606 23.3684C42.2606 23.8591 42.4272 24.3352 42.7331 24.7184C43.0389 25.1015 43.4658 25.3689 43.9433 25.4764C44.4209 25.5839 44.9207 25.5252 45.3606 25.31C45.8005 25.0948 46.1542 24.7358 46.3635 24.2922H49.8176C49.9589 24.2927 50.0985 24.2605 50.2254 24.1983C50.3524 24.136 50.4634 24.0453 50.5498 23.9331L57.5728 14.8131C60.0109 15.0373 61.8624 15.9451 63.0657 17.5341C65.3416 20.5402 64.8668 25.2086 64.6014 26.8851H54.3853C54.2508 26.8851 54.1179 26.9147 53.9959 26.9717C53.874 27.0287 53.766 27.1118 53.6795 27.2152L51.3557 29.9953C51.1804 29.9468 50.9995 29.9212 50.8176 29.9189C50.3475 29.9156 49.889 30.0654 49.5112 30.3459C49.1333 30.6263 48.8565 31.0221 48.7223 31.4739C48.5882 31.9256 48.604 32.4089 48.7673 32.8508C48.9306 33.2928 49.2327 33.6697 49.6281 33.9247C50.0234 34.1797 50.4907 34.2992 50.9596 34.265C51.4284 34.2309 51.8736 34.045 52.228 33.7354C52.5825 33.4257 52.8271 33.009 52.925 32.548C53.0229 32.087 52.9689 31.6066 52.771 31.179L54.816 28.7327H64.9295C65.2802 29.2741 65.6273 29.7286 65.9418 30.1413C66.5407 30.7923 67.0007 31.5591 67.2936 32.3947C67.5865 33.2303 67.7062 34.117 67.6452 35.0006C67.6452 38.2125 66.7618 39.2053 65.7385 40.3588H65.7409Z" fill="white"/>
</svg>
