<svg width="192" height="48" viewBox="0 0 192 48" fill="none" xmlns="http://www.w3.org/2000/svg">
<g opacity="0.4">
<path d="M18.2647 25.4361H11.7376L15.2139 14.2569L18.2647 25.4361ZM8.35209 37.7559L10.5804 30.3942H19.3741L21.4589 37.7371H29.5879L21.5115 9.74186C21.0333 8.0876 20.0292 7.3241 18.2647 7.3241H6.73586V9.96809H7.69221C8.89721 9.96809 9.54753 10.4394 9.54753 11.3396C9.54753 11.9381 9.41364 12.4377 8.93547 13.7998L0.844727 37.7559H8.35209Z" fill="white"/>
<path d="M38.9935 37.7559V9.65703C38.9935 8.19129 38.1232 7.3241 36.6839 7.3241H29.5352V9.96809H30.0133C31.2136 9.96809 31.7252 10.4724 31.7252 11.6695V37.7559H38.9935Z" fill="white"/>
<path d="M51.3494 37.7559V9.65703C51.3494 8.19129 50.4647 7.3241 49.035 7.3241H41.9102V9.96809H42.3883C43.5933 9.96809 44.105 10.4724 44.105 11.6695V37.7559H51.3494Z" fill="white"/>
<path d="M64.027 10.1006C64.027 8.05988 62.492 6.80151 59.862 6.80151C57.2321 6.80151 55.6876 8.03632 55.6876 10.1006C55.6876 12.1649 57.2703 13.3997 59.862 13.3997C62.4538 13.3997 64.027 12.1743 64.027 10.1006ZM63.8883 37.7565V17.2738C63.8883 15.8128 63.0084 14.9503 61.5691 14.9503H54.5352V17.5424H54.9512C56.1514 17.5424 56.663 18.0891 56.663 19.2768V37.7565H63.8883Z" fill="white"/>
<path d="M79.8012 26.8041V31.239C78.5914 32.4691 77.1187 33.2232 75.8706 33.2232C74.6226 33.2232 74.1109 32.5916 74.1109 30.8667C74.1109 29.1417 74.4743 28.4112 75.775 27.9163C77.0701 27.3967 78.4208 27.0235 79.8012 26.8041ZM70.0273 21.4784C72.2485 20.3923 74.679 19.7849 77.1569 19.6969C79.1079 19.6969 79.8012 20.3803 79.8012 22.3738V22.8829C76.8413 23.3542 75.9136 23.5332 74.2448 23.8961C73.3101 24.0991 72.395 24.3813 71.5096 24.7398C68.588 25.8945 67.2061 28.119 67.2061 31.5359C67.2061 35.8719 69.1188 37.9644 73.035 37.9644C74.3672 37.9698 75.6881 37.7251 76.9274 37.2433C78.0514 36.7391 79.0965 36.0789 80.0308 35.2827V35.6032C80.0308 37.0171 80.7671 37.7382 82.2064 37.7382H88.8292V35.3016H88.504C87.256 35.3016 86.7969 34.7502 86.7969 33.2939V22.4304C86.7969 16.6381 84.7551 14.621 78.8688 14.621C77.0027 14.6301 75.1436 14.8467 73.3267 15.2667C71.6102 15.644 69.9567 16.2596 68.4158 17.0953L70.0273 21.4784Z" fill="white"/>
<path d="M99.3736 37.7562V22.3353C100.583 21.0109 101.827 20.4124 103.261 20.4124C104.796 20.4124 105.174 21.0109 105.174 23.3061V37.7562H112.394V22.2504C112.394 18.6403 112.131 17.4997 110.96 16.2743C110.003 15.2139 108.507 14.6766 106.599 14.6766C103.773 14.6766 101.784 15.5391 99.1106 18.004V17.0944C99.1106 15.6805 98.3599 14.95 96.8823 14.95H90.0205V17.5421H90.4365C91.6367 17.5421 92.1532 18.0888 92.1532 19.2765V37.7562H99.3736Z" fill="white"/>
<path d="M133.812 32.9681H123.736L133.372 19.6539V14.9409H118.261C116.549 14.9409 115.76 15.7138 115.76 17.4058V21.5533H118.443V21.1479C118.443 20.0969 118.998 19.5974 120.15 19.5974H125.343L115.607 33.0624V37.7754H133.778L133.812 32.9681Z" fill="white"/>
<path d="M171.716 37.1766V11.3918C171.716 9.33697 170.975 8.64416 168.952 8.64416H162.826V11.5426H163.195C164.591 11.5426 164.863 11.8537 164.863 13.5127V37.1766H171.716ZM174.738 37.1766H181.537V17.0946C181.537 15.0774 180.748 14.3516 178.754 14.3516H174.738V37.1766ZM161.86 37.1766V14.3704H157.829C155.835 14.3704 155.056 15.0962 155.056 17.1134V37.1766H161.86ZM187.974 24.0698C187.974 35.4328 179.682 43.6947 168.297 43.6947C156.911 43.6947 148.601 35.4328 148.601 24.0698C148.601 12.7068 156.907 4.44488 168.297 4.44488C179.687 4.44488 187.974 12.7539 187.974 24.0698ZM192 24.0698C192 10.7084 181.858 0.702759 168.297 0.702759C154.736 0.702759 144.584 10.7084 144.584 24.0698C144.584 37.4311 154.726 47.4321 168.297 47.4321C181.867 47.4321 192 37.4641 192 24.0698Z" fill="white"/>
</g>
</svg>
