<svg width="192" height="48" viewBox="0 0 192 48" fill="none" xmlns="http://www.w3.org/2000/svg">
<g opacity="0.4">
<path d="M17.42 25.6318H10.8929L14.3692 14.4526L17.42 25.6318ZM7.50737 37.9516L9.73567 30.5899H18.5293L20.6142 37.9327H28.7432L20.6668 9.93754C20.1886 8.28328 19.1844 7.51978 17.42 7.51978H5.89113V10.1638H6.84748C8.05249 10.1638 8.70281 10.6351 8.70281 11.5352C8.70281 12.1338 8.56892 12.6334 8.09074 13.9954L0 37.9516H7.50737Z" fill="white"/>
<path d="M38.1488 37.9516V9.85271C38.1488 8.38697 37.2785 7.51978 35.8392 7.51978H28.6904V10.1638H29.1686C30.3688 10.1638 30.8805 10.6681 30.8805 11.8652V37.9516H38.1488Z" fill="white"/>
<path d="M50.5046 37.9516V9.85271C50.5046 8.38697 49.62 7.51978 48.1903 7.51978H41.0654V10.1638H41.5436C42.7486 10.1638 43.2603 10.6681 43.2603 11.8652V37.9516H50.5046Z" fill="white"/>
<path d="M63.1822 10.2964C63.1822 8.25568 61.6473 6.99731 59.0173 6.99731C56.3873 6.99731 54.8428 8.23212 54.8428 10.2964C54.8428 12.3607 56.4256 13.5955 59.0173 13.5955C61.609 13.5955 63.1822 12.3701 63.1822 10.2964ZM63.0436 37.9523V17.4696C63.0436 16.0086 62.1637 15.1461 60.7244 15.1461H53.6904V17.7382H54.1064C55.3067 17.7382 55.8183 18.2849 55.8183 19.4726V37.9523H63.0436Z" fill="white"/>
<path d="M78.9565 26.9999V31.4348C77.7467 32.6649 76.2739 33.419 75.0259 33.419C73.7778 33.419 73.2662 32.7874 73.2662 31.0625C73.2662 29.3375 73.6296 28.607 74.9302 28.1121C76.2253 27.5925 77.5761 27.2193 78.9565 26.9999ZM69.1826 21.6742C71.4038 20.5881 73.8343 19.9807 76.3122 19.8927C78.2631 19.8927 78.9565 20.5761 78.9565 22.5696V23.0787C75.9966 23.55 75.0689 23.729 73.4001 24.0919C72.4654 24.2949 71.5502 24.5771 70.6649 24.9356C67.7433 26.0903 66.3613 28.3148 66.3613 31.7317C66.3613 36.0677 68.274 38.1602 72.1903 38.1602C73.5224 38.1656 74.8434 37.9209 76.0827 37.4391C77.2067 36.9349 78.2518 36.2747 79.186 35.4785V35.799C79.186 37.2129 79.9224 37.934 81.3617 37.934H87.9845V35.4974H87.6593C86.4113 35.4974 85.9522 34.946 85.9522 33.4897V22.6262C85.9522 16.8339 83.9104 14.8168 78.0241 14.8168C76.1579 14.8259 74.2988 15.0425 72.482 15.4625C70.7654 15.8398 69.112 16.4554 67.5711 17.2911L69.1826 21.6742Z" fill="white"/>
<path d="M98.5289 37.952V22.5311C99.7387 21.2067 100.982 20.6082 102.416 20.6082C103.951 20.6082 104.329 21.2067 104.329 23.5019V37.952H111.55V22.4462C111.55 18.8361 111.287 17.6955 110.115 16.4701C109.159 15.4097 107.662 14.8724 105.754 14.8724C102.928 14.8724 100.939 15.7349 98.2659 18.1998V17.2902C98.2659 15.8763 97.5152 15.1458 96.0376 15.1458H89.1758V17.7379H89.5918C90.792 17.7379 91.3084 18.2846 91.3084 19.4723V37.952H98.5289Z" fill="white"/>
<path d="M132.967 33.1639H122.892L132.527 19.8497V15.1367H117.417C115.705 15.1367 114.916 15.9096 114.916 17.6016V21.7491H117.598V21.3437C117.598 20.2927 118.153 19.7932 119.305 19.7932H124.498L114.763 33.2582V37.9712H132.933L132.967 33.1639Z" fill="white"/>
<path d="M170.871 37.3724V11.5876C170.871 9.53277 170.13 8.83996 168.107 8.83996H161.982V11.7384H162.35C163.746 11.7384 164.019 12.0495 164.019 13.7085V37.3724H170.871ZM173.893 37.3724H180.693V17.2904C180.693 15.2732 179.904 14.5474 177.91 14.5474H173.893V37.3724ZM161.016 37.3724V14.5662H156.985C154.991 14.5662 154.212 15.292 154.212 17.3092V37.3724H161.016ZM187.129 24.2656C187.129 35.6286 178.838 43.8905 167.452 43.8905C156.067 43.8905 147.756 35.6286 147.756 24.2656C147.756 12.9026 156.062 4.64068 167.452 4.64068C178.842 4.64068 187.129 12.9497 187.129 24.2656ZM191.155 24.2656C191.155 10.9043 181.013 0.89856 167.452 0.89856C153.891 0.89856 143.74 10.9043 143.74 24.2656C143.74 37.6269 153.882 47.6279 167.452 47.6279C181.023 47.6279 191.155 37.6599 191.155 24.2656Z" fill="white"/>
</g>
</svg>
