<svg width="68" height="68" viewBox="0 0 68 68" fill="none" xmlns="http://www.w3.org/2000/svg">
<g clip-path="url(#clip0_901_82)">
<path d="M61.8608 40.6307C61.8582 38.3236 59.9887 36.4541 57.6816 36.4515H40.9649C38.6578 36.4541 36.7883 38.3236 36.7858 40.6307V42.0238H24.2483V30.8793H31.9101C36.4186 30.8877 40.4221 27.9976 41.8335 23.7156C43.6366 18.2456 40.6639 12.3497 35.1939 10.5467C33.198 6.66172 29.488 3.94448 25.182 3.21377C17.6331 1.93261 10.475 7.01373 9.194 14.5626C5.71459 15.6589 3.34953 18.8868 3.35242 22.5348C3.35633 27.1472 7.09847 30.8831 11.7108 30.8793H21.4621V54.5628C21.4627 55.3318 22.0862 55.9548 22.8552 55.9543H36.7858V57.3474C36.7883 59.6545 38.6578 61.524 40.9649 61.5266H57.6816C59.9887 61.524 61.8582 59.6545 61.8608 57.3474V51.7752C61.8596 50.6998 61.4414 49.7295 60.7738 48.989C61.4414 48.2486 61.8596 47.2783 61.8608 46.2029V40.6307ZM11.7108 28.0932C9.02208 28.0968 6.71551 26.1776 6.23002 23.5331C5.67514 20.5101 7.67579 17.6098 10.6988 17.0549C11.3071 16.9413 11.7677 16.4407 11.8306 15.8251C12.3762 10.144 17.148 5.80671 22.8552 5.80433C27.1937 5.82422 31.1283 8.35424 32.9467 12.2935C33.1217 12.6696 33.4546 12.9485 33.8554 13.0553C37.2291 13.9338 39.5807 16.9841 39.5717 20.4704C39.561 24.691 36.1307 28.1039 31.9101 28.0932H11.7108ZM36.7858 51.7752V53.1682H24.2483V44.8099H36.7858V46.2029C36.7869 47.2783 37.2051 48.2486 37.8727 48.989C37.2051 49.7295 36.7869 50.6998 36.7858 51.7752ZM59.0746 57.3474C59.0731 58.1162 58.4504 58.7389 57.6816 58.7404H40.9649C40.1961 58.7389 39.5734 58.1162 39.5719 57.3474V51.7752C39.5734 51.0064 40.1961 50.3836 40.9649 50.3821H57.6816C58.4504 50.3836 59.0731 51.0064 59.0746 51.7752V57.3474ZM59.0746 46.2029C59.0731 46.9717 58.4504 47.5945 57.6816 47.596H40.9649C40.1961 47.5945 39.5734 46.9717 39.5719 46.2029V40.6307C39.5734 39.8619 40.1961 39.2392 40.9649 39.2377H57.6816C58.4504 39.2392 59.0731 39.8619 59.0746 40.6307V46.2029Z" fill="white" stroke="#15151D" stroke-opacity="0.81"/>
</g>
<defs>
<clipPath id="clip0_901_82">
<rect width="68" height="68" fill="white"/>
</clipPath>
</defs>
</svg>
