<svg width="68" height="68" viewBox="0 0 68 68" fill="none" xmlns="http://www.w3.org/2000/svg">
<path d="M12.6619 64.4298H38.3387C39.6234 64.428 40.8549 63.9164 41.7627 63.0074C42.6704 62.0983 43.1803 60.8661 43.1803 59.5814V48.7014H44.2003C44.2964 48.7014 44.3916 48.6824 44.4803 48.6454C44.5691 48.6084 44.6496 48.5542 44.7172 48.4859C44.7849 48.4176 44.8383 48.3366 44.8745 48.2476C44.9107 48.1585 44.9288 48.0631 44.9279 47.967V45.8726C45.3462 45.7342 45.7531 45.5637 46.1451 45.3626L47.6343 46.845C47.774 46.9769 47.959 47.0499 48.1511 47.049C48.3426 47.0539 48.5283 46.983 48.6679 46.8518L51.0887 44.4242C51.2168 44.2839 51.2878 44.1008 51.2878 43.9108C51.2878 43.7209 51.2168 43.5377 51.0887 43.3974L49.6403 41.915C49.8426 41.5213 50.0132 41.112 50.1503 40.691H52.2447C52.3408 40.6919 52.4362 40.6738 52.5252 40.6376C52.6143 40.6014 52.6953 40.548 52.7636 40.4803C52.8319 40.4127 52.8861 40.3322 52.9231 40.2434C52.9601 40.1547 52.9791 40.0596 52.9791 39.9634V36.5634C52.9791 36.4673 52.9601 36.3721 52.9231 36.2834C52.8861 36.1947 52.8319 36.1142 52.7636 36.0465C52.6953 35.9789 52.6143 35.9254 52.5252 35.8892C52.4362 35.8531 52.3408 35.8349 52.2447 35.8358H50.1231C49.9961 35.4086 49.8347 34.9925 49.6403 34.5914L51.1295 33.0954C51.2576 32.9551 51.3286 32.772 51.3286 32.582C51.3286 32.3921 51.2576 32.2089 51.1295 32.0686L48.6747 29.6478C48.5344 29.5198 48.3513 29.4488 48.1613 29.4488C47.9713 29.4488 47.7882 29.5198 47.6479 29.6478L46.1655 31.137C45.7712 30.9359 45.362 30.7654 44.9415 30.627V28.5598C44.9462 28.4603 44.9304 28.3609 44.895 28.2677C44.8597 28.1745 44.8056 28.0896 44.7361 28.0182C44.6667 27.9468 44.5832 27.8904 44.4911 27.8526C44.3989 27.8148 44.2999 27.7963 44.2003 27.7982H43.1803V8.41822C43.1803 7.13353 42.6704 5.90135 41.7627 4.99229C40.8549 4.08323 39.6234 3.57163 38.3387 3.56982H12.6619C11.3772 3.57163 10.1458 4.08323 9.23797 4.99229C8.33019 5.90135 7.82031 7.13353 7.82031 8.41822V59.5814C7.82031 60.8661 8.33019 62.0983 9.23797 63.0074C10.1458 63.9164 11.3772 64.428 12.6619 64.4298ZM43.5815 29.1582V31.1098C43.5918 31.2652 43.6495 31.4137 43.7467 31.5352C43.844 31.6568 43.9762 31.7457 44.1255 31.7898C44.737 31.9334 45.3253 32.1623 45.8731 32.4698C46.0151 32.5564 46.1813 32.5946 46.3468 32.5787C46.5124 32.5627 46.6683 32.4935 46.7911 32.3814L48.1511 31.0214L49.6811 32.5514L48.3211 33.9114C48.2163 34.0309 48.1503 34.1796 48.1321 34.3375C48.1139 34.4954 48.1442 34.6552 48.2191 34.7954C48.5562 35.3647 48.8061 35.9813 48.9603 36.6246C49.0045 36.7739 49.0933 36.9061 49.2149 37.0034C49.3365 37.1007 49.485 37.1583 49.6403 37.1686H51.5919V39.331H49.6403C49.485 39.3413 49.3365 39.399 49.2149 39.4963C49.0933 39.5935 49.0045 39.7257 48.9603 39.875C48.8055 40.4914 48.5627 41.0822 48.2395 41.6294C48.1554 41.7714 48.1193 41.9367 48.1365 42.1008C48.1536 42.2649 48.2231 42.4191 48.3347 42.5406L49.6947 43.9006L48.1647 45.4306L46.8047 44.0706C46.6877 43.9594 46.5383 43.8883 46.3782 43.8675C46.2181 43.8467 46.0555 43.8774 45.9139 43.955C45.3612 44.2848 44.7633 44.5323 44.1391 44.6894C43.9898 44.7336 43.8576 44.8224 43.7603 44.944C43.6631 45.0656 43.6054 45.2141 43.5951 45.3694V47.321H41.4191V45.3898C41.419 45.311 41.4052 45.2327 41.3783 45.1586C41.3367 45.0467 41.2695 44.946 41.1822 44.8646C41.0948 44.7831 40.9897 44.7231 40.8751 44.6894C40.2636 44.5458 39.6753 44.3169 39.1275 44.0094C38.9855 43.9228 38.8193 43.8847 38.6538 43.9006C38.4882 43.9165 38.3324 43.9857 38.2095 44.0978L36.8495 45.4578L35.3195 43.9278L36.6795 42.5678C36.7844 42.4483 36.8503 42.2997 36.8685 42.1417C36.8867 41.9838 36.8564 41.8241 36.7815 41.6838C36.4492 41.1194 36.1996 40.5103 36.0403 39.875C35.9962 39.7257 35.9073 39.5935 35.7857 39.4963C35.6642 39.399 35.5157 39.3413 35.3603 39.331H33.4087V37.1686H35.3603C35.5157 37.1583 35.6642 37.1007 35.7857 37.0034C35.9073 36.9061 35.9962 36.7739 36.0403 36.6246C36.1982 36.0093 36.4408 35.4188 36.7611 34.8702C36.8525 34.7339 36.8979 34.5719 36.8905 34.4079C36.8832 34.2439 36.8235 34.0866 36.7203 33.959L35.3603 32.599L36.8903 31.069L38.2503 32.429C38.3679 32.5393 38.5172 32.6098 38.6771 32.6305C38.8369 32.6513 38.9993 32.6212 39.1411 32.5446C39.6938 32.2148 40.2917 31.9674 40.9159 31.8102C41.0305 31.7765 41.1356 31.7165 41.223 31.6351C41.3103 31.5536 41.3775 31.453 41.4191 31.341C41.446 31.2669 41.4598 31.1887 41.4599 31.1098V29.1582H43.6223H43.5815ZM9.18031 8.41822C9.18031 7.49422 9.5469 6.60796 10.1996 5.95395C10.8524 5.29995 11.7379 4.93163 12.6619 4.92982H38.3387C39.2627 4.93163 40.1483 5.29995 40.801 5.95395C41.4537 6.60796 41.8203 7.49422 41.8203 8.41822V12.0698H9.18031V8.41822ZM9.18031 13.4298H41.8203V27.7982H40.8003C40.7007 27.7963 40.6017 27.8148 40.5096 27.8526C40.4174 27.8904 40.334 27.9468 40.2645 28.0182C40.195 28.0896 40.1409 28.1745 40.1056 28.2677C40.0703 28.3609 40.0544 28.4603 40.0591 28.5598V30.5998C39.6409 30.7382 39.2339 30.9087 38.8419 31.1098L37.3527 29.6274C37.213 29.4956 37.028 29.4226 36.8359 29.4234C36.6475 29.4345 36.467 29.5033 36.3191 29.6206L33.8983 32.0414C33.7698 32.1829 33.6986 32.3671 33.6986 32.5582C33.6986 32.7493 33.7698 32.9336 33.8983 33.075L35.3603 34.5846C35.158 34.9784 34.9874 35.3877 34.8503 35.8086H32.7831C32.687 35.8077 32.5916 35.8259 32.5026 35.862C32.4135 35.8982 32.3325 35.9517 32.2642 36.0193C32.1959 36.087 32.1417 36.1675 32.1047 36.2562C32.0678 36.3449 32.0487 36.4401 32.0487 36.5362V39.9362C32.0487 40.0323 32.0678 40.1275 32.1047 40.2162C32.1417 40.305 32.1959 40.3855 32.2642 40.4531C32.3325 40.5208 32.4135 40.5742 32.5026 40.6104C32.5916 40.6466 32.687 40.6647 32.7831 40.6638H34.8775C35.0045 41.091 35.166 41.5072 35.3603 41.9082L33.8711 43.3974C33.7426 43.5389 33.6714 43.7231 33.6714 43.9142C33.6714 44.1053 33.7426 44.2896 33.8711 44.431L36.2987 46.8518C36.439 46.9799 36.6221 47.0509 36.8121 47.0509C37.0021 47.0509 37.1852 46.9799 37.3255 46.8518L38.8079 45.3626C39.2022 45.5638 39.6114 45.7343 40.0319 45.8726V47.967C40.0308 48.0667 40.0502 48.1655 40.0889 48.2573C40.1276 48.3492 40.1847 48.4321 40.2567 48.501C40.3288 48.5698 40.4142 48.6231 40.5077 48.6576C40.6012 48.6921 40.7008 48.707 40.8003 48.7014H41.8203V50.3198H9.18031V13.4298ZM9.18031 51.6798H41.8203V59.5814C41.8203 60.5054 41.4537 61.3917 40.801 62.0457C40.1483 62.6997 39.2627 63.068 38.3387 63.0698H12.6619C11.7379 63.068 10.8524 62.6997 10.1996 62.0457C9.5469 61.3917 9.18031 60.5054 9.18031 59.5814V51.6798Z" fill="white"/>
<path d="M25.5003 61.7506C26.3667 61.7506 27.2137 61.4936 27.934 61.0121C28.6543 60.5306 29.2155 59.8463 29.5468 59.0457C29.878 58.2451 29.9644 57.3642 29.7949 56.5145C29.6253 55.6649 29.2076 54.8846 28.5944 54.2724C27.9813 53.6603 27.2004 53.2437 26.3505 53.0755C25.5005 52.9073 24.6198 52.995 23.8197 53.3275C23.0197 53.66 22.3362 54.2223 21.8558 54.9434C21.3754 55.6644 21.1198 56.5118 21.1211 57.3782C21.1247 58.5379 21.5874 59.649 22.4081 60.4684C23.2288 61.2878 24.3406 61.7488 25.5003 61.7506ZM25.5003 54.359C26.0974 54.359 26.6812 54.5361 27.1777 54.8678C27.6742 55.1996 28.0612 55.6711 28.2897 56.2228C28.5182 56.7745 28.578 57.3815 28.4615 57.9672C28.345 58.5529 28.0574 59.0908 27.6352 59.5131C27.213 59.9353 26.675 60.2229 26.0893 60.3394C25.5036 60.4559 24.8966 60.3961 24.3449 60.1676C23.7932 59.939 23.3217 59.5521 22.9899 59.0556C22.6582 58.5591 22.4811 57.9753 22.4811 57.3782C22.4811 56.5774 22.7992 55.8095 23.3654 55.2433C23.9316 54.6771 24.6996 54.359 25.5003 54.359Z" fill="white"/>
<path d="M29.75 7.82007H21.25V9.18007H29.75V7.82007Z" fill="white"/>
<path d="M38.0781 38.2498C38.0781 39.1227 38.337 39.9759 38.8219 40.7017C39.3068 41.4274 39.9961 41.9931 40.8025 42.3271C41.6089 42.6611 42.4962 42.7485 43.3523 42.5782C44.2084 42.4079 44.9947 41.9876 45.6119 41.3704C46.2291 40.7532 46.6494 39.9669 46.8197 39.1108C46.99 38.2547 46.9026 37.3674 46.5686 36.561C46.2346 35.7546 45.6689 35.0653 44.9432 34.5804C44.2174 34.0955 43.3642 33.8366 42.4913 33.8366C41.3214 33.8384 40.2 34.304 39.3727 35.1312C38.5455 35.9585 38.0799 37.0799 38.0781 38.2498ZM42.4913 35.1966C43.0952 35.1966 43.6855 35.3757 44.1876 35.7112C44.6897 36.0467 45.081 36.5235 45.3121 37.0814C45.5432 37.6393 45.6037 38.2532 45.4859 38.8455C45.368 39.4377 45.0773 39.9818 44.6503 40.4088C44.2233 40.8358 43.6792 41.1265 43.087 41.2444C42.4947 41.3622 41.8808 41.3017 41.3229 41.0706C40.765 40.8395 40.2882 40.4482 39.9527 39.9461C39.6172 39.444 39.4381 38.8537 39.4381 38.2498C39.4381 37.8483 39.5173 37.4507 39.6712 37.0798C39.825 36.709 40.0506 36.3721 40.3348 36.0885C40.619 35.8049 40.9564 35.5801 41.3276 35.4271C41.6988 35.274 42.0966 35.1957 42.4981 35.1966H42.4913ZM45.0957 23.4598H46.8569C46.9655 23.7884 47.0973 24.1088 47.2513 24.4186L46.0001 25.6698C45.8745 25.8086 45.8049 25.9892 45.8049 26.1764C45.8049 26.3637 45.8745 26.5442 46.0001 26.683L48.1013 28.7842C48.243 28.9095 48.4256 28.9786 48.6147 28.9786C48.8038 28.9786 48.9864 28.9095 49.1281 28.7842L50.3725 27.5398C50.6837 27.691 51.0039 27.8227 51.3313 27.9342V29.6954C51.3395 29.8846 51.4179 30.064 51.5512 30.1985C51.6844 30.333 51.863 30.4131 52.0521 30.423H55.0305C55.2197 30.4148 55.3991 30.3365 55.5336 30.2032C55.6681 30.0699 55.7482 29.8913 55.7581 29.7022V27.941C56.0865 27.8319 56.4068 27.7001 56.7169 27.5466L57.9681 28.7978C58.108 28.924 58.2897 28.9938 58.4781 28.9938C58.6665 28.9938 58.8482 28.924 58.9881 28.7978L61.0961 26.6898C61.2237 26.5506 61.2945 26.3687 61.2945 26.1798C61.2945 25.991 61.2237 25.809 61.0961 25.6698L59.8381 24.4186C59.9922 24.1088 60.124 23.7884 60.2325 23.4598H62.0005C62.189 23.4515 62.3676 23.3729 62.501 23.2395C62.6344 23.1061 62.713 22.9275 62.7213 22.739V19.7606C62.7131 19.5732 62.6355 19.3956 62.5035 19.2624C62.3715 19.1291 62.1946 19.0498 62.0073 19.0398H60.2393C60.131 18.7102 59.9968 18.3896 59.8381 18.081L61.0825 16.8298C61.2131 16.6921 61.2859 16.5096 61.2859 16.3198C61.2859 16.1301 61.2131 15.9475 61.0825 15.8098L58.9745 13.695C58.8357 13.5694 58.6552 13.4998 58.4679 13.4998C58.2807 13.4998 58.1001 13.5694 57.9613 13.695L56.7169 14.9598C56.4084 14.8011 56.0878 14.667 55.7581 14.5586V12.7906C55.7498 12.6021 55.6712 12.4236 55.5378 12.2902C55.4044 12.1568 55.2258 12.0781 55.0373 12.0698H52.0589C51.8704 12.0781 51.6919 12.1568 51.5585 12.2902C51.4251 12.4236 51.3464 12.6021 51.3381 12.7906V14.5586C51.0096 14.6672 50.6892 14.799 50.3793 14.953L49.1349 13.7086C48.9965 13.5796 48.8142 13.5078 48.6249 13.5078C48.4356 13.5078 48.2534 13.5796 48.1149 13.7086L46.0069 15.8098C45.8793 15.949 45.8086 16.131 45.8086 16.3198C45.8086 16.5087 45.8793 16.6906 46.0069 16.8298L47.2513 18.081C47.0949 18.3898 46.9631 18.7104 46.8569 19.0398H45.0957C44.906 19.0465 44.7258 19.1244 44.591 19.2579C44.4561 19.3915 44.3766 19.571 44.3681 19.7606V22.739C44.3766 22.9286 44.4561 23.1081 44.591 23.2417C44.7258 23.3753 44.906 23.4532 45.0957 23.4598ZM45.7281 20.3998H47.3329C47.4894 20.39 47.639 20.3317 47.7609 20.233C47.8828 20.1343 47.9708 20.0001 48.0129 19.849C48.1563 19.3233 48.3763 18.8215 48.6657 18.3598C48.7407 18.2192 48.7704 18.0588 48.751 17.9006C48.7315 17.7425 48.6637 17.5941 48.5569 17.4758L47.4213 16.3198L48.6249 15.1162L49.7537 16.245C49.8686 16.3576 50.0169 16.4297 50.1764 16.4506C50.3359 16.4714 50.4978 16.4399 50.6377 16.3606C51.1116 16.0825 51.622 15.872 52.1541 15.735C52.3039 15.6918 52.4367 15.6031 52.5341 15.4814C52.6315 15.3596 52.6888 15.2107 52.6981 15.055V13.4298H54.3981V15.0346C54.4079 15.1911 54.4662 15.3407 54.5649 15.4626C54.6636 15.5845 54.7978 15.6725 54.9489 15.7146C55.4823 15.851 55.9931 16.064 56.4653 16.347C56.6054 16.4215 56.7652 16.4504 56.9224 16.4297C57.0797 16.4089 57.2266 16.3396 57.3425 16.2314L58.4781 15.1162L59.6817 16.3198L58.5529 17.4486C58.4371 17.5672 58.3632 17.7204 58.3423 17.8848C58.3214 18.0493 58.3548 18.2161 58.4373 18.3598C58.7165 18.8307 58.9272 19.339 59.0629 19.8694C59.1059 20.02 59.1942 20.1537 59.3159 20.2522C59.4376 20.3508 59.5867 20.4095 59.7429 20.4202H61.3477V22.1202H59.7633C59.6077 22.1296 59.4587 22.1869 59.337 22.2843C59.2152 22.3817 59.1266 22.5144 59.0833 22.6642C58.9477 23.1968 58.737 23.7073 58.4577 24.1806C58.3793 24.3191 58.3475 24.4792 58.3671 24.6372C58.3867 24.7952 58.4566 24.9427 58.5665 25.0578L59.7021 26.1934L58.4781 27.3766L57.3357 26.241C57.2174 26.1294 57.0663 26.0586 56.9048 26.039C56.7433 26.0194 56.5797 26.0521 56.4381 26.1322C55.9689 26.4164 55.4602 26.6295 54.9285 26.7646C54.7775 26.8067 54.6432 26.8948 54.5445 27.0167C54.4458 27.1385 54.3875 27.2881 54.3777 27.4446V29.0494H52.6981V27.465C52.6888 27.3094 52.6315 27.1604 52.5341 27.0387C52.4367 26.9169 52.3039 26.8283 52.1541 26.785C51.6255 26.6505 51.1193 26.4397 50.6513 26.1594C50.5108 26.081 50.3493 26.0487 50.1895 26.067C50.0297 26.0853 49.8796 26.1533 49.7605 26.2614L48.6249 27.397L47.4213 26.1934L48.5637 25.051C48.6683 24.9341 48.7342 24.7878 48.7525 24.632C48.7707 24.4762 48.7404 24.3186 48.6657 24.1806C48.3815 23.709 48.1684 23.1981 48.0333 22.6642C47.9901 22.5144 47.9015 22.3817 47.7797 22.2843C47.6579 22.1869 47.509 22.1296 47.3533 22.1202H45.7281V20.3998Z" fill="white"/>
<path d="M53.5492 25.1602C54.3283 25.1643 55.091 24.9367 55.7405 24.5063C56.3899 24.076 56.8969 23.4624 57.1969 22.7434C57.4969 22.0244 57.5764 21.2324 57.4254 20.4681C57.2744 19.7038 56.8997 19.0016 56.3488 18.4507C55.7979 17.8998 55.0957 17.525 54.3314 17.374C53.567 17.223 52.7751 17.3026 52.0561 17.6026C51.3371 17.9026 50.7234 18.4095 50.2931 19.059C49.8628 19.7084 49.6352 20.4712 49.6392 21.2502C49.6446 22.2856 50.0582 23.277 50.7904 24.0091C51.5225 24.7412 52.5139 25.1549 53.5492 25.1602ZM53.5492 18.6662C54.0579 18.6622 54.5563 18.8092 54.9813 19.0886C55.4064 19.3679 55.739 19.7671 55.9371 20.2357C56.1352 20.7042 56.1898 21.2209 56.094 21.7205C55.9982 22.2201 55.7564 22.68 55.3991 23.042C55.0418 23.4041 54.5852 23.652 54.0869 23.7544C53.5887 23.8567 53.0712 23.809 52.6001 23.6171C52.129 23.4253 51.7255 23.098 51.4405 22.6766C51.1555 22.2553 51.0019 21.7589 50.9992 21.2502C51.001 20.5726 51.2695 19.9229 51.7468 19.4418C52.2241 18.9607 52.8716 18.687 53.5492 18.6798V18.6662ZM32.51 33.4494C32.5049 33.254 32.4273 33.0674 32.2924 32.9258L30.4972 31.1306C30.7628 30.6315 30.9792 30.1077 31.1432 29.5666H33.6864C33.7838 29.5666 33.8801 29.5475 33.9701 29.5102C34.06 29.473 34.1417 29.4184 34.2105 29.3495C34.2794 29.2807 34.3339 29.199 34.3712 29.1091C34.4084 29.0192 34.4276 28.9228 34.4276 28.8254V24.827C34.4276 24.73 34.4084 24.634 34.3711 24.5444C34.3337 24.4549 34.279 24.3736 34.2101 24.3053C34.1412 24.237 34.0594 24.1831 33.9696 24.1466C33.8797 24.1101 33.7834 24.0917 33.6864 24.0926H31.1432C30.9804 23.5511 30.764 23.0272 30.4972 22.5286L32.2924 20.7266C32.3622 20.6586 32.4175 20.5771 32.4549 20.4871C32.4923 20.3971 32.511 20.3005 32.51 20.203C32.5032 20.0099 32.4258 19.826 32.2924 19.6862L29.4636 16.8574C29.3979 16.7865 29.3178 16.7304 29.2287 16.6929C29.1396 16.6554 29.0435 16.6373 28.9468 16.6398C28.7537 16.6466 28.5698 16.7241 28.43 16.8574L26.6348 18.6526C26.1333 18.387 25.6073 18.1707 25.064 18.0066V15.4634C25.064 15.2687 24.9866 15.0819 24.8489 14.9441C24.7112 14.8064 24.5244 14.729 24.3296 14.729H20.3244C20.2274 14.7281 20.1312 14.7465 20.0413 14.783C19.9514 14.8195 19.8696 14.8734 19.8007 14.9417C19.7318 15.01 19.6771 15.0913 19.6398 15.1808C19.6024 15.2704 19.5832 15.3664 19.5832 15.4634V18.0066C19.0426 18.1719 18.5189 18.3882 18.0192 18.6526L16.224 16.8574C16.0842 16.7204 15.8962 16.6436 15.7004 16.6436C15.5046 16.6436 15.3166 16.7204 15.1768 16.8574L12.3548 19.6794C12.2853 19.7477 12.2303 19.8292 12.1929 19.9192C12.1555 20.0091 12.1366 20.1056 12.1372 20.203C12.1399 20.3977 12.215 20.5844 12.348 20.7266L14.15 22.5286C13.8746 23.0274 13.6469 23.551 13.47 24.0926H10.9608C10.8621 24.089 10.7637 24.1053 10.6714 24.1405C10.5792 24.1758 10.4949 24.2293 10.4238 24.2979C10.3527 24.3664 10.2962 24.4486 10.2576 24.5396C10.219 24.6305 10.1992 24.7283 10.1992 24.827V28.8254C10.1992 29.022 10.2773 29.2105 10.4163 29.3495C10.5553 29.4885 10.7438 29.5666 10.9404 29.5666H13.4768C13.6562 30.1073 13.8838 30.6307 14.1568 31.1306L12.3616 32.9258C12.2918 32.9939 12.2366 33.0753 12.1992 33.1653C12.1618 33.2553 12.143 33.352 12.144 33.4494C12.1479 33.6439 12.2229 33.8301 12.3548 33.973L15.1904 36.8018C15.3291 36.9385 15.5159 37.015 15.7106 37.015C15.9053 37.015 16.0921 36.9385 16.2308 36.8018L18.026 35.0066C18.5272 35.277 19.0504 35.5045 19.59 35.6866V38.2298C19.5918 38.4252 19.6707 38.612 19.8095 38.7496C19.9483 38.8871 20.1358 38.9642 20.3312 38.9642H24.3296C24.5244 38.9642 24.7112 38.8869 24.8489 38.7491C24.9866 38.6114 25.064 38.4246 25.064 38.2298V35.6526C25.6063 35.4717 26.1318 35.2442 26.6348 34.9726L28.43 36.7678C28.5687 36.9045 28.7555 36.981 28.9502 36.981C29.1449 36.981 29.3317 36.9045 29.4704 36.7678L32.2924 34.0002C32.3653 33.9288 32.4223 33.8429 32.4598 33.748C32.4973 33.6531 32.5144 33.5514 32.51 33.4494ZM28.9468 35.401L27.2536 33.7078C27.1382 33.5911 26.9867 33.5168 26.8238 33.4971C26.6608 33.4773 26.496 33.5133 26.356 33.599C25.7017 33.9882 24.9937 34.2791 24.2548 34.4626C24.1015 34.5016 23.9646 34.5887 23.8643 34.711C23.7639 34.8334 23.7054 34.9846 23.6972 35.1426V37.5362H20.9432V35.1766C20.935 35.0186 20.8765 34.8674 20.7762 34.745C20.6758 34.6227 20.539 34.5356 20.3856 34.4966C19.6493 34.3119 18.9438 34.021 18.2912 33.633C18.1513 33.5473 17.9864 33.5113 17.8235 33.5311C17.6605 33.5508 17.509 33.6251 17.3936 33.7418L15.7004 35.435L13.7556 33.4834L15.442 31.7902C15.5577 31.6744 15.6318 31.5235 15.6527 31.3611C15.6736 31.1987 15.6402 31.034 15.5576 30.8926C15.1616 30.2312 14.8682 29.5136 14.6872 28.7642C14.6466 28.6054 14.5545 28.4645 14.4253 28.3637C14.2961 28.2628 14.1371 28.2075 13.9732 28.2066H11.5592V25.4866H13.9528C14.1164 25.4846 14.2749 25.4289 14.4038 25.3282C14.5328 25.2275 14.6252 25.0873 14.6668 24.929C14.8498 24.1889 15.1432 23.4805 15.5372 22.8278C15.6198 22.6865 15.6532 22.5217 15.6323 22.3593C15.6114 22.197 15.5373 22.0461 15.4216 21.9302L13.7352 20.2438L15.68 18.2922L17.3732 19.9854C17.4886 20.1022 17.6401 20.1764 17.8031 20.1962C17.966 20.2159 18.1309 20.18 18.2708 20.0942C18.9332 19.6922 19.65 19.3876 20.3992 19.1898C20.5536 19.1529 20.6917 19.0664 20.7924 18.9436C20.893 18.8208 20.9508 18.6685 20.9568 18.5098V16.089H23.7108V18.4758C23.7179 18.6342 23.7761 18.786 23.8766 18.9085C23.9771 19.0311 24.1145 19.1178 24.2684 19.1558C25.0066 19.3447 25.7141 19.6378 26.3696 20.0262C26.5096 20.112 26.6744 20.1479 26.8374 20.1282C27.0003 20.1084 27.1518 20.0342 27.2672 19.9174L28.9604 18.2242L30.9052 20.1758L29.1984 21.8962C29.0838 22.0129 29.011 22.1642 28.9913 22.3265C28.9716 22.4889 29.0062 22.6532 29.0896 22.7938C29.4809 23.4479 29.7741 24.1559 29.96 24.895C29.998 25.0489 30.0848 25.1864 30.2073 25.2869C30.3299 25.3874 30.4817 25.4455 30.64 25.4526H33.0336V28.1726H30.674C30.5157 28.1798 30.3639 28.2379 30.2413 28.3384C30.1188 28.4389 30.032 28.5764 29.994 28.7302C29.8068 29.4668 29.5136 30.1723 29.1236 30.8246C29.0402 30.9653 29.0056 31.1296 29.0253 31.2919C29.045 31.4543 29.1178 31.6056 29.2324 31.7222L30.9256 33.4154L28.9468 35.401Z" fill="white"/>
<path d="M22.3258 21.7598C21.3273 21.7584 20.3509 22.0534 19.5201 22.6073C18.6893 23.1612 18.0415 23.9491 17.6588 24.8714C17.2761 25.7936 17.1756 26.8087 17.3701 27.788C17.5645 28.7674 18.0452 29.6671 18.7513 30.3731C19.4573 31.0792 20.357 31.5599 21.3364 31.7543C22.3157 31.9488 23.3308 31.8483 24.253 31.4656C25.1753 31.0829 25.9632 30.4351 26.5171 29.6043C27.071 28.7735 27.366 27.7971 27.3646 26.7986C27.3628 25.4627 26.8314 24.1822 25.8868 23.2376C24.9422 22.293 23.6617 21.7616 22.3258 21.7598ZM22.3258 30.4842C21.5966 30.4855 20.8834 30.2705 20.2764 29.8663C19.6694 29.4622 19.1959 28.887 18.9159 28.2137C18.6359 27.5404 18.562 26.7991 18.7034 26.0837C18.8449 25.3683 19.1953 24.711 19.7105 24.1949C20.2257 23.6788 20.8824 23.3271 21.5975 23.1843C22.3126 23.0415 23.054 23.1141 23.7279 23.3929C24.4017 23.6716 24.9777 24.144 25.383 24.7503C25.7883 25.3565 26.0046 26.0693 26.0046 26.7986C26.0082 27.2843 25.9158 27.7659 25.7326 28.2158C25.5494 28.6656 25.2791 29.0748 24.9372 29.4199C24.5953 29.7649 24.1886 30.039 23.7405 30.2263C23.2923 30.4136 22.8116 30.5105 22.3258 30.5114V30.4842Z" fill="white"/>
</svg>
