<svg width="70" height="70" viewBox="0 0 70 70" fill="none" xmlns="http://www.w3.org/2000/svg">
<path d="M46.3073 58.7229C48.593 58.7229 50.4458 56.87 50.4458 54.5843C50.4458 52.2987 48.593 50.4458 46.3073 50.4458C44.0217 50.4458 42.1688 52.2987 42.1688 54.5843C42.1688 56.87 44.0217 58.7229 46.3073 58.7229Z" stroke="white" stroke-width="2" stroke-miterlimit="10" stroke-linecap="round" stroke-linejoin="round"/>
<path d="M49.9932 56.427L59.1752 61.018M59.1752 48.1499L49.9932 52.7409" stroke="white" stroke-width="2" stroke-miterlimit="10" stroke-linecap="round" stroke-linejoin="round"/>
<path d="M62.8614 50.4458C65.1471 50.4458 67 48.5929 67 46.3072C67 44.0216 65.1471 42.1687 62.8614 42.1687C60.5758 42.1687 58.7229 44.0216 58.7229 46.3072C58.7229 48.5929 60.5758 50.4458 62.8614 50.4458Z" stroke="white" stroke-width="2" stroke-miterlimit="10" stroke-linecap="round" stroke-linejoin="round"/>
<path d="M62.8614 67C65.1471 67 67 65.1471 67 62.8614C67 60.5758 65.1471 58.7229 62.8614 58.7229C60.5758 58.7229 58.7229 60.5758 58.7229 62.8614C58.7229 65.1471 60.5758 67 62.8614 67Z" stroke="white" stroke-width="2" stroke-miterlimit="10" stroke-linecap="round" stroke-linejoin="round"/>
<path d="M32.5122 33.8913C40.8929 33.8913 47.6868 27.0974 47.6868 18.7166C47.6868 10.3359 40.8929 3.54199 32.5122 3.54199C24.1314 3.54199 17.3375 10.3359 17.3375 18.7166C17.3375 27.0974 24.1314 33.8913 32.5122 33.8913Z" stroke="white" stroke-width="2" stroke-miterlimit="10" stroke-linecap="round" stroke-linejoin="round"/>
<path d="M39.4094 61.4812H7.68053C6.58292 61.4812 5.53027 61.0451 4.75414 60.269C3.97802 59.4929 3.54199 58.4402 3.54199 57.3426V55.323C3.54199 51.1624 5.88165 47.377 9.58426 45.4788C14.9368 42.7308 23.3077 39.4089 32.5118 39.4089C40.5406 39.4089 47.9347 41.9362 53.2459 44.4055" stroke="white" stroke-width="2" stroke-miterlimit="10" stroke-linecap="round" stroke-linejoin="round"/>
</svg>
