<svg width="71" height="70" viewBox="0 0 71 70" fill="none" xmlns="http://www.w3.org/2000/svg">
<path d="M29.3893 39.6661V9.24072H41.5372V39.6661" stroke="white" stroke-width="1.5" stroke-miterlimit="10" stroke-linecap="round" stroke-linejoin="round"/>
<path d="M33.5135 39.6672V34.4849H37.4141V39.6672" stroke="white" stroke-width="1.5" stroke-miterlimit="10" stroke-linecap="round" stroke-linejoin="round"/>
<path d="M32.565 8.90694V5.78638H36.41V8.90694" stroke="white" stroke-width="1.5" stroke-miterlimit="10" stroke-linecap="round" stroke-linejoin="round"/>
<path d="M36.4104 3V5.78622" stroke="white" stroke-width="1.5" stroke-miterlimit="10" stroke-linecap="round" stroke-linejoin="round"/>
<path d="M39.364 6.12012V9.24068" stroke="white" stroke-width="1.5" stroke-miterlimit="10" stroke-linecap="round" stroke-linejoin="round"/>
<path d="M33.5684 14.2188H40.5896" stroke="white" stroke-width="1.5" stroke-miterlimit="10" stroke-linecap="round" stroke-linejoin="round"/>
<path d="M33.5684 19.136H40.5896" stroke="white" stroke-width="1.5" stroke-miterlimit="10" stroke-linecap="round" stroke-linejoin="round"/>
<path d="M33.5684 24.0532H40.5896" stroke="white" stroke-width="1.5" stroke-miterlimit="10" stroke-linecap="round" stroke-linejoin="round"/>
<path d="M33.5684 28.9705H40.5896" stroke="white" stroke-width="1.5" stroke-miterlimit="10" stroke-linecap="round" stroke-linejoin="round"/>
<path d="M44.5872 39.4805C45.8593 39.931 46.6061 40.4801 46.6061 41.0725C46.6061 42.6039 41.617 43.8452 35.4627 43.8452C29.3085 43.8452 24.3192 42.604 24.3192 41.0727C24.3192 40.5088 24.9954 39.9844 26.157 39.5467" stroke="white" stroke-width="1.5" stroke-miterlimit="10" stroke-linecap="round" stroke-linejoin="round"/>
<path d="M35.4631 66.9992C37.3057 66.9992 38.7995 66.103 38.7995 64.9974C38.7995 63.8918 37.3057 62.9956 35.4631 62.9956C33.6204 62.9956 32.1266 63.8918 32.1266 64.9974C32.1266 66.103 33.6204 66.9992 35.4631 66.9992Z" stroke="white" stroke-width="1.5" stroke-miterlimit="10" stroke-linecap="round" stroke-linejoin="round"/>
<path d="M52.6783 61.8751C54.3735 61.8751 55.7477 61.0505 55.7477 60.0334C55.7477 59.0162 54.3735 58.1917 52.6783 58.1917C50.9831 58.1917 49.6089 59.0162 49.6089 60.0334C49.6089 61.0505 50.9831 61.8751 52.6783 61.8751Z" stroke="white" stroke-width="1.5" stroke-miterlimit="10" stroke-linecap="round" stroke-linejoin="round"/>
<path d="M63.8218 53.734C65.3328 53.734 66.5576 52.9991 66.5576 52.0925C66.5576 51.1859 65.3328 50.4509 63.8218 50.4509C62.3109 50.4509 61.0861 51.1859 61.0861 52.0925C61.0861 52.9991 62.3109 53.734 63.8218 53.734Z" stroke="white" stroke-width="1.5" stroke-miterlimit="10" stroke-linecap="round" stroke-linejoin="round"/>
<path d="M66.2247 42.2844C67.4408 42.2844 68.4266 41.6928 68.4266 40.9631C68.4266 40.2334 67.4408 39.6418 66.2247 39.6418C65.0086 39.6418 64.0227 40.2334 64.0227 40.9631C64.0227 41.6928 65.0086 42.2844 66.2247 42.2844Z" stroke="white" stroke-width="1.5" stroke-miterlimit="10" stroke-linecap="round" stroke-linejoin="round"/>
<path d="M35.4628 43.9128V62.9968" stroke="white" stroke-width="1.5" stroke-miterlimit="10" stroke-linecap="round" stroke-linejoin="round"/>
<path d="M40.2668 43.913V49.5248C40.2668 50.5993 40.8225 51.5974 41.7356 52.1634L51.4809 58.3378M43.6032 43.1123L48.4029 44.8456C49.4444 45.1928 50.3423 45.7408 50.957 46.6505L52.2634 48.584C52.9595 49.6143 54.0155 50.2138 55.2243 50.5055L61.0858 52.0537" stroke="white" stroke-width="1.5" stroke-miterlimit="10" stroke-linecap="round" stroke-linejoin="round"/>
<path d="M46.6731 41.1106H63.8886" stroke="white" stroke-width="1.5" stroke-miterlimit="10" stroke-linecap="round" stroke-linejoin="round"/>
<path d="M18.2476 61.8751C19.9428 61.8751 21.317 61.0505 21.317 60.0334C21.317 59.0162 19.9428 58.1917 18.2476 58.1917C16.5524 58.1917 15.1782 59.0162 15.1782 60.0334C15.1782 61.0505 16.5524 61.8751 18.2476 61.8751Z" stroke="white" stroke-width="1.5" stroke-miterlimit="10" stroke-linecap="round" stroke-linejoin="round"/>
<path d="M7.104 53.734C8.61492 53.734 9.83977 52.9991 9.83977 52.0925C9.83977 51.1859 8.61492 50.4509 7.104 50.4509C5.59307 50.4509 4.36823 51.1859 4.36823 52.0925C4.36823 52.9991 5.59307 53.734 7.104 53.734Z" stroke="white" stroke-width="1.5" stroke-miterlimit="10" stroke-linecap="round" stroke-linejoin="round"/>
<path d="M4.70195 42.2844C5.91806 42.2844 6.90391 41.6928 6.90391 40.9631C6.90391 40.2334 5.91806 39.6418 4.70195 39.6418C3.48585 39.6418 2.5 40.2334 2.5 40.9631C2.5 41.6928 3.48585 42.2844 4.70195 42.2844Z" stroke="white" stroke-width="1.5" stroke-miterlimit="10" stroke-linecap="round" stroke-linejoin="round"/>
<path d="M30.6593 43.913V49.5248C30.6593 50.5993 30.1037 51.5974 29.1905 52.1634L19.4453 58.3378M27.3229 43.1123L22.5233 44.8456C21.4817 45.1928 20.5838 45.7408 19.9692 46.6505L18.6628 48.584C17.9667 49.6143 16.9106 50.2138 15.7019 50.5055L9.84036 52.0537" stroke="white" stroke-width="1.5" stroke-miterlimit="10" stroke-linecap="round" stroke-linejoin="round"/>
<path d="M24.2527 41.1104H7.03717" stroke="white" stroke-width="1.5" stroke-miterlimit="10" stroke-linecap="round" stroke-linejoin="round"/>
</svg>
