<svg width="678" height="811" viewBox="0 0 678 811" fill="none" xmlns="http://www.w3.org/2000/svg">
<path d="M114.178 533.027L113.391 532.572L113.134 533.018L95.126 500.338L123.246 455.056C123.683 455.477 124.209 455.808 124.791 456.017L97.2328 500.393L114.975 532.589L114.178 533.027Z" fill="url(#paint0_linear_901_160)"/>
<path d="M96.1788 536.675L95.391 536.22L95.1327 536.668L78.6982 507.121L135.683 415.36C135.861 416.212 136.045 417.076 136.231 417.926L80.8087 507.171L96.9739 536.233L96.1788 536.675Z" fill="url(#paint1_linear_901_160)"/>
<path d="M126.257 456.271C125.742 456.271 125.249 456.182 124.792 456.018C124.21 455.808 123.684 455.477 123.247 455.057C122.431 454.267 121.923 453.162 121.923 451.935C121.923 449.542 123.862 447.602 126.257 447.602C128.651 447.602 130.591 449.542 130.591 451.935C130.591 454.331 128.651 456.271 126.257 456.271Z" fill="url(#paint2_linear_901_160)"/>
<path d="M152.435 495.683C151.971 495.683 151.524 495.608 151.105 495.473L153.223 491.802L151.648 490.892L149.53 494.563C148.653 493.77 148.102 492.623 148.102 491.347C148.102 488.952 150.043 487.012 152.435 487.012C154.83 487.012 156.771 488.952 156.771 491.347C156.771 493.741 154.83 495.683 152.435 495.683Z" fill="url(#paint3_linear_901_160)"/>
<path d="M45.7518 701.501H43.6504L45.5826 698.154L163.431 493.963C163.762 494.611 164.086 495.241 164.423 495.887L47.1582 699.064L45.7518 701.501Z" fill="url(#paint4_linear_901_160)"/>
<path d="M66.4731 642.109L64.8975 641.199L67.0152 637.527L149.53 494.561L151.647 490.89L153.223 491.8L151.105 495.471L68.5908 638.439L66.4731 642.109Z" fill="url(#paint5_linear_901_160)"/>
<path d="M17.997 701.501H15.8956L113.134 533.02L113.391 532.574L114.179 533.029L114.966 533.484L17.997 701.501Z" fill="url(#paint6_linear_901_160)"/>
<path d="M2.10139 701.5H0L95.1336 536.667L95.3919 536.219L96.1797 536.674L96.9675 537.129L2.10139 701.5Z" fill="url(#paint7_linear_901_160)"/>
<g filter="url(#filter0_di_901_160)">
<path d="M515.283 224.981V224.071H362.836L286.351 356.595L362.836 489.119H515.809L592.296 356.595L515.807 224.071H515.283V224.981L514.496 225.436L590.194 356.595L514.758 487.299H363.887L288.45 356.595L363.887 225.891H515.283V224.981L514.496 225.436L515.283 224.981Z" fill="url(#paint8_linear_901_160)"/>
</g>
<g filter="url(#filter1_di_901_160)">
<path d="M506.905 239.495V235.855H369.638L299.954 356.594L369.638 477.334H509.006L578.69 356.594L509.006 235.855H506.905V239.495L503.754 241.315L570.287 356.594L504.805 470.054H373.839L308.356 356.594L373.839 243.135H506.905V239.495L503.754 241.315L506.905 239.495Z" fill="url(#paint9_linear_901_160)"/>
</g>
<path d="M294.829 429.533L264.473 478.415L282.728 511.545L284.322 510.666L266.581 478.47L296.376 430.493L294.829 429.533Z" fill="url(#paint10_linear_901_160)"/>
<path d="M298.147 404.518L248.045 485.196L264.732 515.191L266.321 514.307L250.155 485.247L299.694 405.478L298.147 404.518Z" fill="url(#paint11_linear_901_160)"/>
<path d="M299.935 430.013C299.935 432.407 297.994 434.347 295.601 434.347C293.207 434.347 291.268 432.407 291.268 430.013C291.268 427.618 293.207 425.678 295.601 425.678C297.994 425.678 299.935 427.618 299.935 430.013Z" fill="url(#paint12_linear_901_160)"/>
<path d="M303.254 404.998C303.254 407.393 301.313 409.333 298.921 409.333C296.528 409.333 294.587 407.393 294.587 404.998C294.587 402.604 296.528 400.664 298.921 400.664C301.313 400.664 303.254 402.604 303.254 404.998Z" fill="url(#paint13_linear_901_160)"/>
<path d="M326.115 469.422C326.115 471.815 324.175 473.757 321.781 473.757C319.389 473.757 317.449 471.815 317.449 469.422C317.449 467.026 319.389 465.084 321.781 465.084C324.175 465.084 326.115 467.026 326.115 469.422Z" fill="url(#paint14_linear_901_160)"/>
<path d="M239.365 619.731C239.365 622.125 237.423 624.066 235.031 624.066C232.637 624.066 230.697 622.125 230.697 619.731C230.697 617.336 232.637 615.397 235.031 615.397C237.423 615.397 239.365 617.336 239.365 619.731Z" fill="url(#paint15_linear_901_160)"/>
<path d="M217.93 680.354C217.93 682.749 215.991 684.689 213.596 684.689C211.204 684.689 209.263 682.749 209.263 680.354C209.263 677.961 211.204 676.021 213.596 676.021C215.991 676.021 217.93 677.961 217.93 680.354Z" fill="url(#paint16_linear_901_160)"/>
<path d="M214.384 680.809L344.193 455.896L342.618 454.986L212.809 679.899" fill="url(#paint17_linear_901_160)"/>
<path d="M235.819 620.187L322.569 469.878L320.993 468.968L234.243 619.277" fill="url(#paint18_linear_901_160)"/>
<path d="M154.503 736.472L284.313 511.559L282.737 510.649L152.928 735.562" fill="url(#paint19_linear_901_160)"/>
<path d="M136.504 740.117L266.315 515.204L264.74 514.294L134.929 739.207" fill="url(#paint20_linear_901_160)"/>
<path d="M448.287 517.762L421.193 567.314L384.445 567.703L384.465 569.523L422.278 569.123L449.885 518.636L448.287 517.762Z" fill="url(#paint21_linear_901_160)"/>
<path d="M468.427 502.563L423.377 584.951L390.132 585.171L390.145 586.991L424.46 586.766L470.023 503.436L468.427 502.563Z" fill="url(#paint22_linear_901_160)"/>
<path d="M446.955 514.421C444.871 515.6 444.136 518.245 445.315 520.331C446.492 522.415 449.136 523.148 451.219 521.97C453.304 520.791 454.039 518.147 452.86 516.064C451.683 513.979 449.04 513.243 446.955 514.421Z" fill="url(#paint23_linear_901_160)"/>
<path d="M467.093 499.227C465.008 500.402 464.275 503.049 465.452 505.133C466.629 507.218 469.273 507.954 471.356 506.774C473.441 505.597 474.176 502.952 472.999 500.867C471.82 498.783 469.177 498.047 467.093 499.227Z" fill="url(#paint24_linear_901_160)"/>
<path d="M399.778 511.011C397.693 512.19 396.96 514.835 398.136 516.92C399.314 519.004 401.958 519.738 404.041 518.56C406.126 517.381 406.859 514.736 405.684 512.654C404.505 510.569 401.862 509.833 399.778 511.011Z" fill="url(#paint25_linear_901_160)"/>
<path d="M311.645 660.515C309.562 661.694 308.827 664.34 310.006 666.422C311.181 668.507 313.825 669.243 315.91 668.064C317.993 666.885 318.728 664.242 317.551 662.156C316.374 660.072 313.73 659.338 311.645 660.515Z" fill="url(#paint26_linear_901_160)"/>
<path d="M272.348 713.247L404.222 489.539L402.655 488.614L270.779 712.323" fill="url(#paint27_linear_901_160)"/>
<path d="M314.561 664.752L402.692 515.251L401.126 514.326L312.993 663.827" fill="url(#paint28_linear_901_160)"/>
<path d="M253.364 792.783L385.239 569.075L383.672 568.15L251.798 791.858" fill="url(#paint29_linear_901_160)"/>
<path d="M259.047 810.251L390.921 586.542L389.355 585.618L257.48 809.326" fill="url(#paint30_linear_901_160)"/>
<path d="M583.901 283.72L614.257 234.838L596.002 201.708L594.408 202.587L612.151 234.783L582.354 282.761L583.901 283.72Z" fill="url(#paint31_linear_901_160)"/>
<path d="M580.584 308.735L630.686 228.056L614 198.06L612.41 198.947L628.577 228.007L579.039 307.774L580.584 308.735Z" fill="url(#paint32_linear_901_160)"/>
<path d="M578.794 283.241C578.794 280.846 580.735 278.906 583.128 278.906C585.522 278.906 587.463 280.846 587.463 283.241C587.463 285.634 585.522 287.576 583.128 287.576C580.735 287.576 578.794 285.634 578.794 283.241Z" fill="url(#paint33_linear_901_160)"/>
<path d="M575.478 308.256C575.478 305.86 577.417 303.92 579.811 303.92C582.204 303.92 584.145 305.86 584.145 308.256C584.145 310.651 582.204 312.591 579.811 312.591C577.417 312.591 575.478 310.651 575.478 308.256Z" fill="url(#paint34_linear_901_160)"/>
<path d="M552.613 243.83C552.613 241.437 554.555 239.495 556.947 239.495C559.343 239.495 561.283 241.437 561.283 243.83C561.283 246.225 559.343 248.167 556.947 248.167C554.555 248.167 552.613 246.225 552.613 243.83Z" fill="url(#paint35_linear_901_160)"/>
<path d="M664.344 32.4405L534.537 257.356L536.113 258.266L665.92 33.3505" fill="url(#paint36_linear_901_160)"/>
<path d="M642.912 93.066L556.16 243.375L557.736 244.285L644.487 93.976" fill="url(#paint37_linear_901_160)"/>
<path d="M724.225 -23.2198L594.416 201.694L595.992 202.604L725.801 -22.3098" fill="url(#paint38_linear_901_160)"/>
<path d="M742.225 -26.8652L612.416 198.048L613.992 198.958L743.801 -25.9552" fill="url(#paint39_linear_901_160)"/>
<path d="M430.439 195.49L457.535 145.937L494.283 145.549L494.265 143.729L456.451 144.13L428.844 194.617L430.439 195.49Z" fill="url(#paint40_linear_901_160)"/>
<path d="M410.305 210.688L455.352 128.301L488.596 128.081L488.585 126.261L454.27 126.488L408.709 209.816L410.305 210.688Z" fill="url(#paint41_linear_901_160)"/>
<path d="M431.775 198.829C433.858 197.651 434.593 195.007 433.416 192.923C432.237 190.839 429.593 190.104 427.51 191.281C425.425 192.459 424.692 195.103 425.869 197.189C427.048 199.273 429.692 200.008 431.775 198.829Z" fill="url(#paint42_linear_901_160)"/>
<path d="M411.639 214.025C413.722 212.848 414.457 210.203 413.278 208.119C412.101 206.034 409.457 205.298 407.372 206.478C405.291 207.655 404.556 210.3 405.733 212.384C406.91 214.469 409.556 215.205 411.639 214.025Z" fill="url(#paint43_linear_901_160)"/>
<path d="M314.533 282.678C316.618 281.501 317.352 278.855 316.173 276.771C314.997 274.687 312.354 273.952 310.269 275.129C308.185 276.307 307.45 278.953 308.628 281.037C309.805 283.123 312.45 283.856 314.533 282.678Z" fill="url(#paint44_linear_901_160)"/>
<path d="M478.953 202.241C481.038 201.062 481.771 198.418 480.594 196.334C479.415 194.25 476.772 193.514 474.689 194.692C472.605 195.869 471.87 198.514 473.047 200.6C474.226 202.684 476.87 203.419 478.953 202.241Z" fill="url(#paint45_linear_901_160)"/>
<path d="M606.385 0.0065155L474.511 223.713L476.077 224.638L607.951 0.931091" fill="url(#paint46_linear_901_160)"/>
<path d="M564.169 48.4994L476.038 198.004L477.605 198.929L565.735 49.424" fill="url(#paint47_linear_901_160)"/>
<path d="M625.366 -79.5287L493.49 144.178L495.059 145.103L626.933 -78.6041" fill="url(#paint48_linear_901_160)"/>
<path d="M619.683 -97.0002L487.808 126.708L489.376 127.633L621.25 -96.0756" fill="url(#paint49_linear_901_160)"/>
<path d="M338.328 232.061L279.774 333.51L281.35 334.42L339.903 232.971" fill="url(#paint50_linear_901_160)"/>
<path d="M569.646 433.786C571.729 432.607 572.464 429.962 571.285 427.879C570.109 425.793 567.466 425.059 565.381 426.237C563.298 427.416 562.563 430.061 563.74 432.143C564.917 434.229 567.561 434.964 569.646 433.786Z" fill="url(#paint51_linear_901_160)"/>
<path d="M593.443 383.168L534.89 484.617L536.465 485.527L595.018 384.078" fill="url(#paint52_linear_901_160)"/>
<path d="M602.744 440.113L694.19 270.765L664.139 193.6L792 -26.845L785.705 -30.4996L656.087 192.978L686.186 270.268L596.342 436.653L602.744 440.113Z" fill="url(#paint53_linear_901_160)"/>
<path d="M603.51 448.829H599.872C599.87 450.327 599.275 451.648 598.296 452.633C597.312 453.612 595.991 454.205 594.494 454.209C592.998 454.207 591.677 453.612 590.691 452.633C589.714 451.648 589.119 450.327 589.117 448.829C589.119 447.333 589.714 446.012 590.693 445.027C591.677 444.048 592.998 443.453 594.494 443.451C595.991 443.453 597.312 444.048 598.296 445.027C599.275 446.012 599.87 447.333 599.872 448.829H603.51H607.149C607.147 441.837 601.484 436.175 594.494 436.171C587.504 436.175 581.842 441.838 581.84 448.829C581.842 455.823 587.505 461.485 594.494 461.487C601.484 461.487 607.147 455.823 607.149 448.829H603.51Z" fill="url(#paint54_linear_901_160)"/>
<path d="M278.337 273.142L186.89 442.488L216.941 519.653L89.08 740.098L95.375 743.751L224.993 520.275L194.893 442.985L284.74 276.601L278.337 273.142Z" fill="url(#paint55_linear_901_160)"/>
<path d="M277.571 264.421H281.21C281.212 262.925 281.805 261.604 282.784 260.619C283.768 259.64 285.091 259.045 286.586 259.043C288.082 259.045 289.403 259.64 290.387 260.619C291.366 261.604 291.961 262.925 291.963 264.421C291.961 265.919 291.366 267.24 290.387 268.225C289.403 269.204 288.082 269.799 286.586 269.801C285.091 269.799 283.768 269.204 282.784 268.225C281.805 267.24 281.212 265.919 281.21 264.421H277.571H273.933C273.934 271.414 279.596 277.077 286.586 277.081C293.577 277.077 299.237 271.414 299.24 264.421C299.237 257.429 293.577 251.767 286.586 251.763C279.596 251.767 273.934 257.429 273.933 264.421H277.571Z" fill="url(#paint56_linear_901_160)"/>
<path d="M326.115 212.373C318.141 212.373 311.673 205.903 311.673 197.924C311.673 189.945 318.141 183.475 326.115 183.475C334.093 183.475 340.561 189.945 340.561 197.924C340.561 205.903 334.093 212.373 326.115 212.373ZM343.194 197.924C343.194 197.731 343.185 197.54 343.179 197.349L345.152 197.142L344.899 194.73L342.928 194.938C342.861 194.557 342.783 194.182 342.694 193.811L344.573 193.199L343.825 190.894L341.944 191.505C341.797 191.148 341.644 190.797 341.477 190.453L343.189 189.465L341.975 187.365L340.265 188.355C340.048 188.036 339.819 187.729 339.584 187.426L341.056 186.1L339.435 184.298L337.961 185.625C337.685 185.359 337.401 185.1 337.106 184.853L338.273 183.251L336.311 181.824L335.147 183.428C334.821 183.224 334.492 183.031 334.152 182.849L334.958 181.044L332.744 180.057L331.937 181.861C331.579 181.732 331.213 181.617 330.844 181.51L331.255 179.573L328.885 179.069L328.472 181.007C328.095 180.954 327.713 180.916 327.329 180.889V178.905H324.904V180.889C324.52 180.916 324.138 180.954 323.761 181.007L323.35 179.069L320.978 179.573L321.391 181.51C321.021 181.617 320.652 181.732 320.293 181.861L319.491 180.057L317.277 181.044L318.081 182.849C317.743 183.031 317.41 183.224 317.086 183.428L315.923 181.824L313.962 183.251L315.125 184.853C314.832 185.1 314.548 185.359 314.273 185.625L312.799 184.298L311.177 186.1L312.65 187.426C312.414 187.729 312.184 188.036 311.97 188.355L310.256 187.365L309.044 189.465L310.756 190.453C310.589 190.797 310.436 191.148 310.29 191.505L308.409 190.894L307.661 193.199L309.541 193.811C309.45 194.182 309.372 194.557 309.304 194.938L307.336 194.73L307.081 197.142L309.053 197.349C309.048 197.54 309.041 197.731 309.041 197.924C309.041 198.117 309.048 198.308 309.053 198.499L307.081 198.707L307.336 201.118L309.304 200.911C309.372 201.291 309.45 201.666 309.541 202.037L307.661 202.649L308.409 204.955L310.29 204.343C310.436 204.7 310.589 205.051 310.758 205.395L309.044 206.384L310.256 208.484L311.97 207.494C312.184 207.812 312.414 208.12 312.65 208.422L311.177 209.749L312.799 211.551L314.273 210.224C314.548 210.49 314.832 210.748 315.125 210.996L313.962 212.599L315.923 214.024L317.086 212.421C317.41 212.624 317.743 212.817 318.081 212.998L317.277 214.805L319.491 215.791L320.293 213.988C320.654 214.119 321.021 214.233 321.391 214.339L320.978 216.275L323.35 216.78L323.761 214.841C324.138 214.894 324.52 214.932 324.904 214.96V216.943H327.329V214.96C327.713 214.932 328.095 214.894 328.472 214.841L328.885 216.78L331.255 216.275L330.844 214.339C331.213 214.233 331.579 214.119 331.937 213.988L332.744 215.791L334.958 214.805L334.152 212.999C334.492 212.817 334.821 212.624 335.147 212.421L336.311 214.024L338.273 212.599L337.106 210.996C337.401 210.748 337.685 210.49 337.961 210.224L339.435 211.551L341.056 209.749L339.584 208.422C339.819 208.12 340.048 207.812 340.265 207.494L341.975 208.484L343.189 206.384L341.477 205.395C341.644 205.051 341.797 204.7 341.944 204.343L343.825 204.955L344.573 202.649L342.694 202.037C342.783 201.666 342.861 201.291 342.928 200.911L344.899 201.118L345.152 198.707L343.179 198.499C343.185 198.308 343.194 198.117 343.194 197.924Z" fill="url(#paint57_linear_901_160)"/>
<path d="M494.68 530.922C490.049 530.922 486.294 527.166 486.294 522.534C486.294 517.902 490.049 514.146 494.68 514.146C499.312 514.146 503.065 517.902 503.065 522.534C503.065 527.166 499.312 530.922 494.68 530.922ZM504.594 522.534L504.584 522.201L505.731 522.081L505.583 520.679L504.439 520.8C504.399 520.579 504.355 520.361 504.302 520.146L505.394 519.791L504.959 518.452L503.868 518.808C503.784 518.599 503.695 518.395 503.597 518.197L504.59 517.622L503.886 516.402L502.892 516.977C502.767 516.794 502.634 516.615 502.498 516.439L503.353 515.669L502.412 514.622L501.555 515.394C501.395 515.239 501.23 515.09 501.062 514.946L501.737 514.015L500.598 513.188L499.923 514.118C499.734 514 499.543 513.889 499.345 513.783L499.812 512.733L498.526 512.16L498.06 513.208C497.851 513.134 497.64 513.066 497.423 513.004L497.662 511.88L496.286 511.588L496.048 512.713C495.83 512.682 495.606 512.66 495.382 512.644V511.492H493.976V512.644C493.754 512.66 493.532 512.682 493.313 512.713L493.073 511.588L491.696 511.88L491.936 513.004C491.721 513.066 491.509 513.134 491.299 513.208L490.832 512.16L489.547 512.733L490.015 513.783C489.818 513.889 489.626 514 489.438 514.118L488.761 513.188L487.624 514.015L488.299 514.946C488.128 515.09 487.963 515.239 487.803 515.394L486.949 514.622L486.007 515.669L486.862 516.439C486.725 516.615 486.591 516.794 486.467 516.977L485.472 516.402L484.768 517.622L485.763 518.197C485.667 518.395 485.577 518.599 485.492 518.808L484.4 518.452L483.965 519.791L485.057 520.146C485.004 520.361 484.959 520.579 484.919 520.8L483.778 520.679L483.629 522.081L484.773 522.201L484.766 522.534L484.773 522.867L483.629 522.989L483.778 524.389L484.919 524.268C484.959 524.489 485.004 524.707 485.057 524.922L483.965 525.275L484.4 526.616L485.492 526.26C485.577 526.467 485.667 526.671 485.763 526.871L484.768 527.444L485.472 528.664L486.467 528.089C486.591 528.274 486.725 528.453 486.862 528.627L486.007 529.399L486.949 530.444L487.803 529.674C487.963 529.829 488.128 529.978 488.299 530.122L487.624 531.052L488.761 531.88L489.438 530.95C489.626 531.068 489.818 531.181 490.015 531.285L489.547 532.333L490.832 532.906L491.299 531.86C491.509 531.936 491.721 532.002 491.936 532.064L491.696 533.187L493.073 533.48L493.313 532.355C493.532 532.386 493.754 532.408 493.976 532.424V533.574H495.382V532.424C495.606 532.408 495.83 532.386 496.048 532.355L496.286 533.48L497.662 533.187L497.423 532.064C497.64 532.002 497.851 531.936 498.06 531.86L498.526 532.906L499.812 532.333L499.345 531.285C499.543 531.181 499.734 531.068 499.923 530.95L500.598 531.88L501.737 531.052L501.062 530.122C501.23 529.978 501.395 529.829 501.555 529.674L502.412 530.444L503.353 529.399L502.498 528.627C502.634 528.453 502.767 528.274 502.892 528.089L503.886 528.664L504.59 527.444L503.597 526.871C503.695 526.671 503.784 526.467 503.868 526.26L504.959 526.616L505.394 525.275L504.302 524.922C504.355 524.707 504.399 524.489 504.439 524.268L505.583 524.389L505.731 522.989L504.584 522.867L504.594 522.534Z" fill="url(#paint58_linear_901_160)"/>
<path d="M471.905 98.4734C467.761 98.4734 464.398 95.1118 464.398 90.964C464.398 86.8144 467.761 83.4528 471.905 83.4528C476.052 83.4528 479.414 86.8144 479.414 90.964C479.414 95.1118 476.052 98.4734 471.905 98.4734ZM483.855 93.0188L482.974 92.6985C482.485 92.5201 482.183 92.0397 482.21 91.5191C482.221 91.3353 482.227 91.1497 482.227 90.964C482.227 90.7857 482.221 90.6091 482.212 90.4326L483.988 89.9557C484.612 89.7901 484.979 89.1495 484.812 88.5288L484.301 86.616C484.135 85.9954 483.495 85.6241 482.871 85.7916L481.965 86.0354C481.464 86.1683 480.942 85.9517 480.669 85.5113L480.549 85.3256C480.265 84.8907 480.289 84.3246 480.622 83.9261L481.226 83.2053C481.641 82.7121 481.577 81.9768 481.082 81.5636L479.567 80.2915C479.074 79.8765 478.337 79.9402 477.924 80.4352L477.321 81.1524C476.99 81.5473 476.441 81.6747 475.97 81.4726C475.619 81.3216 475.26 81.1906 474.891 81.0795C474.398 80.9303 474.061 80.4808 474.061 79.9675V79.0284C474.061 78.3841 473.539 77.8618 472.895 77.8618H470.917C470.273 77.8618 469.751 78.3841 469.751 79.0284V79.9639C469.751 80.4844 469.404 80.9321 468.907 81.0832L468.694 81.1487C468.201 81.3107 467.662 81.1414 467.364 80.7155L466.827 79.9493C466.458 79.4233 465.732 79.2941 465.205 79.6636L463.583 80.7992C463.056 81.1687 462.928 81.8967 463.298 82.4227L463.836 83.1926C464.135 83.6185 464.107 84.1845 463.787 84.594L463.653 84.7669C463.341 85.1818 462.801 85.3547 462.315 85.1764L461.431 84.8561C460.827 84.634 460.158 84.9471 459.937 85.5531L459.261 87.4114C459.04 88.0174 459.353 88.6872 459.959 88.9074L460.838 89.2277C461.329 89.4061 461.631 89.8866 461.6 90.4071C461.591 90.5909 461.586 90.7766 461.586 90.964C461.586 91.1406 461.589 91.3171 461.598 91.4936L459.825 91.9705C459.202 92.1361 458.833 92.7767 458.999 93.3974L459.512 95.3102C459.677 95.9326 460.318 96.3021 460.94 96.1347L461.846 95.8926C462.346 95.7579 462.868 95.9745 463.145 96.4149L463.261 96.6006C463.545 97.0356 463.523 97.6016 463.189 98.0002L462.586 98.7191C462.173 99.2141 462.237 99.9494 462.73 100.364L464.246 101.635C464.739 102.05 465.474 101.986 465.889 101.491L466.493 100.772C466.822 100.379 467.37 100.252 467.843 100.454C468.192 100.605 468.552 100.736 468.921 100.847C469.413 100.996 469.751 101.445 469.751 101.961V102.898C469.751 103.542 470.273 104.064 470.917 104.064H472.895C473.539 104.064 474.061 103.542 474.061 102.898V101.962C474.061 101.442 474.407 100.994 474.905 100.843L475.116 100.778C475.61 100.616 476.15 100.785 476.446 101.211L476.983 101.975C477.352 102.503 478.08 102.632 478.608 102.263L480.227 101.129C480.755 100.757 480.884 100.029 480.515 99.5017L479.976 98.7336C479.679 98.3078 479.703 97.7417 480.025 97.3341L480.158 97.1575C480.471 96.7444 481.009 96.5733 481.499 96.7498L482.379 97.0702C482.985 97.2922 483.655 96.9792 483.875 96.3731L484.55 94.5149C484.77 93.9088 484.461 93.239 483.855 93.0188Z" fill="url(#paint59_linear_901_160)"/>
<path d="M326.115 556.269C321.971 556.269 318.609 552.906 318.609 548.758C318.609 544.61 321.971 541.249 326.115 541.249C330.263 541.249 333.624 544.61 333.624 548.758C333.624 552.906 330.263 556.269 326.115 556.269ZM338.065 550.815L337.184 550.494C336.695 550.314 336.393 549.836 336.42 549.313C336.431 549.131 336.437 548.944 336.437 548.758C336.437 548.58 336.431 548.403 336.422 548.228L338.198 547.752C338.822 547.584 339.189 546.945 339.024 546.323L338.511 544.412C338.345 543.789 337.705 543.42 337.084 543.587L336.176 543.829C335.674 543.964 335.152 543.748 334.879 543.307L334.759 543.12C334.475 542.685 334.499 542.119 334.832 541.722L335.436 541.001C335.851 540.508 335.787 539.771 335.292 539.358L333.777 538.086C333.284 537.672 332.547 537.736 332.134 538.231L331.532 538.948C331.2 539.343 330.651 539.469 330.18 539.267C329.829 539.117 329.47 538.986 329.101 538.874C328.608 538.726 328.271 538.275 328.271 537.762V536.822C328.271 536.18 327.749 535.656 327.105 535.656H325.127C324.483 535.656 323.961 536.18 323.961 536.822V537.76C323.961 538.278 323.614 538.728 323.117 538.877L322.906 538.945C322.413 539.105 321.872 538.935 321.574 538.511L321.037 537.745C320.67 537.217 319.942 537.09 319.414 537.459L317.793 538.593C317.266 538.963 317.138 539.691 317.508 540.219L318.046 540.987C318.345 541.414 318.317 541.979 317.997 542.388L317.863 542.561C317.551 542.978 317.011 543.149 316.525 542.972L315.641 542.65C315.037 542.43 314.368 542.741 314.147 543.347L313.471 545.207C313.25 545.813 313.563 546.483 314.169 546.703L315.048 547.024C315.539 547.2 315.841 547.682 315.812 548.201C315.801 548.387 315.796 548.571 315.796 548.758C315.796 548.935 315.799 549.113 315.808 549.29L314.035 549.765C313.412 549.93 313.043 550.571 313.21 551.193L313.722 553.104C313.889 553.727 314.528 554.096 315.15 553.931L316.056 553.687C316.558 553.552 317.078 553.77 317.355 554.211L317.471 554.395C317.757 554.831 317.735 555.397 317.4 555.796L316.796 556.513C316.383 557.008 316.447 557.743 316.94 558.158L318.456 559.431C318.949 559.846 319.684 559.78 320.099 559.287L320.703 558.568C321.032 558.175 321.58 558.046 322.054 558.249C322.402 558.401 322.764 558.532 323.131 558.641C323.623 558.79 323.961 559.24 323.961 559.755V560.692C323.961 561.338 324.483 561.86 325.127 561.86H327.105C327.749 561.86 328.271 561.338 328.271 560.692V559.758C328.271 559.238 328.617 558.788 329.115 558.637L329.326 558.572C329.819 558.41 330.36 558.579 330.656 559.007L331.193 559.771C331.562 560.301 332.29 560.428 332.818 560.059L334.439 558.923C334.967 558.553 335.094 557.825 334.726 557.298L334.186 556.528C333.889 556.104 333.915 555.536 334.235 555.128L334.37 554.953C334.681 554.538 335.219 554.367 335.709 554.544L336.589 554.866C337.195 555.086 337.865 554.773 338.085 554.167L338.76 552.309C338.982 551.705 338.671 551.035 338.065 550.815Z" fill="url(#paint60_linear_901_160)"/>
<path d="M547.681 506.991C545.114 506.991 543.034 504.911 543.034 502.343C543.034 499.777 545.114 497.695 547.681 497.695C550.246 497.695 552.326 499.777 552.326 502.343C552.326 504.911 550.246 506.991 547.681 506.991ZM555.073 503.615L554.529 503.419C554.225 503.306 554.04 503.009 554.056 502.687L554.067 502.343L554.058 502.015L555.157 501.721C555.542 501.617 555.77 501.222 555.666 500.836L555.349 499.653C555.248 499.267 554.851 499.04 554.465 499.143L553.905 499.293C553.596 499.376 553.272 499.242 553.103 498.969L553.028 498.854C552.853 498.585 552.868 498.235 553.073 497.988L553.446 497.544C553.703 497.238 553.665 496.781 553.359 496.526L552.42 495.738C552.115 495.482 551.66 495.523 551.403 495.829L551.03 496.273C550.827 496.517 550.488 496.595 550.193 496.47C549.977 496.375 549.755 496.297 549.527 496.226C549.222 496.135 549.014 495.855 549.014 495.54V494.957C549.014 494.559 548.69 494.237 548.292 494.237H547.068C546.669 494.237 546.345 494.559 546.345 494.957V495.538C546.345 495.858 546.132 496.137 545.823 496.228L545.694 496.27C545.388 496.37 545.054 496.266 544.87 496.002L544.537 495.529C544.309 495.201 543.858 495.121 543.533 495.351L542.53 496.053C542.204 496.282 542.124 496.732 542.354 497.058L542.685 497.535C542.87 497.798 542.854 498.148 542.656 498.401L542.572 498.508C542.379 498.767 542.046 498.872 541.744 498.763L541.198 498.565C540.824 498.426 540.409 498.621 540.272 498.994L539.856 500.146C539.719 500.521 539.91 500.934 540.285 501.071L540.831 501.269C541.133 501.378 541.32 501.677 541.304 501.999L541.293 502.343L541.302 502.671L540.203 502.967C539.817 503.069 539.588 503.466 539.694 503.85L540.01 505.033C540.112 505.417 540.509 505.646 540.893 505.544L541.455 505.393C541.766 505.311 542.086 505.444 542.257 505.717L542.33 505.832C542.506 506.101 542.492 506.453 542.286 506.698L541.913 507.142C541.657 507.448 541.697 507.903 542.001 508.16L542.939 508.948C543.243 509.203 543.7 509.164 543.956 508.859L544.329 508.415C544.533 508.171 544.873 508.091 545.166 508.216C545.383 508.309 545.605 508.391 545.832 508.46C546.138 508.551 546.345 508.83 546.345 509.148V509.729C546.345 510.127 546.669 510.451 547.068 510.451H548.292C548.69 510.451 549.014 510.127 549.014 509.729V509.15C549.014 508.828 549.227 508.551 549.537 508.456L549.666 508.416C549.971 508.316 550.306 508.422 550.49 508.684L550.821 509.159C551.05 509.487 551.5 509.565 551.827 509.337L552.831 508.633C553.155 508.405 553.235 507.954 553.006 507.628L552.675 507.151C552.489 506.889 552.506 506.538 552.704 506.285L552.788 506.176C552.981 505.921 553.314 505.814 553.616 505.925L554.161 506.123C554.536 506.26 554.951 506.067 555.087 505.692L555.504 504.542C555.642 504.167 555.448 503.752 555.073 503.615Z" fill="url(#paint61_linear_901_160)"/>
<g filter="url(#filter2_d_901_160)">
<path d="M486.443 355.43C486.443 381.553 465.267 402.729 439.144 402.729C413.022 402.729 391.846 381.553 391.846 355.43C391.846 329.308 413.022 308.132 439.144 308.132C465.267 308.132 486.443 329.308 486.443 355.43Z" fill="#081939"/>
<path d="M486.443 355.43C486.443 381.553 465.267 402.729 439.144 402.729C413.022 402.729 391.846 381.553 391.846 355.43C391.846 329.308 413.022 308.132 439.144 308.132C465.267 308.132 486.443 329.308 486.443 355.43Z" fill="url(#paint62_radial_901_160)" fill-opacity="0.9"/>
<path d="M486.443 355.43C486.443 381.553 465.267 402.729 439.144 402.729C413.022 402.729 391.846 381.553 391.846 355.43C391.846 329.308 413.022 308.132 439.144 308.132C465.267 308.132 486.443 329.308 486.443 355.43Z" fill="url(#paint63_radial_901_160)" fill-opacity="0.85"/>
<path d="M486.443 355.43C486.443 381.553 465.267 402.729 439.144 402.729C413.022 402.729 391.846 381.553 391.846 355.43C391.846 329.308 413.022 308.132 439.144 308.132C465.267 308.132 486.443 329.308 486.443 355.43Z" fill="url(#paint64_radial_901_160)" fill-opacity="0.8"/>
<path d="M486.443 355.43C486.443 381.553 465.267 402.729 439.144 402.729C413.022 402.729 391.846 381.553 391.846 355.43C391.846 329.308 413.022 308.132 439.144 308.132C465.267 308.132 486.443 329.308 486.443 355.43Z" fill="url(#paint65_radial_901_160)" fill-opacity="0.88"/>
<path d="M485.943 355.43C485.943 381.277 464.99 402.229 439.144 402.229C413.298 402.229 392.346 381.277 392.346 355.43C392.346 329.584 413.298 308.632 439.144 308.632C464.99 308.632 485.943 329.584 485.943 355.43Z" stroke="#596387"/>
</g>
<path d="M422.192 329.446C418.554 317.971 435.347 317.695 441.223 331.125C444.195 337.916 443.625 347.571 442.986 357.249C433.854 346.518 424.099 335.462 422.192 329.446Z" fill="url(#paint66_linear_901_160)"/>
<path d="M445.605 388.221C475.564 382.934 488.196 357.019 476.86 340.529C471.572 332.838 463.292 334.265 445.605 335.325C427.917 336.384 410.338 339.354 410.338 362.472C410.338 385.59 431.839 390.65 445.605 388.221Z" fill="url(#paint67_radial_901_160)"/>
<path d="M445.605 388.221C475.564 382.934 488.196 357.019 476.86 340.529C471.572 332.838 463.292 334.265 445.605 335.325C427.917 336.384 410.338 339.354 410.338 362.472C410.338 385.59 431.839 390.65 445.605 388.221Z" fill="url(#paint68_linear_901_160)"/>
<g style="mix-blend-mode:hard-light">
<path d="M419.015 361.073C419.014 345.61 423.793 331.186 426.198 324.358C427.187 321.548 430.89 320.748 433.358 322.415C437.561 324.95 446.029 331.107 454.577 337.01C463.46 343.144 476.269 349.926 470.39 370.035C465.936 385.272 444.203 384.582 444.203 384.582C444.203 384.582 419.015 384.163 419.015 361.073Z" fill="url(#paint69_linear_901_160)"/>
</g>
<path d="M467.621 383.877C479.935 373.102 484.21 350.579 475.954 336.586C467.697 322.593 455.935 319.334 446.147 319.793C436.36 320.252 416.481 326.371 415.641 348.34C414.802 370.309 426.227 379.627 438.178 390.126C442.795 394.183 455.307 394.651 467.621 383.877Z" fill="url(#paint70_linear_901_160)"/>
<path d="M424.837 377.205C425.541 377.622 426.17 378.027 426.64 378.448C432.77 383.937 442.166 383.354 452.117 380.752C462.613 378.007 479.638 373.061 482.402 359.961C483.967 352.541 478.285 342.572 470.663 334.484C463.721 327.117 455.25 321.309 447.577 320.409C445.655 320.183 443.309 320.162 440.791 320.49C426.216 323.497 418.348 331.646 417.146 348.23C415.944 364.815 417.301 368.016 424.837 377.205Z" fill="url(#paint71_linear_901_160)" fill-opacity="0.78"/>
<g style="mix-blend-mode:color-dodge">
<path d="M406.932 359.722C404.648 343.858 411.376 326.757 426.761 326.757C438.907 326.757 445.771 336.043 455.103 342.142C466.562 349.633 475.347 354.799 475.347 362.386C475.347 376.152 454.823 383.463 435.247 375.627C420.963 369.909 409.215 375.585 406.932 359.722Z" fill="url(#paint72_radial_901_160)" fill-opacity="0.8"/>
</g>
<path d="M406.932 359.722C404.648 343.858 411.376 326.757 426.761 326.757C438.907 326.757 445.771 336.043 455.103 342.142C466.562 349.633 475.347 354.799 475.347 362.386C475.347 376.152 454.823 383.463 435.247 375.627C420.963 369.909 409.215 375.585 406.932 359.722Z" fill="url(#paint73_linear_901_160)"/>
<path d="M444.162 383.043C449.2 396.897 461.935 392.556 459.974 381.643C459.042 376.451 451.27 366.984 442.985 357.249C442.361 366.711 441.672 376.194 444.162 383.043Z" fill="url(#paint74_radial_901_160)"/>
<path d="M444.162 383.043C449.2 396.897 461.935 392.556 459.974 381.643C459.042 376.451 451.27 366.984 442.985 357.249C442.361 366.711 441.672 376.194 444.162 383.043Z" fill="url(#paint75_linear_901_160)"/>
<g filter="url(#filter3_df_901_160)">
<path d="M451.053 354.534C451.053 361.112 445.721 366.444 439.143 366.444C432.566 366.444 427.233 361.112 427.233 354.534C427.233 352.005 428.022 349.66 429.366 347.732C430.726 345.781 431.649 345.528 430.094 343.728C428.076 341.39 426.301 338.49 436.195 336.927C445.424 335.469 450.066 334.922 447.577 343.439C447.009 345.384 447.637 345.945 448.82 347.59C450.225 349.545 451.053 351.943 451.053 354.534Z" fill="white"/>
</g>
<defs>
<filter id="filter0_di_901_160" x="271.351" y="209.071" width="335.945" height="295.048" filterUnits="userSpaceOnUse" color-interpolation-filters="sRGB">
<feFlood flood-opacity="0" result="BackgroundImageFix"/>
<feColorMatrix in="SourceAlpha" type="matrix" values="0 0 0 0 0 0 0 0 0 0 0 0 0 0 0 0 0 0 127 0" result="hardAlpha"/>
<feOffset/>
<feGaussianBlur stdDeviation="7.5"/>
<feColorMatrix type="matrix" values="0 0 0 0 0.509804 0 0 0 0 0.843137 0 0 0 0 0.968627 0 0 0 1 0"/>
<feBlend mode="normal" in2="BackgroundImageFix" result="effect1_dropShadow_901_160"/>
<feBlend mode="normal" in="SourceGraphic" in2="effect1_dropShadow_901_160" result="shape"/>
<feColorMatrix in="SourceAlpha" type="matrix" values="0 0 0 0 0 0 0 0 0 0 0 0 0 0 0 0 0 0 127 0" result="hardAlpha"/>
<feOffset dy="4"/>
<feGaussianBlur stdDeviation="5"/>
<feComposite in2="hardAlpha" operator="arithmetic" k2="-1" k3="1"/>
<feColorMatrix type="matrix" values="0 0 0 0 0.509804 0 0 0 0 0.843137 0 0 0 0 0.968627 0 0 0 0.5 0"/>
<feBlend mode="normal" in2="shape" result="effect2_innerShadow_901_160"/>
</filter>
<filter id="filter1_di_901_160" x="284.954" y="220.855" width="308.736" height="271.479" filterUnits="userSpaceOnUse" color-interpolation-filters="sRGB">
<feFlood flood-opacity="0" result="BackgroundImageFix"/>
<feColorMatrix in="SourceAlpha" type="matrix" values="0 0 0 0 0 0 0 0 0 0 0 0 0 0 0 0 0 0 127 0" result="hardAlpha"/>
<feOffset/>
<feGaussianBlur stdDeviation="7.5"/>
<feColorMatrix type="matrix" values="0 0 0 0 0.509804 0 0 0 0 0.843137 0 0 0 0 0.968627 0 0 0 1 0"/>
<feBlend mode="normal" in2="BackgroundImageFix" result="effect1_dropShadow_901_160"/>
<feBlend mode="normal" in="SourceGraphic" in2="effect1_dropShadow_901_160" result="shape"/>
<feColorMatrix in="SourceAlpha" type="matrix" values="0 0 0 0 0 0 0 0 0 0 0 0 0 0 0 0 0 0 127 0" result="hardAlpha"/>
<feOffset dy="4"/>
<feGaussianBlur stdDeviation="5"/>
<feComposite in2="hardAlpha" operator="arithmetic" k2="-1" k3="1"/>
<feColorMatrix type="matrix" values="0 0 0 0 0.509804 0 0 0 0 0.843137 0 0 0 0 0.968627 0 0 0 0.5 0"/>
<feBlend mode="normal" in2="shape" result="effect2_innerShadow_901_160"/>
</filter>
<filter id="filter2_d_901_160" x="336.846" y="275.132" width="204.597" height="204.597" filterUnits="userSpaceOnUse" color-interpolation-filters="sRGB">
<feFlood flood-opacity="0" result="BackgroundImageFix"/>
<feColorMatrix in="SourceAlpha" type="matrix" values="0 0 0 0 0 0 0 0 0 0 0 0 0 0 0 0 0 0 127 0" result="hardAlpha"/>
<feOffset dy="22"/>
<feGaussianBlur stdDeviation="27.5"/>
<feColorMatrix type="matrix" values="0 0 0 0 0.121569 0 0 0 0 0.145098 0 0 0 0 0.258824 0 0 0 0.63 0"/>
<feBlend mode="multiply" in2="BackgroundImageFix" result="effect1_dropShadow_901_160"/>
<feBlend mode="normal" in="SourceGraphic" in2="effect1_dropShadow_901_160" result="shape"/>
</filter>
<filter id="filter3_df_901_160" x="362.233" y="271.074" width="173.82" height="180.37" filterUnits="userSpaceOnUse" color-interpolation-filters="sRGB">
<feFlood flood-opacity="0" result="BackgroundImageFix"/>
<feColorMatrix in="SourceAlpha" type="matrix" values="0 0 0 0 0 0 0 0 0 0 0 0 0 0 0 0 0 0 127 0" result="hardAlpha"/>
<feOffset dx="10" dy="10"/>
<feGaussianBlur stdDeviation="37.5"/>
<feColorMatrix type="matrix" values="0 0 0 0 1 0 0 0 0 1 0 0 0 0 1 0 0 0 1 0"/>
<feBlend mode="normal" in2="BackgroundImageFix" result="effect1_dropShadow_901_160"/>
<feBlend mode="normal" in="SourceGraphic" in2="effect1_dropShadow_901_160" result="shape"/>
<feGaussianBlur stdDeviation="18" result="effect2_foregroundBlur_901_160"/>
</filter>
<linearGradient id="paint0_linear_901_160" x1="-478.849" y1="-242.153" x2="160.262" y2="290.907" gradientUnits="userSpaceOnUse">
<stop stop-color="#2C50AA"/>
<stop offset="0.334905" stop-color="#274188"/>
<stop offset="0.707645" stop-color="#1F2B56"/>
<stop offset="1" stop-color="#1B2548"/>
</linearGradient>
<linearGradient id="paint1_linear_901_160" x1="-478.85" y1="-242.152" x2="160.261" y2="290.909" gradientUnits="userSpaceOnUse">
<stop stop-color="#2C50AA"/>
<stop offset="0.334905" stop-color="#274188"/>
<stop offset="0.707645" stop-color="#1F2B56"/>
<stop offset="1" stop-color="#1B2548"/>
</linearGradient>
<linearGradient id="paint2_linear_901_160" x1="-478.854" y1="-242.157" x2="160.261" y2="290.91" gradientUnits="userSpaceOnUse">
<stop stop-color="#2C50AA"/>
<stop offset="0.334905" stop-color="#274188"/>
<stop offset="0.707645" stop-color="#1F2B56"/>
<stop offset="1" stop-color="#1B2548"/>
</linearGradient>
<linearGradient id="paint3_linear_901_160" x1="-478.853" y1="-242.158" x2="160.264" y2="290.906" gradientUnits="userSpaceOnUse">
<stop stop-color="#2C50AA"/>
<stop offset="0.334905" stop-color="#274188"/>
<stop offset="0.707645" stop-color="#1F2B56"/>
<stop offset="1" stop-color="#1B2548"/>
</linearGradient>
<linearGradient id="paint4_linear_901_160" x1="-478.85" y1="-242.151" x2="160.262" y2="290.91" gradientUnits="userSpaceOnUse">
<stop stop-color="#42CDD7"/>
<stop offset="0.334905" stop-color="#42C6D0"/>
<stop offset="0.707645" stop-color="#1F2B56"/>
<stop offset="1" stop-color="#1B2548"/>
</linearGradient>
<linearGradient id="paint5_linear_901_160" x1="-478.85" y1="-242.153" x2="160.262" y2="290.908" gradientUnits="userSpaceOnUse">
<stop stop-color="#2C50AA"/>
<stop offset="0.334905" stop-color="#274188"/>
<stop offset="0.707645" stop-color="#1F2B56"/>
<stop offset="1" stop-color="#1B2548"/>
</linearGradient>
<linearGradient id="paint6_linear_901_160" x1="-478.851" y1="-242.151" x2="160.261" y2="290.911" gradientUnits="userSpaceOnUse">
<stop stop-color="#2C50AA"/>
<stop offset="0.334905" stop-color="#274188"/>
<stop offset="0.707645" stop-color="#1F2B56"/>
<stop offset="1" stop-color="#1B2548"/>
</linearGradient>
<linearGradient id="paint7_linear_901_160" x1="-478.85" y1="-242.152" x2="160.262" y2="290.91" gradientUnits="userSpaceOnUse">
<stop stop-color="#2C50AA"/>
<stop offset="0.334905" stop-color="#274188"/>
<stop offset="0.707645" stop-color="#1F2B56"/>
<stop offset="1" stop-color="#1B2548"/>
</linearGradient>
<linearGradient id="paint8_linear_901_160" x1="439.323" y1="489.119" x2="439.323" y2="224.071" gradientUnits="userSpaceOnUse">
<stop stop-color="#5DFFFF"/>
<stop offset="1" stop-color="#00FFFF" stop-opacity="0.32"/>
</linearGradient>
<linearGradient id="paint9_linear_901_160" x1="439.322" y1="477.334" x2="439.322" y2="235.855" gradientUnits="userSpaceOnUse">
<stop stop-color="#5DFFFF"/>
<stop offset="1" stop-color="#00FFFF" stop-opacity="0.32"/>
</linearGradient>
<linearGradient id="paint10_linear_901_160" x1="280.424" y1="511.545" x2="280.424" y2="429.533" gradientUnits="userSpaceOnUse">
<stop stop-color="white"/>
<stop offset="1" stop-color="#CBDDFF" stop-opacity="0.32"/>
</linearGradient>
<linearGradient id="paint11_linear_901_160" x1="273.869" y1="515.191" x2="273.869" y2="404.518" gradientUnits="userSpaceOnUse">
<stop stop-color="white"/>
<stop offset="1" stop-color="#CBDDFF" stop-opacity="0.32"/>
</linearGradient>
<linearGradient id="paint12_linear_901_160" x1="295.601" y1="434.347" x2="295.601" y2="425.678" gradientUnits="userSpaceOnUse">
<stop stop-color="white"/>
<stop offset="1" stop-color="#CBDDFF" stop-opacity="0.32"/>
</linearGradient>
<linearGradient id="paint13_linear_901_160" x1="298.921" y1="409.333" x2="298.921" y2="400.664" gradientUnits="userSpaceOnUse">
<stop stop-color="white"/>
<stop offset="1" stop-color="#CBDDFF" stop-opacity="0.32"/>
</linearGradient>
<linearGradient id="paint14_linear_901_160" x1="321.782" y1="473.757" x2="321.782" y2="465.084" gradientUnits="userSpaceOnUse">
<stop stop-color="white"/>
<stop offset="1" stop-color="#CBDDFF" stop-opacity="0.32"/>
</linearGradient>
<linearGradient id="paint15_linear_901_160" x1="235.031" y1="624.066" x2="235.031" y2="615.397" gradientUnits="userSpaceOnUse">
<stop stop-color="white"/>
<stop offset="1" stop-color="#CBDDFF" stop-opacity="0.32"/>
</linearGradient>
<linearGradient id="paint16_linear_901_160" x1="213.596" y1="684.689" x2="213.596" y2="676.021" gradientUnits="userSpaceOnUse">
<stop stop-color="white"/>
<stop offset="1" stop-color="#CBDDFF" stop-opacity="0.32"/>
</linearGradient>
<linearGradient id="paint17_linear_901_160" x1="278.501" y1="680.809" x2="278.501" y2="454.986" gradientUnits="userSpaceOnUse">
<stop stop-color="white"/>
<stop offset="1" stop-color="#CBDDFF" stop-opacity="0.32"/>
</linearGradient>
<linearGradient id="paint18_linear_901_160" x1="278.406" y1="620.187" x2="278.406" y2="468.968" gradientUnits="userSpaceOnUse">
<stop stop-color="white"/>
<stop offset="1" stop-color="#CBDDFF" stop-opacity="0.32"/>
</linearGradient>
<linearGradient id="paint19_linear_901_160" x1="218.62" y1="736.472" x2="218.62" y2="510.649" gradientUnits="userSpaceOnUse">
<stop stop-color="white"/>
<stop offset="1" stop-color="#CBDDFF" stop-opacity="0.32"/>
</linearGradient>
<linearGradient id="paint20_linear_901_160" x1="200.622" y1="740.117" x2="200.622" y2="514.294" gradientUnits="userSpaceOnUse">
<stop stop-color="white"/>
<stop offset="1" stop-color="#CBDDFF" stop-opacity="0.32"/>
</linearGradient>
<linearGradient id="paint21_linear_901_160" x1="417.165" y1="569.523" x2="417.165" y2="517.762" gradientUnits="userSpaceOnUse">
<stop stop-color="white"/>
<stop offset="1" stop-color="#CBDDFF" stop-opacity="0.32"/>
</linearGradient>
<linearGradient id="paint22_linear_901_160" x1="430.077" y1="586.991" x2="430.077" y2="502.563" gradientUnits="userSpaceOnUse">
<stop stop-color="white"/>
<stop offset="1" stop-color="#CBDDFF" stop-opacity="0.32"/>
</linearGradient>
<linearGradient id="paint23_linear_901_160" x1="449.088" y1="522.532" x2="449.088" y2="513.86" gradientUnits="userSpaceOnUse">
<stop stop-color="white"/>
<stop offset="1" stop-color="#CBDDFF" stop-opacity="0.32"/>
</linearGradient>
<linearGradient id="paint24_linear_901_160" x1="469.225" y1="507.337" x2="469.225" y2="498.664" gradientUnits="userSpaceOnUse">
<stop stop-color="white"/>
<stop offset="1" stop-color="#CBDDFF" stop-opacity="0.32"/>
</linearGradient>
<linearGradient id="paint25_linear_901_160" x1="401.91" y1="519.122" x2="401.91" y2="510.45" gradientUnits="userSpaceOnUse">
<stop stop-color="white"/>
<stop offset="1" stop-color="#CBDDFF" stop-opacity="0.32"/>
</linearGradient>
<linearGradient id="paint26_linear_901_160" x1="313.778" y1="668.626" x2="313.778" y2="659.954" gradientUnits="userSpaceOnUse">
<stop stop-color="white"/>
<stop offset="1" stop-color="#CBDDFF" stop-opacity="0.32"/>
</linearGradient>
<linearGradient id="paint27_linear_901_160" x1="337.501" y1="713.247" x2="337.501" y2="488.614" gradientUnits="userSpaceOnUse">
<stop stop-color="white"/>
<stop offset="1" stop-color="#CBDDFF" stop-opacity="0.32"/>
</linearGradient>
<linearGradient id="paint28_linear_901_160" x1="357.843" y1="664.752" x2="357.843" y2="514.326" gradientUnits="userSpaceOnUse">
<stop stop-color="white"/>
<stop offset="1" stop-color="#CBDDFF" stop-opacity="0.32"/>
</linearGradient>
<linearGradient id="paint29_linear_901_160" x1="318.518" y1="792.783" x2="318.518" y2="568.15" gradientUnits="userSpaceOnUse">
<stop stop-color="white"/>
<stop offset="1" stop-color="#CBDDFF" stop-opacity="0.32"/>
</linearGradient>
<linearGradient id="paint30_linear_901_160" x1="324.201" y1="810.251" x2="324.201" y2="585.618" gradientUnits="userSpaceOnUse">
<stop stop-color="white"/>
<stop offset="1" stop-color="#CBDDFF" stop-opacity="0.32"/>
</linearGradient>
<linearGradient id="paint31_linear_901_160" x1="598.306" y1="283.72" x2="598.306" y2="201.708" gradientUnits="userSpaceOnUse">
<stop stop-color="white"/>
<stop offset="1" stop-color="#CBDDFF" stop-opacity="0.32"/>
</linearGradient>
<linearGradient id="paint32_linear_901_160" x1="604.862" y1="308.735" x2="604.862" y2="198.06" gradientUnits="userSpaceOnUse">
<stop stop-color="white"/>
<stop offset="1" stop-color="#CBDDFF" stop-opacity="0.32"/>
</linearGradient>
<linearGradient id="paint33_linear_901_160" x1="583.129" y1="287.576" x2="583.129" y2="278.906" gradientUnits="userSpaceOnUse">
<stop stop-color="white"/>
<stop offset="1" stop-color="#CBDDFF" stop-opacity="0.32"/>
</linearGradient>
<linearGradient id="paint34_linear_901_160" x1="579.811" y1="312.591" x2="579.811" y2="303.92" gradientUnits="userSpaceOnUse">
<stop stop-color="white"/>
<stop offset="1" stop-color="#CBDDFF" stop-opacity="0.32"/>
</linearGradient>
<linearGradient id="paint35_linear_901_160" x1="556.948" y1="248.167" x2="556.948" y2="239.495" gradientUnits="userSpaceOnUse">
<stop stop-color="white"/>
<stop offset="1" stop-color="#CBDDFF" stop-opacity="0.32"/>
</linearGradient>
<linearGradient id="paint36_linear_901_160" x1="600.229" y1="258.266" x2="600.229" y2="32.4405" gradientUnits="userSpaceOnUse">
<stop stop-color="white"/>
<stop offset="1" stop-color="#CBDDFF" stop-opacity="0.32"/>
</linearGradient>
<linearGradient id="paint37_linear_901_160" x1="600.324" y1="244.285" x2="600.324" y2="93.066" gradientUnits="userSpaceOnUse">
<stop stop-color="white"/>
<stop offset="1" stop-color="#CBDDFF" stop-opacity="0.32"/>
</linearGradient>
<linearGradient id="paint38_linear_901_160" x1="660.108" y1="202.604" x2="660.108" y2="-23.2198" gradientUnits="userSpaceOnUse">
<stop stop-color="white"/>
<stop offset="1" stop-color="#CBDDFF" stop-opacity="0.32"/>
</linearGradient>
<linearGradient id="paint39_linear_901_160" x1="678.108" y1="198.958" x2="678.108" y2="-26.8652" gradientUnits="userSpaceOnUse">
<stop stop-color="white"/>
<stop offset="1" stop-color="#CBDDFF" stop-opacity="0.32"/>
</linearGradient>
<linearGradient id="paint40_linear_901_160" x1="461.563" y1="195.49" x2="461.563" y2="143.729" gradientUnits="userSpaceOnUse">
<stop stop-color="white"/>
<stop offset="1" stop-color="#CBDDFF" stop-opacity="0.32"/>
</linearGradient>
<linearGradient id="paint41_linear_901_160" x1="448.653" y1="210.688" x2="448.653" y2="126.261" gradientUnits="userSpaceOnUse">
<stop stop-color="white"/>
<stop offset="1" stop-color="#CBDDFF" stop-opacity="0.32"/>
</linearGradient>
<linearGradient id="paint42_linear_901_160" x1="429.642" y1="199.392" x2="429.642" y2="190.72" gradientUnits="userSpaceOnUse">
<stop stop-color="white"/>
<stop offset="1" stop-color="#CBDDFF" stop-opacity="0.32"/>
</linearGradient>
<linearGradient id="paint43_linear_901_160" x1="409.506" y1="214.588" x2="409.506" y2="205.915" gradientUnits="userSpaceOnUse">
<stop stop-color="white"/>
<stop offset="1" stop-color="#CBDDFF" stop-opacity="0.32"/>
</linearGradient>
<linearGradient id="paint44_linear_901_160" x1="312.401" y1="283.24" x2="312.401" y2="274.568" gradientUnits="userSpaceOnUse">
<stop stop-color="white"/>
<stop offset="1" stop-color="#CBDDFF" stop-opacity="0.32"/>
</linearGradient>
<linearGradient id="paint45_linear_901_160" x1="476.821" y1="202.803" x2="476.821" y2="194.131" gradientUnits="userSpaceOnUse">
<stop stop-color="white"/>
<stop offset="1" stop-color="#CBDDFF" stop-opacity="0.32"/>
</linearGradient>
<linearGradient id="paint46_linear_901_160" x1="541.231" y1="224.638" x2="541.231" y2="0.0065155" gradientUnits="userSpaceOnUse">
<stop stop-color="white"/>
<stop offset="1" stop-color="#CBDDFF" stop-opacity="0.32"/>
</linearGradient>
<linearGradient id="paint47_linear_901_160" x1="520.887" y1="198.929" x2="520.887" y2="48.4994" gradientUnits="userSpaceOnUse">
<stop stop-color="white"/>
<stop offset="1" stop-color="#CBDDFF" stop-opacity="0.32"/>
</linearGradient>
<linearGradient id="paint48_linear_901_160" x1="560.212" y1="145.103" x2="560.212" y2="-79.5287" gradientUnits="userSpaceOnUse">
<stop stop-color="white"/>
<stop offset="1" stop-color="#CBDDFF" stop-opacity="0.32"/>
</linearGradient>
<linearGradient id="paint49_linear_901_160" x1="554.529" y1="127.633" x2="554.529" y2="-97.0002" gradientUnits="userSpaceOnUse">
<stop stop-color="white"/>
<stop offset="1" stop-color="#CBDDFF" stop-opacity="0.32"/>
</linearGradient>
<linearGradient id="paint50_linear_901_160" x1="309.839" y1="334.42" x2="309.839" y2="232.061" gradientUnits="userSpaceOnUse">
<stop stop-color="white"/>
<stop offset="1" stop-color="#CBDDFF" stop-opacity="0.32"/>
</linearGradient>
<linearGradient id="paint51_linear_901_160" x1="567.513" y1="434.348" x2="567.513" y2="425.675" gradientUnits="userSpaceOnUse">
<stop stop-color="white"/>
<stop offset="1" stop-color="#CBDDFF" stop-opacity="0.32"/>
</linearGradient>
<linearGradient id="paint52_linear_901_160" x1="564.954" y1="485.527" x2="564.954" y2="383.168" gradientUnits="userSpaceOnUse">
<stop stop-color="white"/>
<stop offset="1" stop-color="#CBDDFF" stop-opacity="0.32"/>
</linearGradient>
<linearGradient id="paint53_linear_901_160" x1="694.171" y1="440.113" x2="694.171" y2="-30.4996" gradientUnits="userSpaceOnUse">
<stop stop-color="white"/>
<stop offset="1" stop-color="#CBDDFF" stop-opacity="0.32"/>
</linearGradient>
<linearGradient id="paint54_linear_901_160" x1="594.494" y1="461.487" x2="594.494" y2="436.171" gradientUnits="userSpaceOnUse">
<stop stop-color="white"/>
<stop offset="1" stop-color="#CBDDFF" stop-opacity="0.32"/>
</linearGradient>
<linearGradient id="paint55_linear_901_160" x1="186.91" y1="743.751" x2="186.91" y2="273.142" gradientUnits="userSpaceOnUse">
<stop stop-color="white"/>
<stop offset="1" stop-color="#CBDDFF" stop-opacity="0.32"/>
</linearGradient>
<linearGradient id="paint56_linear_901_160" x1="286.586" y1="277.081" x2="286.586" y2="251.763" gradientUnits="userSpaceOnUse">
<stop stop-color="white"/>
<stop offset="1" stop-color="#CBDDFF" stop-opacity="0.32"/>
</linearGradient>
<linearGradient id="paint57_linear_901_160" x1="326.116" y1="216.943" x2="326.116" y2="178.905" gradientUnits="userSpaceOnUse">
<stop stop-color="white"/>
<stop offset="1" stop-color="#CBDDFF" stop-opacity="0.32"/>
</linearGradient>
<linearGradient id="paint58_linear_901_160" x1="494.68" y1="533.574" x2="494.68" y2="511.492" gradientUnits="userSpaceOnUse">
<stop stop-color="white"/>
<stop offset="1" stop-color="#CBDDFF" stop-opacity="0.32"/>
</linearGradient>
<linearGradient id="paint59_linear_901_160" x1="471.906" y1="104.064" x2="471.906" y2="77.8618" gradientUnits="userSpaceOnUse">
<stop stop-color="white"/>
<stop offset="1" stop-color="#CBDDFF" stop-opacity="0.32"/>
</linearGradient>
<linearGradient id="paint60_linear_901_160" x1="326.117" y1="561.86" x2="326.117" y2="535.656" gradientUnits="userSpaceOnUse">
<stop stop-color="white"/>
<stop offset="1" stop-color="#CBDDFF" stop-opacity="0.32"/>
</linearGradient>
<linearGradient id="paint61_linear_901_160" x1="547.68" y1="510.451" x2="547.68" y2="494.237" gradientUnits="userSpaceOnUse">
<stop stop-color="white"/>
<stop offset="1" stop-color="#CBDDFF" stop-opacity="0.32"/>
</linearGradient>
<radialGradient id="paint62_radial_901_160" cx="0" cy="0" r="1" gradientUnits="userSpaceOnUse" gradientTransform="translate(423.751 323.665) rotate(63.1327) scale(35.6093 42.2421)">
<stop stop-color="#7D7194"/>
<stop offset="1" stop-color="#7D7194" stop-opacity="0"/>
</radialGradient>
<radialGradient id="paint63_radial_901_160" cx="0" cy="0" r="1" gradientUnits="userSpaceOnUse" gradientTransform="translate(483.924 340.178) rotate(161.19) scale(47.3064)">
<stop stop-color="#4A8F9F"/>
<stop offset="1" stop-color="#4A8F9F" stop-opacity="0"/>
</radialGradient>
<radialGradient id="paint64_radial_901_160" cx="0" cy="0" r="1" gradientUnits="userSpaceOnUse" gradientTransform="translate(454.817 400.211) rotate(-108.939) scale(30.181)">
<stop stop-color="#5C4763"/>
<stop offset="1" stop-color="#5C4763" stop-opacity="0"/>
</radialGradient>
<radialGradient id="paint65_radial_901_160" cx="0" cy="0" r="1" gradientUnits="userSpaceOnUse" gradientTransform="translate(387.648 372.503) rotate(-18.3418) scale(54.2529 75.413)">
<stop stop-color="#3D3041"/>
<stop offset="1" stop-color="#3D3041" stop-opacity="0"/>
</radialGradient>
<linearGradient id="paint66_linear_901_160" x1="421.682" y1="328.886" x2="441.964" y2="325.528" gradientUnits="userSpaceOnUse">
<stop stop-color="#E375A0"/>
<stop offset="1" stop-color="#E375A0" stop-opacity="0"/>
</linearGradient>
<radialGradient id="paint67_radial_901_160" cx="0" cy="0" r="1" gradientUnits="userSpaceOnUse" gradientTransform="translate(427.41 342.601) rotate(69.3339) scale(34.0999 41.0731)">
<stop stop-color="#B850C1"/>
<stop offset="1" stop-color="#DCADE0" stop-opacity="0"/>
</radialGradient>
<linearGradient id="paint68_linear_901_160" x1="447.911" y1="334.428" x2="447.594" y2="345.041" gradientUnits="userSpaceOnUse">
<stop stop-color="#B850C1"/>
<stop offset="1" stop-color="#DCADE0" stop-opacity="0"/>
</linearGradient>
<linearGradient id="paint69_linear_901_160" x1="424.332" y1="368.35" x2="450.64" y2="358.274" gradientUnits="userSpaceOnUse">
<stop stop-color="#7EA1E4"/>
<stop offset="1" stop-color="#70CBFF" stop-opacity="0"/>
</linearGradient>
<linearGradient id="paint70_linear_901_160" x1="480.077" y1="352.677" x2="447.912" y2="367.172" gradientUnits="userSpaceOnUse">
<stop stop-color="#5BAEEC"/>
<stop offset="1" stop-color="#5BAEEC" stop-opacity="0"/>
</linearGradient>
<linearGradient id="paint71_linear_901_160" x1="427" y1="349.266" x2="469.663" y2="357.197" gradientUnits="userSpaceOnUse">
<stop stop-color="#85FAFE" stop-opacity="0"/>
<stop offset="1" stop-color="#85FAFE"/>
</linearGradient>
<radialGradient id="paint72_radial_901_160" cx="0" cy="0" r="1" gradientUnits="userSpaceOnUse" gradientTransform="translate(424.784 334.903) rotate(84.3771) scale(31.2175 34.8663)">
<stop stop-color="#65ECE8"/>
<stop offset="1" stop-color="#8BECE9" stop-opacity="0"/>
</radialGradient>
<linearGradient id="paint73_linear_901_160" x1="462.485" y1="370.387" x2="471.672" y2="352.804" gradientUnits="userSpaceOnUse">
<stop stop-color="#7BE7F6" stop-opacity="0"/>
<stop offset="0.75" stop-color="#7BE7F6"/>
</linearGradient>
<radialGradient id="paint74_radial_901_160" cx="0" cy="0" r="1" gradientUnits="userSpaceOnUse" gradientTransform="translate(446.161 388.501) rotate(-68.2079) scale(19.6047 25.1702)">
<stop stop-color="#E375A0" stop-opacity="0"/>
<stop offset="1" stop-color="#FF91C6"/>
</radialGradient>
<linearGradient id="paint75_linear_901_160" x1="444.202" y1="361.353" x2="445.602" y2="370.868" gradientUnits="userSpaceOnUse">
<stop stop-color="white"/>
<stop offset="1" stop-color="white" stop-opacity="0"/>
</linearGradient>
</defs>
</svg>
