<svg width="401" height="231" viewBox="0 0 401 231" fill="none" xmlns="http://www.w3.org/2000/svg">
<g opacity="0.1">
<path opacity="0.4" d="M69.9399 -41.467C50.0222 -96.7961 141.968 -98.1285 174.141 -33.3677C190.409 -0.622276 187.288 45.9316 183.793 92.5937C133.794 40.854 80.383 -12.4573 69.9399 -41.467Z" fill="url(#paint0_linear_901_5806)"/>
<path opacity="0.4" d="M84.4131 203.054C88.2668 205.167 91.7089 207.222 94.2811 209.358C127.83 237.212 179.259 234.256 233.721 221.051C291.166 207.122 384.342 182.023 399.47 115.553C408.041 77.8974 376.941 27.3147 335.226 -13.7267C297.228 -51.1123 250.869 -80.5808 208.874 -85.1491C198.352 -86.2938 185.512 -86.4019 171.734 -84.7395C91.9603 -69.4806 48.8974 -28.1284 42.3201 56.0256C35.7427 140.18 43.1665 156.424 84.4131 203.054Z" fill="url(#paint1_linear_901_5806)" fill-opacity="0.78"/>
<path opacity="0.4" d="M-13.6193 114.801C-26.125 35.0779 10.7202 -50.8684 94.9844 -50.8684C161.509 -50.8684 199.101 -4.20089 250.208 26.4533C312.971 64.0987 361.082 90.0603 361.082 128.192C361.082 197.375 248.675 234.117 141.459 194.734C63.2296 165.998 -1.11371 194.524 -13.6193 114.801Z" fill="url(#paint2_linear_901_5806)"/>
</g>
<defs>
<linearGradient id="paint0_linear_901_5806" x1="67.1445" y1="-44.1644" x2="177.345" y2="-64.885" gradientUnits="userSpaceOnUse">
<stop stop-color="#E375A0"/>
<stop offset="1" stop-color="#E375A0" stop-opacity="0"/>
</linearGradient>
<linearGradient id="paint1_linear_901_5806" x1="96.2544" y1="61.2801" x2="328.483" y2="107.848" gradientUnits="userSpaceOnUse">
<stop stop-color="#85FAFE" stop-opacity="0"/>
<stop offset="1" stop-color="#85FAFE"/>
</linearGradient>
<linearGradient id="paint2_linear_901_5806" x1="290.639" y1="168.401" x2="334.495" y2="76.9342" gradientUnits="userSpaceOnUse">
<stop stop-color="#7BE7F6" stop-opacity="0"/>
<stop offset="0.75" stop-color="#7BE7F6"/>
</linearGradient>
</defs>
</svg>
