<svg width="476" height="624" viewBox="0 0 476 624" fill="none" xmlns="http://www.w3.org/2000/svg">
<g opacity="0.3" filter="url(#filter0_d_902_159)">
<path d="M569 290C569 431.937 453.937 547 312 547C170.063 547 55 431.937 55 290C55 148.063 170.063 33 312 33C453.937 33 569 148.063 569 290Z" fill="#081939"/>
<path d="M569 290C569 431.937 453.937 547 312 547C170.063 547 55 431.937 55 290C55 148.063 170.063 33 312 33C453.937 33 569 148.063 569 290Z" fill="url(#paint0_radial_902_159)" fill-opacity="0.9"/>
<path d="M569 290C569 431.937 453.937 547 312 547C170.063 547 55 431.937 55 290C55 148.063 170.063 33 312 33C453.937 33 569 148.063 569 290Z" fill="url(#paint1_radial_902_159)" fill-opacity="0.85"/>
<path d="M569 290C569 431.937 453.937 547 312 547C170.063 547 55 431.937 55 290C55 148.063 170.063 33 312 33C453.937 33 569 148.063 569 290Z" fill="url(#paint2_radial_902_159)" fill-opacity="0.8"/>
<path d="M569 290C569 431.937 453.937 547 312 547C170.063 547 55 431.937 55 290C55 148.063 170.063 33 312 33C453.937 33 569 148.063 569 290Z" fill="url(#paint3_radial_902_159)" fill-opacity="0.88"/>
<path d="M568.5 290C568.5 431.661 453.661 546.5 312 546.5C170.339 546.5 55.5 431.661 55.5 290C55.5 148.339 170.339 33.5 312 33.5C453.661 33.5 568.5 148.339 568.5 290Z" stroke="#596387"/>
</g>
<path opacity="0.3" d="M209.889 157.812C190.123 95.4637 281.369 93.9623 313.297 166.939C329.441 203.839 326.344 256.299 322.875 308.882C273.257 250.578 220.253 190.503 209.889 157.812Z" fill="url(#paint4_linear_902_159)"/>
<g opacity="0.3">
<path d="M337.102 477.167C499.889 448.44 568.527 307.633 506.929 218.029C478.2 176.239 433.207 183.997 337.102 189.753C240.997 195.508 145.48 211.649 145.479 337.261C145.477 462.873 262.304 490.366 337.102 477.167Z" fill="url(#paint5_radial_902_159)"/>
<path d="M337.102 477.167C499.889 448.44 568.527 307.633 506.929 218.029C478.2 176.239 433.207 183.997 337.102 189.753C240.997 195.508 145.48 211.649 145.479 337.261C145.477 462.873 262.304 490.366 337.102 477.167Z" fill="url(#paint6_linear_902_159)"/>
</g>
<g style="mix-blend-mode:hard-light" opacity="0.3">
<path d="M192.625 329.659C192.622 245.64 218.589 167.268 231.654 130.164C237.03 114.897 257.149 110.551 270.561 119.61C293.4 133.382 339.412 166.838 385.858 198.912C434.122 232.242 503.72 269.09 471.778 378.357C447.577 461.145 329.49 457.399 329.49 457.399C329.49 457.399 192.629 455.121 192.625 329.659Z" fill="url(#paint7_linear_902_159)"/>
</g>
<path opacity="0.3" d="M456.729 453.563C523.638 395.018 546.869 272.637 502.007 196.604C457.146 120.571 393.231 102.866 340.052 105.359C286.873 107.852 178.857 141.103 174.294 260.472C169.732 379.84 231.813 430.471 296.748 487.518C321.838 509.561 389.819 512.108 456.729 453.563Z" fill="url(#paint8_linear_902_159)"/>
<path opacity="0.3" d="M224.261 417.314C228.087 419.577 231.504 421.777 234.057 424.064C267.364 453.89 318.421 450.725 372.49 436.585C429.52 421.671 522.023 394.794 537.042 323.619C545.55 283.297 514.675 229.133 473.262 185.186C435.538 145.154 389.514 113.599 347.823 108.708C337.377 107.482 324.629 107.366 310.951 109.146C231.753 125.485 189.002 169.765 182.472 259.877C175.942 349.989 183.312 367.383 224.261 417.314Z" fill="url(#paint9_linear_902_159)" fill-opacity="0.78"/>
<g style="mix-blend-mode:color-dodge" opacity="0.3">
<path d="M126.971 322.316C114.565 236.122 151.118 143.2 234.716 143.2C300.714 143.2 338.009 193.655 388.711 226.798C450.977 267.499 498.708 295.567 498.708 336.794C498.708 411.592 387.19 451.317 280.822 408.737C203.212 377.669 139.378 408.51 126.971 322.316Z" fill="url(#paint10_radial_902_159)" fill-opacity="0.8"/>
</g>
<path opacity="0.3" d="M126.971 322.316C114.565 236.122 151.118 143.2 234.716 143.2C300.714 143.2 338.009 193.655 388.711 226.798C450.977 267.499 498.708 295.567 498.708 336.794C498.708 411.592 387.19 451.317 280.822 408.737C203.212 377.669 139.378 408.51 126.971 322.316Z" fill="url(#paint11_linear_902_159)"/>
<g opacity="0.3">
<path d="M329.265 449.032C356.637 524.309 425.834 500.726 415.182 441.426C410.115 413.217 367.887 361.778 322.871 308.881C319.48 360.291 315.732 411.818 329.265 449.032Z" fill="url(#paint12_radial_902_159)"/>
<path d="M329.265 449.032C356.637 524.309 425.834 500.726 415.182 441.426C410.115 413.217 367.887 361.778 322.871 308.881C319.48 360.291 315.732 411.818 329.265 449.032Z" fill="url(#paint13_linear_902_159)"/>
</g>
<g opacity="0.3" filter="url(#filter1_df_902_159)">
<path d="M366.706 294.134C366.706 329.874 337.733 358.846 301.994 358.846C266.254 358.846 237.281 329.874 237.281 294.134C237.281 280.392 241.565 267.651 248.869 257.172C256.258 246.572 261.272 245.196 252.827 235.416C241.858 222.713 232.214 206.957 285.974 198.466C336.122 190.541 361.345 187.571 347.822 233.846C344.735 244.413 348.147 247.463 354.573 256.401C362.209 267.023 366.706 280.053 366.706 294.134Z" fill="white"/>
</g>
<defs>
<filter id="filter0_d_902_159" x="0" y="0" width="624" height="624" filterUnits="userSpaceOnUse" color-interpolation-filters="sRGB">
<feFlood flood-opacity="0" result="BackgroundImageFix"/>
<feColorMatrix in="SourceAlpha" type="matrix" values="0 0 0 0 0 0 0 0 0 0 0 0 0 0 0 0 0 0 127 0" result="hardAlpha"/>
<feOffset dy="22"/>
<feGaussianBlur stdDeviation="27.5"/>
<feColorMatrix type="matrix" values="0 0 0 0 0.121569 0 0 0 0 0.145098 0 0 0 0 0.258824 0 0 0 0.63 0"/>
<feBlend mode="multiply" in2="BackgroundImageFix" result="effect1_dropShadow_902_159"/>
<feBlend mode="normal" in="SourceGraphic" in2="effect1_dropShadow_902_159" result="shape"/>
</filter>
<filter id="filter1_df_902_159" x="172.281" y="128.83" width="279.425" height="315.017" filterUnits="userSpaceOnUse" color-interpolation-filters="sRGB">
<feFlood flood-opacity="0" result="BackgroundImageFix"/>
<feColorMatrix in="SourceAlpha" type="matrix" values="0 0 0 0 0 0 0 0 0 0 0 0 0 0 0 0 0 0 127 0" result="hardAlpha"/>
<feOffset dx="10" dy="10"/>
<feGaussianBlur stdDeviation="37.5"/>
<feColorMatrix type="matrix" values="0 0 0 0 1 0 0 0 0 1 0 0 0 0 1 0 0 0 1 0"/>
<feBlend mode="normal" in2="BackgroundImageFix" result="effect1_dropShadow_902_159"/>
<feBlend mode="normal" in="SourceGraphic" in2="effect1_dropShadow_902_159" result="shape"/>
<feGaussianBlur stdDeviation="18" result="effect2_foregroundBlur_902_159"/>
</filter>
<radialGradient id="paint0_radial_902_159" cx="0" cy="0" r="1" gradientUnits="userSpaceOnUse" gradientTransform="translate(228.362 117.4) rotate(63.1327) scale(193.485 229.525)">
<stop stop-color="#7D7194"/>
<stop offset="1" stop-color="#7D7194" stop-opacity="0"/>
</radialGradient>
<radialGradient id="paint1_radial_902_159" cx="0" cy="0" r="1" gradientUnits="userSpaceOnUse" gradientTransform="translate(555.315 207.123) rotate(161.19) scale(257.043)">
<stop stop-color="#4A8F9F"/>
<stop offset="1" stop-color="#4A8F9F" stop-opacity="0"/>
</radialGradient>
<radialGradient id="paint2_radial_902_159" cx="0" cy="0" r="1" gradientUnits="userSpaceOnUse" gradientTransform="translate(397.161 533.316) rotate(-108.939) scale(163.991)">
<stop stop-color="#5C4763"/>
<stop offset="1" stop-color="#5C4763" stop-opacity="0"/>
</radialGradient>
<radialGradient id="paint3_radial_902_159" cx="0" cy="0" r="1" gradientUnits="userSpaceOnUse" gradientTransform="translate(32.1895 382.765) rotate(-18.3418) scale(294.787 409.762)">
<stop stop-color="#3D3041"/>
<stop offset="1" stop-color="#3D3041" stop-opacity="0"/>
</radialGradient>
<linearGradient id="paint4_linear_902_159" x1="207.115" y1="154.773" x2="317.321" y2="136.524" gradientUnits="userSpaceOnUse">
<stop stop-color="#E375A0"/>
<stop offset="1" stop-color="#E375A0" stop-opacity="0"/>
</linearGradient>
<radialGradient id="paint5_radial_902_159" cx="0" cy="0" r="1" gradientUnits="userSpaceOnUse" gradientTransform="translate(238.24 229.29) rotate(69.3339) scale(185.284 223.173)">
<stop stop-color="#B850C1"/>
<stop offset="1" stop-color="#DCADE0" stop-opacity="0"/>
</radialGradient>
<linearGradient id="paint6_linear_902_159" x1="349.634" y1="184.88" x2="347.912" y2="242.549" gradientUnits="userSpaceOnUse">
<stop stop-color="#B850C1"/>
<stop offset="1" stop-color="#DCADE0" stop-opacity="0"/>
</linearGradient>
<linearGradient id="paint7_linear_902_159" x1="221.519" y1="369.197" x2="364.466" y2="314.452" gradientUnits="userSpaceOnUse">
<stop stop-color="#7EA1E4"/>
<stop offset="1" stop-color="#70CBFF" stop-opacity="0"/>
</linearGradient>
<linearGradient id="paint8_linear_902_159" x1="524.409" y1="284.035" x2="349.639" y2="362.798" gradientUnits="userSpaceOnUse">
<stop stop-color="#5BAEEC"/>
<stop offset="1" stop-color="#5BAEEC" stop-opacity="0"/>
</linearGradient>
<linearGradient id="paint9_linear_902_159" x1="236.017" y1="265.503" x2="467.826" y2="308.6" gradientUnits="userSpaceOnUse">
<stop stop-color="#85FAFE" stop-opacity="0"/>
<stop offset="1" stop-color="#85FAFE"/>
</linearGradient>
<radialGradient id="paint10_radial_902_159" cx="0" cy="0" r="1" gradientUnits="userSpaceOnUse" gradientTransform="translate(223.971 187.465) rotate(84.3771) scale(169.622 189.448)">
<stop stop-color="#65ECE8"/>
<stop offset="1" stop-color="#8BECE9" stop-opacity="0"/>
</radialGradient>
<linearGradient id="paint11_linear_902_159" x1="428.823" y1="380.267" x2="478.744" y2="284.727" gradientUnits="userSpaceOnUse">
<stop stop-color="#7BE7F6" stop-opacity="0"/>
<stop offset="0.75" stop-color="#7BE7F6"/>
</linearGradient>
<radialGradient id="paint12_radial_902_159" cx="0" cy="0" r="1" gradientUnits="userSpaceOnUse" gradientTransform="translate(340.128 478.688) rotate(-68.2079) scale(106.524 136.764)">
<stop stop-color="#E375A0" stop-opacity="0"/>
<stop offset="1" stop-color="#FF91C6"/>
</radialGradient>
<linearGradient id="paint13_linear_902_159" x1="329.483" y1="331.179" x2="337.086" y2="382.883" gradientUnits="userSpaceOnUse">
<stop stop-color="white"/>
<stop offset="1" stop-color="white" stop-opacity="0"/>
</linearGradient>
</defs>
</svg>
